{"glyphs":{"0":{"ha":864,"x_min":0,"x_max":0,"o":"m 432 -19 b 89 497 201 -19 89 101 b 432 992 89 889 201 992 b 775 497 664 992 775 889 b 432 -19 775 101 665 -19 m 431 911 b 190 497 258 911 190 853 b 431 67 190 160 258 67 b 674 497 607 67 674 160 b 431 911 674 853 607 911 "},"1":{"ha":864,"x_min":0,"x_max":0,"o":"m 417 0 l 417 863 l 200 758 l 167 833 l 517 1003 l 517 0 "},"2":{"ha":864,"x_min":0,"x_max":0,"o":"m 742 83 l 742 0 l 86 0 l 86 78 b 647 718 614 497 647 550 b 403 901 647 861 574 901 b 161 864 324 901 207 886 l 136 954 b 404 992 221 975 318 992 b 751 721 640 992 751 918 b 215 83 751 531 682 425 "},"3":{"ha":864,"x_min":0,"x_max":0,"o":"m 536 521 b 761 267 719 513 761 399 b 382 -19 761 51 642 -19 b 86 21 283 -19 169 0 l 110 99 b 382 65 188 75 289 65 b 654 269 599 65 654 122 b 399 478 654 422 586 478 l 288 478 l 288 560 l 399 560 b 639 743 568 560 639 614 b 389 907 639 860 586 907 b 122 871 297 907 190 893 l 97 954 b 389 992 175 971 278 992 b 742 756 651 992 742 911 b 536 521 742 640 708 536 "},"4":{"ha":854,"x_min":0,"x_max":0,"o":"m 540 906 b 185 365 410 744 251 486 l 540 365 m 639 365 l 776 365 l 776 283 l 639 283 l 639 0 l 540 0 l 540 283 l 50 283 l 50 304 b 479 968 143 476 324 768 l 639 968 "},"5":{"ha":864,"x_min":0,"x_max":0,"o":"m 251 572 b 408 581 299 578 351 581 b 761 283 671 581 761 493 b 385 -19 761 53 646 -19 b 108 21 288 -19 193 0 l 133 99 b 385 65 210 75 292 65 b 654 271 601 65 654 124 b 408 496 654 438 606 496 b 154 469 317 496 222 486 l 154 968 l 701 968 l 701 885 l 251 885 "},"6":{"ha":864,"x_min":0,"x_max":0,"o":"m 736 863 b 519 901 678 886 594 901 b 193 557 306 901 204 854 b 444 581 269 572 378 581 b 799 283 707 581 799 493 b 451 -19 799 53 693 -19 b 89 490 188 -19 89 94 b 518 992 89 886 236 992 b 768 951 600 992 693 975 m 451 65 b 692 271 649 65 692 124 b 444 496 692 438 642 496 b 193 471 356 496 261 486 b 451 65 196 135 281 65 "},"7":{"ha":864,"x_min":0,"x_max":0,"o":"m 811 932 b 378 0 657 683 476 281 l 264 0 b 678 885 378 313 547 678 l 126 885 l 126 968 l 811 968 "},"8":{"ha":864,"x_min":0,"x_max":0,"o":"m 432 65 b 671 269 614 65 671 122 b 432 478 671 422 601 478 b 194 269 263 478 194 422 b 432 65 194 122 249 65 m 432 560 b 647 743 585 560 647 614 b 432 907 647 860 594 907 b 217 743 269 907 217 860 b 432 560 217 614 281 560 m 432 -19 b 88 267 207 -19 88 51 b 314 521 88 399 129 513 b 114 756 140 536 114 640 b 432 992 114 911 204 992 b 751 756 660 992 751 911 b 551 521 751 640 725 536 b 776 267 735 513 776 399 b 432 -19 776 51 658 -19 "},"9":{"ha":864,"x_min":0,"x_max":0,"o":"m 436 392 b 82 671 174 392 82 460 b 429 992 82 901 188 992 b 782 654 693 992 782 926 b 401 0 782 364 579 156 l 263 0 b 624 406 411 124 550 256 b 436 392 557 397 485 392 m 679 638 b 429 908 679 886 604 908 b 189 682 231 908 189 829 b 436 478 189 517 238 478 b 658 496 511 478 593 483 b 679 638 672 540 679 588 "}," ":{"ha":397,"x_min":0,"x_max":0,"o":""},"ý":{"ha":707,"x_min":0,"x_max":0,"o":"m 293 -33 b 179 -267 258 -110 215 -200 l 285 -267 b 411 0 324 -194 375 -87 b 672 701 510 233 601 467 l 574 701 b 353 81 518 500 438 285 b 136 701 293 289 211 532 l 35 701 b 293 -33 128 510 222 217 m 274 789 l 439 968 l 554 968 l 369 789 "},"Þ":{"ha":903,"x_min":0,"x_max":0,"o":"m 240 968 l 240 806 l 572 806 b 847 492 788 806 847 658 b 579 193 847 340 779 193 l 240 193 l 240 0 l 140 0 l 140 968 m 571 282 b 736 493 685 282 736 369 b 578 719 736 636 682 719 l 240 719 l 240 282 "},"þ":{"ha":794,"x_min":0,"x_max":0,"o":"m 389 -19 b 196 39 289 -19 231 11 l 196 -267 l 106 -267 l 106 1003 l 196 1003 l 196 696 b 389 721 260 711 332 721 b 707 354 606 721 707 640 b 389 -19 707 67 607 -19 m 389 635 b 196 606 321 635 250 625 l 196 167 b 389 67 196 101 285 67 b 607 351 553 67 607 124 b 389 635 607 590 553 635 "},"Ž":{"ha":846,"x_min":0,"x_max":0,"o":"m 29 40 b 667 885 244 308 474 610 l 67 885 l 67 968 l 811 968 l 811 932 b 175 83 611 636 386 338 l 786 83 l 786 0 l 29 0 m 447 1092 l 560 1217 l 665 1217 l 496 1038 l 396 1038 l 221 1217 l 331 1217 l 447 1092 "},"ž":{"ha":688,"x_min":0,"x_max":0,"o":"m 50 38 b 488 618 217 239 397 478 l 72 618 l 72 701 l 629 701 l 629 667 b 200 83 506 478 300 197 l 631 83 l 631 0 l 50 0 m 353 849 l 463 968 l 571 968 l 401 789 l 301 789 l 126 968 l 240 968 "},"½":{"ha":1082,"x_min":0,"x_max":0,"o":"m 799 968 l 251 0 l 153 0 l 700 968 m 206 408 l 206 893 l 76 831 l 56 908 l 294 1011 l 294 408 m 704 76 b 868 229 715 165 774 193 b 1025 428 982 272 1025 336 b 789 594 1025 546 960 594 b 628 572 736 594 678 585 l 643 490 b 788 513 669 504 740 513 b 933 428 890 513 933 490 b 826 297 933 372 914 326 b 603 0 697 253 622 199 l 1026 0 l 1026 76 "},"!":{"ha":460,"x_min":0,"x_max":0,"o":"m 294 968 l 264 275 l 194 275 l 164 968 m 229 143 b 303 75 285 143 303 135 b 229 0 303 11 285 0 b 157 75 176 0 157 11 b 229 143 157 135 176 143 "},"\"":{"ha":424,"x_min":0,"x_max":0,"o":"m 169 968 l 143 649 l 78 649 l 63 968 m 361 968 l 335 649 l 271 649 l 258 968 "},"#":{"ha":915,"x_min":0,"x_max":0,"o":"m 65 708 l 261 708 l 276 968 l 365 968 l 350 708 l 579 708 l 594 968 l 683 968 l 668 708 l 874 708 l 868 632 l 663 632 l 646 363 l 856 363 l 850 288 l 642 288 l 624 0 l 535 0 l 553 288 l 324 288 l 306 0 l 217 0 l 235 288 l 42 288 l 47 363 l 239 363 l 256 632 l 60 632 m 328 363 l 557 363 l 574 632 l 344 632 "},"%":{"ha":1197,"x_min":0,"x_max":0,"o":"m 919 968 l 372 0 l 274 0 l 821 968 m 283 385 b 69 693 144 385 69 454 b 283 992 69 931 144 992 b 497 693 424 992 497 931 b 283 385 497 454 424 385 m 283 918 b 154 690 193 918 154 879 b 283 457 154 513 193 457 b 413 690 378 457 413 513 b 283 918 413 879 378 918 m 914 -19 b 700 289 775 -19 700 50 b 914 588 700 526 775 588 b 1128 289 1054 588 1128 526 b 914 -19 1128 50 1054 -19 m 914 514 b 785 286 824 514 785 475 b 914 53 785 108 824 53 b 1043 286 1008 53 1043 108 b 914 514 1043 475 1008 514 "},"(":{"ha":354,"x_min":0,"x_max":0,"o":"m 94 346 b 372 1050 94 786 222 974 l 417 976 b 193 346 304 936 193 758 b 417 -285 193 -65 304 -244 l 372 -358 b 94 346 222 -282 94 -94 "},"*":{"ha":583,"x_min":0,"x_max":0,"o":"m 42 794 l 226 794 l 135 956 l 200 992 l 290 832 l 383 992 l 450 954 l 357 794 l 542 794 l 542 719 l 356 719 l 449 558 l 383 522 l 292 681 l 200 522 l 133 560 l 225 719 l 42 719 "},",":{"ha":356,"x_min":0,"x_max":0,"o":"m 115 -221 l 32 -221 l 140 136 l 267 136 "},"-":{"ha":385,"x_min":0,"x_max":0,"o":"m 46 424 l 339 424 l 339 340 l 46 340 "},".":{"ha":356,"x_min":0,"x_max":0,"o":"m 176 143 b 250 75 233 143 250 135 b 176 0 250 11 233 0 b 106 75 124 0 106 11 b 176 143 106 135 124 143 "},":":{"ha":356,"x_min":0,"x_max":0,"o":"m 176 143 b 250 75 233 143 250 135 b 176 0 250 11 233 0 b 106 75 124 0 106 11 b 176 143 106 135 124 143 m 176 701 b 250 633 233 701 250 693 b 176 558 250 568 233 558 b 106 633 124 558 106 568 b 176 701 106 693 124 701 "},";":{"ha":356,"x_min":0,"x_max":0,"o":"m 115 -221 l 32 -221 l 140 136 l 267 136 m 176 701 b 250 633 233 701 250 693 b 176 558 250 568 233 558 b 106 633 124 558 106 568 b 176 701 106 693 124 701 "},"<":{"ha":864,"x_min":0,"x_max":0,"o":"m 272 497 l 717 128 l 665 67 l 154 472 l 154 519 l 663 924 l 717 864 "},"=":{"ha":864,"x_min":0,"x_max":0,"o":"m 99 390 l 764 390 l 764 307 l 99 307 m 99 676 l 764 676 l 764 593 l 99 593 "},"A":{"ha":928,"x_min":0,"x_max":0,"o":"m 806 0 b 689 299 768 93 728 193 l 217 299 b 117 0 182 200 149 101 l 18 0 b 383 968 129 324 249 644 l 554 968 b 918 0 664 642 801 268 l 806 0 m 444 890 b 247 382 375 718 308 550 l 658 382 b 485 890 599 546 539 721 "},"B":{"ha":957,"x_min":0,"x_max":0,"o":"m 619 83 b 756 275 722 83 756 163 b 614 478 756 392 714 478 l 240 478 l 240 83 l 619 83 m 606 560 b 733 726 706 560 733 640 b 606 885 733 824 707 885 l 240 885 l 240 560 l 606 560 m 644 521 b 863 274 828 513 863 406 b 621 0 863 93 776 0 l 140 0 l 140 968 l 606 968 b 836 739 799 968 836 860 b 644 521 836 624 817 536 "},"D":{"ha":976,"x_min":0,"x_max":0,"o":"m 439 968 b 889 486 740 968 889 861 b 439 0 889 113 742 0 l 140 0 l 140 968 m 782 486 b 439 885 782 824 688 885 l 240 885 l 240 83 l 439 83 b 782 486 688 83 782 168 "},"E":{"ha":847,"x_min":0,"x_max":0,"o":"m 803 968 l 803 885 l 240 885 l 240 560 l 639 560 l 639 476 l 240 476 l 240 83 l 803 83 l 803 0 l 140 0 l 140 968 "},"F":{"ha":793,"x_min":0,"x_max":0,"o":"m 793 968 l 793 885 l 240 885 l 240 513 l 639 513 l 639 429 l 240 429 l 240 0 l 140 0 l 140 968 "},"G":{"ha":940,"x_min":0,"x_max":0,"o":"m 726 439 l 474 439 l 474 519 l 826 519 l 826 13 b 531 -19 751 -11 617 -19 b 88 493 231 -19 88 99 b 531 992 88 889 231 992 b 801 954 617 992 726 976 l 769 867 b 532 903 711 889 607 903 b 196 493 288 903 196 849 b 532 69 196 139 288 69 b 726 93 607 69 685 82 "},"H":{"ha":992,"x_min":0,"x_max":0,"o":"m 240 0 l 140 0 l 140 968 l 240 968 l 240 564 l 754 564 l 754 968 l 853 968 l 853 0 l 754 0 l 754 474 l 240 474 "},"I":{"ha":379,"x_min":0,"x_max":0,"o":"m 240 968 l 240 0 l 140 0 l 140 968 "},"J":{"ha":611,"x_min":0,"x_max":0,"o":"m 471 267 b 207 -19 471 28 342 -19 b 18 22 146 -19 69 0 l 51 115 b 207 79 92 94 161 79 b 368 267 282 79 368 106 l 368 968 l 471 968 "},"K":{"ha":857,"x_min":0,"x_max":0,"o":"m 240 0 l 140 0 l 140 968 l 240 968 m 732 0 b 242 511 499 321 310 489 b 699 968 315 554 496 718 l 831 968 b 389 524 617 718 449 564 b 867 0 446 492 635 321 "},"L":{"ha":758,"x_min":0,"x_max":0,"o":"m 240 968 l 240 88 l 740 88 l 740 0 l 140 0 l 140 968 "},"M":{"ha":1207,"x_min":0,"x_max":0,"o":"m 607 242 b 928 968 700 485 810 728 l 1068 968 l 1068 0 l 968 0 l 968 857 b 638 106 850 601 740 350 l 564 106 b 238 857 460 356 351 607 l 238 0 l 140 0 l 140 968 l 290 968 b 607 242 406 726 513 483 "},"N":{"ha":1014,"x_min":0,"x_max":0,"o":"m 240 0 l 140 0 l 140 968 l 276 968 b 772 149 449 713 619 425 l 772 968 l 874 968 l 874 0 l 754 0 b 240 867 601 283 426 579 "},"O":{"ha":1054,"x_min":0,"x_max":0,"o":"m 526 -19 b 88 489 225 -19 88 89 b 526 992 88 883 226 992 b 967 489 828 992 967 883 b 526 -19 967 89 829 -19 m 526 907 b 196 486 281 907 196 842 b 526 68 196 149 281 68 b 861 486 775 68 861 149 b 526 907 861 842 775 907 "},"P":{"ha":903,"x_min":0,"x_max":0,"o":"m 571 444 b 736 656 685 444 736 532 b 578 885 736 799 682 885 l 240 885 l 240 444 m 140 0 l 140 968 l 572 968 b 847 654 788 968 847 821 b 579 356 847 503 779 356 l 240 356 l 240 0 "},"Q":{"ha":1090,"x_min":0,"x_max":0,"o":"m 839 -267 b 538 -19 722 -103 606 -26 b 106 489 242 -18 106 93 b 544 992 106 883 244 992 b 985 489 846 992 985 883 b 672 -11 985 150 886 21 b 967 -267 739 -22 840 -106 m 544 907 b 214 486 299 907 214 842 b 544 68 214 149 299 68 b 879 486 793 68 879 149 b 544 907 879 842 793 907 "},"R":{"ha":938,"x_min":0,"x_max":0,"o":"m 572 968 b 847 688 788 968 847 836 b 568 432 847 551 781 432 b 907 0 638 408 760 244 l 782 0 b 428 419 628 271 500 419 l 240 419 l 240 0 l 140 0 l 140 968 m 240 885 l 240 507 l 565 507 b 736 689 679 507 736 578 b 572 885 736 815 678 885 "},"S":{"ha":867,"x_min":0,"x_max":0,"o":"m 715 864 b 478 901 671 886 557 901 b 196 711 306 901 196 861 b 442 544 196 614 250 558 b 776 264 674 526 776 443 b 383 -19 776 58 619 -19 b 108 19 297 -19 183 -4 l 136 108 b 382 72 196 86 306 72 b 671 263 553 72 671 113 b 426 450 671 358 618 436 b 89 708 194 467 89 531 b 476 992 89 915 240 992 b 743 954 561 992 668 976 l 715 864 "},"T":{"ha":789,"x_min":0,"x_max":0,"o":"m 446 0 l 344 0 l 344 885 l 8 885 l 8 968 l 781 968 l 781 885 l 446 885 "},"U":{"ha":1025,"x_min":0,"x_max":0,"o":"m 903 336 b 513 -19 903 42 765 -19 b 122 336 263 -19 122 42 l 122 968 l 224 968 l 224 335 b 514 68 224 108 324 68 b 803 335 706 68 803 114 l 803 968 l 903 968 "},"V":{"ha":888,"x_min":0,"x_max":0,"o":"m 443 76 b 769 968 572 379 674 665 l 869 968 b 504 0 763 644 644 324 l 372 0 b 8 968 269 325 131 700 l 122 968 b 443 76 231 708 350 385 "},"W":{"ha":1257,"x_min":0,"x_max":0,"o":"m 900 103 b 1149 968 1007 429 1075 665 l 1247 968 b 961 0 1165 644 1072 324 l 832 0 b 642 825 778 289 703 589 b 422 0 599 594 511 292 l 296 0 b 8 968 210 325 106 700 l 121 968 b 365 103 207 708 286 432 b 590 968 440 354 542 721 l 693 968 b 900 103 757 721 854 363 "},"X":{"ha":900,"x_min":0,"x_max":0,"o":"m 868 968 b 518 496 754 810 638 653 b 882 0 640 332 765 164 l 761 0 b 457 415 661 139 560 276 b 135 0 349 274 240 135 l 18 0 b 399 490 147 163 275 328 b 29 968 278 649 154 808 l 150 968 b 458 572 247 846 351 713 b 751 968 558 704 656 836 "},"Y":{"ha":843,"x_min":0,"x_max":0,"o":"m 472 0 l 371 0 l 371 465 b -7 968 261 626 136 793 l 119 968 b 429 544 228 835 335 688 b 735 968 536 679 642 826 l 850 968 b 472 465 729 796 604 626 "},"Z":{"ha":846,"x_min":0,"x_max":0,"o":"m 29 40 b 667 885 244 308 474 610 l 67 885 l 67 968 l 811 968 l 811 932 b 175 83 611 636 386 338 l 786 83 l 786 0 l 29 0 "},"[":{"ha":369,"x_min":0,"x_max":0,"o":"m 397 1049 l 397 968 l 215 968 l 215 -282 l 397 -282 l 397 -361 l 119 -361 l 119 1049 "},"^":{"ha":654,"x_min":0,"x_max":0,"o":"m 324 881 l 103 411 l 14 411 l 278 968 l 374 968 l 640 411 l 544 411 "},"_":{"ha":553,"x_min":0,"x_max":0,"o":"m 46 -94 l 507 -94 l 507 -178 l 46 -178 "},"a":{"ha":753,"x_min":0,"x_max":0,"o":"m 647 36 b 364 -19 571 1 453 -19 b 79 217 163 -19 79 35 b 357 449 79 417 200 449 b 557 426 431 449 485 442 b 350 635 557 599 513 635 b 149 601 283 635 204 625 l 122 686 b 356 721 176 701 261 721 b 647 449 560 721 647 661 m 557 350 b 368 368 506 363 438 368 b 181 224 228 368 181 353 b 368 63 181 83 221 63 b 557 94 436 63 503 75 "},"f":{"ha":493,"x_min":0,"x_max":0,"o":"m 232 701 l 482 701 l 482 618 l 232 618 l 232 0 l 142 0 l 142 618 l 18 618 l 18 701 l 142 701 l 142 767 b 369 999 142 971 254 999 b 528 976 422 999 482 990 l 504 897 b 369 915 469 908 410 915 b 232 767 304 915 232 904 "},"i":{"ha":301,"x_min":0,"x_max":0,"o":"m 196 701 l 106 701 l 106 0 l 196 0 m 153 968 b 210 914 196 968 210 961 b 153 854 210 863 196 854 b 94 914 108 854 94 863 b 153 968 94 961 108 968 "},"j":{"ha":301,"x_min":0,"x_max":0,"o":"m -33 -199 b 106 -39 58 -199 106 -178 l 106 701 l 196 701 l 196 -39 b -33 -282 196 -244 97 -282 m 153 968 b 210 914 196 968 210 961 b 153 854 210 863 196 854 b 94 914 108 854 94 863 b 153 968 94 961 108 968 "},"k":{"ha":664,"x_min":0,"x_max":0,"o":"m 196 0 l 106 0 l 106 1003 l 196 1003 m 667 0 b 321 383 481 233 364 361 b 642 701 365 413 478 519 l 525 701 b 196 371 361 519 243 403 b 550 0 244 354 365 226 "},"l":{"ha":308,"x_min":0,"x_max":0,"o":"m 196 181 b 263 29 196 113 211 81 l 193 -29 b 106 175 135 26 106 72 l 106 1003 l 196 1003 "},"s":{"ha":700,"x_min":0,"x_max":0,"o":"m 561 599 b 361 638 504 621 429 638 b 182 511 242 638 182 621 b 357 403 182 442 231 411 b 617 201 539 390 617 332 b 346 -19 617 35 532 -19 b 93 18 276 -19 163 -6 l 121 103 b 346 63 169 81 274 63 b 518 193 460 63 518 82 b 346 315 518 268 481 304 b 83 503 176 328 83 371 b 361 721 83 668 179 721 b 592 685 429 721 513 707 l 561 599 "},"v":{"ha":707,"x_min":0,"x_max":0,"o":"m 351 86 b 574 701 436 290 517 497 l 672 701 b 411 0 601 467 510 235 l 283 0 b 35 701 214 236 128 507 l 136 701 b 351 86 211 526 292 294 "},"x":{"ha":725,"x_min":0,"x_max":0,"o":"m 567 0 b 376 282 511 89 446 186 b 154 0 304 186 229 93 l 43 0 b 325 351 142 114 238 235 b 43 701 235 474 136 594 l 168 701 b 379 426 235 618 308 525 b 568 701 451 524 514 618 l 678 701 b 432 356 600 586 518 471 b 679 0 517 242 600 119 "},"z":{"ha":688,"x_min":0,"x_max":0,"o":"m 50 38 b 488 618 217 239 397 478 l 72 618 l 72 701 l 629 701 l 629 667 b 200 83 506 478 300 197 l 631 83 l 631 0 l 50 0 "},"{":{"ha":360,"x_min":0,"x_max":0,"o":"m 21 308 l 21 382 b 171 661 103 382 171 439 b 378 1050 171 897 263 1011 l 422 976 b 265 661 329 951 265 883 b 143 346 265 428 189 360 b 265 31 189 332 265 264 b 422 -285 265 -192 329 -260 l 378 -358 b 171 31 263 -319 171 -206 b 21 310 171 253 103 310 "},"|":{"ha":432,"x_min":0,"x_max":0,"o":"m 265 1049 l 265 -356 l 167 -356 l 167 1049 "},"Ç":{"ha":836,"x_min":0,"x_max":0,"o":"m 88 493 b 531 992 88 889 231 992 b 801 954 617 992 726 976 l 769 864 b 532 901 711 888 607 901 b 196 493 288 901 196 849 b 532 72 196 139 288 72 b 769 108 607 72 711 86 l 801 19 b 531 -19 726 -4 617 -19 b 88 493 231 -19 88 99 m 522 0 l 522 -65 b 688 -169 650 -65 688 -86 b 514 -282 688 -256 639 -282 b 367 -253 444 -282 403 -274 l 392 -194 b 514 -218 422 -210 465 -218 b 593 -171 572 -218 593 -211 b 425 -128 593 -129 557 -121 l 475 0 "},"É":{"ha":847,"x_min":0,"x_max":0,"o":"m 140 968 l 140 0 l 803 0 l 803 83 l 240 83 l 240 476 l 639 476 l 639 560 l 240 560 l 240 885 l 803 885 l 803 968 m 553 1217 l 681 1217 l 460 1038 l 367 1038 "},"Ñ":{"ha":1014,"x_min":0,"x_max":0,"o":"m 240 0 l 140 0 l 140 968 l 276 968 b 772 149 449 713 619 425 l 772 968 l 874 968 l 874 0 l 754 0 b 240 867 601 283 426 579 m 765 1160 b 613 1033 738 1081 683 1033 b 413 1126 542 1033 476 1126 b 332 1044 383 1126 356 1104 l 283 1092 b 422 1201 324 1164 361 1201 b 624 1113 500 1201 558 1113 b 710 1204 658 1113 686 1135 "},"Ö":{"ha":1054,"x_min":0,"x_max":0,"o":"m 526 -19 b 967 489 829 -19 967 89 b 526 992 967 883 828 992 b 88 489 226 992 88 883 b 526 -19 88 89 225 -19 m 526 907 b 861 486 775 907 861 842 b 526 68 861 149 775 68 b 196 486 281 68 196 149 b 526 907 196 842 281 907 m 397 1176 b 454 1122 440 1176 454 1169 b 397 1063 454 1071 440 1063 b 339 1122 353 1063 339 1071 b 397 1176 339 1169 353 1176 m 660 1176 b 717 1122 703 1176 717 1169 b 660 1063 717 1071 703 1063 b 601 1122 615 1063 601 1071 b 660 1176 601 1169 615 1176 "},"Ü":{"ha":1025,"x_min":0,"x_max":0,"o":"m 903 968 l 803 968 l 803 335 b 514 68 803 114 706 68 b 224 335 324 68 224 108 l 224 968 l 122 968 l 122 336 b 513 -19 122 42 263 -19 b 903 336 765 -19 903 42 m 379 1176 b 436 1122 422 1176 436 1169 b 379 1063 436 1071 422 1063 b 321 1122 335 1063 321 1071 b 379 1176 321 1169 335 1176 m 642 1176 b 699 1122 685 1176 699 1169 b 642 1063 699 1071 685 1063 b 583 1122 597 1063 583 1071 b 642 1176 583 1169 597 1176 "},"á":{"ha":753,"x_min":0,"x_max":0,"o":"m 647 449 b 356 721 647 661 560 721 b 122 686 261 721 176 701 l 149 601 b 350 635 204 625 283 635 b 557 426 513 635 557 599 b 357 449 485 442 431 449 b 79 217 200 449 79 417 b 364 -19 79 35 163 -19 b 647 36 453 -19 571 1 m 557 94 b 368 63 503 75 436 63 b 181 224 221 63 181 83 b 368 368 181 353 228 368 b 557 350 438 368 506 363 l 557 94 m 276 789 l 442 968 l 557 968 l 372 789 "},"à":{"ha":753,"x_min":0,"x_max":0,"o":"m 647 36 b 364 -19 571 1 453 -19 b 79 217 163 -19 79 35 b 357 449 79 417 200 449 b 557 426 431 449 485 442 b 350 635 557 599 513 635 b 149 601 283 635 204 625 l 122 686 b 356 721 176 701 261 721 b 647 449 560 721 647 661 m 557 350 b 368 368 506 363 438 368 b 181 224 228 368 181 353 b 368 63 181 83 221 63 b 557 94 436 63 503 75 m 388 789 l 203 968 l 318 968 l 483 789 "},"â":{"ha":753,"x_min":0,"x_max":0,"o":"m 647 449 b 356 721 647 661 560 721 b 122 686 261 721 176 701 l 149 601 b 350 635 204 625 283 635 b 557 426 513 635 557 599 b 357 449 485 442 431 449 b 79 217 200 449 79 417 b 364 -19 79 35 163 -19 b 647 36 453 -19 571 1 m 557 94 b 368 63 503 75 436 63 b 181 224 221 63 181 83 b 368 368 181 353 228 368 b 557 350 438 368 506 363 l 557 94 m 379 908 l 269 789 l 161 789 l 331 968 l 431 968 l 606 789 l 492 789 "},"ä":{"ha":753,"x_min":0,"x_max":0,"o":"m 647 449 b 356 721 647 661 560 721 b 122 686 261 721 176 701 l 149 601 b 350 635 204 625 283 635 b 557 426 513 635 557 599 b 357 449 485 442 431 449 b 79 217 200 449 79 417 b 364 -19 79 35 163 -19 b 647 36 453 -19 571 1 m 557 94 b 368 63 503 75 436 63 b 181 224 221 63 181 83 b 368 368 181 353 228 368 b 557 350 438 368 506 363 l 557 94 m 239 913 b 296 858 282 913 296 906 b 239 799 296 807 282 799 b 181 858 194 799 181 807 b 239 913 181 906 194 913 m 501 913 b 558 858 544 913 558 906 b 501 799 558 807 544 799 b 443 858 457 799 443 807 b 501 913 443 906 457 913 "},"ã":{"ha":753,"x_min":0,"x_max":0,"o":"m 647 449 b 356 721 647 661 560 721 b 122 686 261 721 176 701 l 149 601 b 350 635 204 625 283 635 b 557 426 513 635 557 599 b 357 449 485 442 431 449 b 79 217 200 449 79 417 b 364 -19 79 35 163 -19 b 647 36 453 -19 571 1 m 557 94 b 368 63 503 75 436 63 b 181 224 221 63 181 83 b 368 368 181 353 228 368 b 557 350 438 368 506 363 l 557 94 m 610 911 b 464 785 581 829 538 785 b 272 876 390 785 339 876 b 189 792 242 876 214 854 l 139 840 b 282 954 181 915 219 954 b 468 863 363 954 401 863 b 553 957 504 863 528 886 "},"å":{"ha":753,"x_min":0,"x_max":0,"o":"m 647 36 b 364 -19 571 1 453 -19 b 79 217 163 -19 79 35 b 357 449 79 417 200 449 b 557 426 431 449 485 442 b 350 635 557 599 513 635 b 149 601 283 635 204 625 l 122 686 b 356 721 176 701 261 721 b 647 449 560 721 647 661 m 557 350 b 368 368 506 363 438 368 b 181 224 228 368 181 353 b 368 63 181 83 221 63 b 557 94 436 63 503 75 m 386 1025 b 539 894 485 1025 539 982 b 386 764 539 807 485 764 b 235 894 289 764 235 807 b 386 1025 235 982 275 1025 m 386 963 b 307 892 325 963 307 938 b 386 819 307 849 325 819 b 468 892 450 819 468 849 b 386 963 468 938 450 963 "},"ç":{"ha":647,"x_min":0,"x_max":0,"o":"m 626 19 b 426 -19 574 -4 486 -19 b 88 354 208 -19 88 67 b 426 721 88 640 210 721 b 626 686 485 721 576 706 l 597 601 b 426 635 547 625 485 635 b 188 351 263 635 188 590 b 426 67 188 124 263 67 b 597 103 486 67 547 81 m 403 0 l 403 -65 b 568 -169 531 -65 568 -86 b 394 -282 568 -256 519 -282 b 247 -253 325 -282 283 -274 l 272 -194 b 394 -218 303 -210 346 -218 b 474 -171 453 -218 474 -211 b 306 -128 474 -129 438 -121 l 356 0 "},"é":{"ha":758,"x_min":0,"x_max":0,"o":"m 403 721 b 689 342 601 721 689 640 l 188 342 b 424 65 189 114 261 65 b 625 103 474 65 565 81 l 646 19 b 415 -19 574 -3 474 -19 b 88 354 203 -19 88 67 b 403 721 88 629 194 721 m 403 636 b 189 424 256 636 200 589 l 586 424 b 403 636 578 599 532 636 m 292 789 l 457 968 l 572 968 l 388 789 "},"è":{"ha":758,"x_min":0,"x_max":0,"o":"m 403 721 b 689 342 601 721 689 640 l 188 342 b 424 65 189 114 261 65 b 625 103 474 65 565 81 l 646 19 b 415 -19 574 -3 474 -19 b 88 354 203 -19 88 67 b 403 721 88 629 194 721 m 403 636 b 189 424 256 636 200 589 l 586 424 b 403 636 578 599 532 636 m 428 789 l 243 968 l 358 968 l 524 789 "},"ê":{"ha":758,"x_min":0,"x_max":0,"o":"m 403 721 b 689 342 601 721 689 640 l 188 342 b 424 65 189 114 261 65 b 625 103 474 65 565 81 l 646 19 b 415 -19 574 -3 474 -19 b 88 354 203 -19 88 67 b 403 721 88 629 194 721 m 403 636 b 189 424 256 636 200 589 l 586 424 b 403 636 578 599 532 636 m 403 908 l 293 789 l 185 789 l 354 968 l 454 968 l 629 789 l 515 789 "},"ë":{"ha":758,"x_min":0,"x_max":0,"o":"m 403 721 b 689 342 601 721 689 640 l 188 342 b 424 65 189 114 261 65 b 625 103 474 65 565 81 l 646 19 b 415 -19 574 -3 474 -19 b 88 354 203 -19 88 67 b 403 721 88 629 194 721 m 403 636 b 189 424 256 636 200 589 l 586 424 b 403 636 578 599 532 636 m 271 913 b 328 858 314 913 328 906 b 271 799 328 807 314 799 b 213 858 226 799 213 807 b 271 913 213 906 226 913 m 533 913 b 590 858 576 913 590 906 b 533 799 590 807 576 799 b 475 858 489 799 475 807 b 533 913 475 906 489 913 "},"í":{"ha":301,"x_min":0,"x_max":0,"o":"m 196 0 l 106 0 l 106 701 l 196 701 m 71 789 l 236 968 l 351 968 l 167 789 "},"ì":{"ha":301,"x_min":0,"x_max":0,"o":"m 196 0 l 106 0 l 106 701 l 196 701 m 128 789 l -57 968 l 58 968 l 224 789 "},"î":{"ha":301,"x_min":0,"x_max":0,"o":"m 196 0 l 106 0 l 106 701 l 196 701 m 147 908 l 38 789 l -71 789 l 99 968 l 199 968 l 374 789 l 260 789 "},"ï":{"ha":301,"x_min":0,"x_max":0,"o":"m 196 0 l 106 0 l 106 701 l 196 701 m 18 913 b 75 858 61 913 75 906 b 18 799 75 807 61 799 b -40 858 -26 799 -40 807 b 18 913 -40 906 -26 913 m 281 913 b 338 858 324 913 338 906 b 281 799 338 807 324 799 b 222 858 236 799 222 807 b 281 913 222 906 236 913 "},"ñ":{"ha":769,"x_min":0,"x_max":0,"o":"m 196 0 l 106 0 l 106 665 b 389 721 182 700 304 721 b 665 396 592 721 665 651 l 665 0 l 575 0 l 575 378 b 372 635 575 592 531 635 b 196 611 304 635 250 628 m 615 911 b 469 785 586 829 543 785 b 278 876 396 785 344 876 b 194 792 247 876 219 854 l 144 840 b 288 954 186 915 225 954 b 474 863 368 954 407 863 b 558 957 510 863 533 886 "},"ó":{"ha":813,"x_min":0,"x_max":0,"o":"m 406 -19 b 88 354 188 -19 88 67 b 406 721 88 640 189 721 b 725 354 624 721 725 640 b 406 -19 725 67 625 -19 m 406 638 b 188 351 242 638 188 590 b 406 64 188 124 242 64 b 625 351 571 64 625 124 b 406 638 625 590 571 638 m 303 789 l 468 968 l 583 968 l 399 789 "},"ò":{"ha":813,"x_min":0,"x_max":0,"o":"m 406 -19 b 88 354 188 -19 88 67 b 406 721 88 640 189 721 b 725 354 624 721 725 640 b 406 -19 725 67 625 -19 m 406 638 b 188 351 242 638 188 590 b 406 64 188 124 242 64 b 625 351 571 64 625 124 b 406 638 625 590 571 638 m 439 789 l 254 968 l 369 968 l 535 789 "},"ô":{"ha":813,"x_min":0,"x_max":0,"o":"m 406 -19 b 88 354 188 -19 88 67 b 406 721 88 640 189 721 b 725 354 624 721 725 640 b 406 -19 725 67 625 -19 m 406 638 b 188 351 242 638 188 590 b 406 64 188 124 242 64 b 625 351 571 64 625 124 b 406 638 625 590 571 638 m 400 908 l 290 789 l 182 789 l 351 968 l 451 968 l 626 789 l 513 789 "},"ö":{"ha":813,"x_min":0,"x_max":0,"o":"m 406 -19 b 88 354 188 -19 88 67 b 406 721 88 640 189 721 b 725 354 624 721 725 640 b 406 -19 725 67 625 -19 m 406 638 b 188 351 242 638 188 590 b 406 64 188 124 242 64 b 625 351 571 64 625 124 b 406 638 625 590 571 638 m 274 913 b 331 858 317 913 331 906 b 274 799 331 807 317 799 b 215 858 229 799 215 807 b 274 913 215 906 229 913 m 536 913 b 593 858 579 913 593 906 b 536 799 593 807 579 799 b 478 858 492 799 478 807 b 536 913 478 906 492 913 "},"õ":{"ha":813,"x_min":0,"x_max":0,"o":"m 406 -19 b 88 354 188 -19 88 67 b 406 721 88 640 189 721 b 725 354 624 721 725 640 b 406 -19 725 67 625 -19 m 406 638 b 188 351 242 638 188 590 b 406 64 188 124 242 64 b 625 351 571 64 625 124 b 406 638 625 590 571 638 m 639 911 b 493 785 610 829 567 785 b 301 876 419 785 368 876 b 218 792 271 876 243 854 l 168 840 b 311 954 210 915 249 954 b 497 863 392 954 431 863 b 582 957 533 863 557 886 "},"ú":{"ha":769,"x_min":0,"x_max":0,"o":"m 575 92 b 397 67 521 74 465 67 b 196 324 240 67 196 110 l 196 701 l 106 701 l 106 306 b 382 -19 106 51 179 -19 b 665 36 465 -19 588 1 l 665 701 l 575 701 m 289 789 l 454 968 l 569 968 l 385 789 "},"ù":{"ha":769,"x_min":0,"x_max":0,"o":"m 575 701 l 665 701 l 665 36 b 382 -19 588 1 465 -19 b 106 306 179 -19 106 51 l 106 701 l 196 701 l 196 324 b 397 67 196 110 240 67 b 575 92 465 67 521 74 m 414 789 l 229 968 l 344 968 l 510 789 "},"û":{"ha":769,"x_min":0,"x_max":0,"o":"m 575 92 b 397 67 521 74 465 67 b 196 324 240 67 196 110 l 196 701 l 106 701 l 106 306 b 382 -19 106 51 179 -19 b 665 36 465 -19 588 1 l 665 701 l 575 701 m 397 908 l 288 789 l 179 789 l 349 968 l 449 968 l 624 789 l 510 789 "},"ü":{"ha":769,"x_min":0,"x_max":0,"o":"m 575 92 b 397 67 521 74 465 67 b 196 324 240 67 196 110 l 196 701 l 106 701 l 106 306 b 382 -19 106 51 179 -19 b 665 36 465 -19 588 1 l 665 701 l 575 701 m 269 913 b 326 858 313 913 326 906 b 269 799 326 807 313 799 b 211 858 225 799 211 807 b 269 913 211 906 225 913 m 532 913 b 589 858 575 913 589 906 b 532 799 589 807 575 799 b 474 858 488 799 474 807 b 532 913 474 906 488 913 "},"¢":{"ha":647,"x_min":0,"x_max":0,"o":"m 444 1051 l 444 911 b 626 876 501 908 581 893 l 597 792 b 444 825 551 813 497 822 l 444 257 b 597 293 497 260 551 272 l 626 210 b 444 171 578 188 503 174 l 444 0 l 360 0 l 360 174 b 88 544 183 192 88 288 b 360 907 88 800 185 890 l 360 1051 m 188 542 b 360 261 188 347 242 278 l 360 821 b 188 542 242 807 188 746 "},"£":{"ha":832,"x_min":0,"x_max":0,"o":"m 65 528 l 160 528 l 160 682 b 513 990 160 886 276 990 b 779 953 597 990 704 975 l 751 863 b 514 900 707 885 593 900 b 260 682 342 900 260 832 l 260 528 l 526 528 l 526 444 l 260 444 l 260 83 l 760 83 l 760 0 l 160 0 l 160 444 l 65 444 "},"§":{"ha":867,"x_min":0,"x_max":0,"o":"m 715 864 b 478 901 671 886 557 901 b 196 717 306 901 196 854 b 442 565 196 628 250 578 b 790 315 674 549 790 479 b 735 150 790 260 769 199 b 792 -4 774 114 792 63 b 404 -282 792 -193 640 -282 b 138 -244 319 -282 213 -267 l 165 -154 b 403 -192 210 -176 324 -192 b 685 -7 575 -192 685 -144 b 439 144 685 82 631 132 b 90 394 207 161 90 231 b 144 558 90 449 111 510 b 89 714 107 596 89 646 b 476 992 89 903 240 992 b 743 954 561 992 668 976 m 217 513 b 196 396 204 483 196 446 b 454 238 196 299 263 250 b 664 196 542 232 611 218 b 685 314 675 225 685 264 b 426 472 685 411 618 460 b 217 513 339 478 269 490 "},"¶":{"ha":903,"x_min":0,"x_max":0,"o":"m 663 0 l 663 356 l 528 356 l 528 0 l 428 0 l 428 356 l 324 356 b 56 654 124 356 56 503 b 331 968 56 821 115 968 l 763 968 l 763 0 "},"®":{"ha":786,"x_min":0,"x_max":0,"o":"m 551 729 b 461 614 551 647 518 614 b 557 489 492 600 524 553 l 461 489 b 371 611 442 531 396 611 l 329 611 l 329 489 l 250 489 l 250 849 l 457 849 b 551 729 524 849 551 794 m 471 728 b 431 781 471 760 461 781 l 329 781 l 329 671 l 431 671 b 471 728 461 671 471 694 m 699 668 b 392 343 699 418 601 343 b 88 668 183 343 88 418 b 392 990 88 921 186 990 b 699 668 600 990 699 921 m 618 668 b 392 921 618 882 557 921 b 169 668 232 921 169 882 b 392 415 169 465 232 415 b 618 668 557 415 618 465 "},"©":{"ha":1213,"x_min":0,"x_max":0,"o":"m 606 -19 b 106 489 261 -19 106 89 b 606 992 106 883 263 992 b 1107 489 950 992 1107 883 b 606 -19 1107 89 951 -19 m 604 913 b 206 486 317 913 206 842 b 604 64 206 149 317 64 b 1008 486 896 64 1008 149 b 604 913 1008 842 896 913 m 810 200 b 619 167 761 182 676 167 b 319 492 419 167 319 242 b 619 814 319 743 419 814 b 810 785 675 814 764 800 l 785 697 b 619 725 742 717 674 725 b 428 490 476 725 428 690 b 619 253 428 299 476 253 b 785 285 675 253 742 267 "},"™":{"ha":1011,"x_min":0,"x_max":0,"o":"m 247 485 l 168 485 l 168 904 l 21 904 l 21 968 l 393 968 l 393 904 l 247 904 m 644 485 l 517 907 l 517 485 l 447 485 l 447 968 l 564 968 l 692 561 l 817 968 l 928 968 l 928 485 l 857 485 l 857 907 l 729 485 "},"´":{"ha":686,"x_min":0,"x_max":0,"o":"m 142 789 l 307 968 l 422 968 l 238 789 "},"¨":{"ha":567,"x_min":0,"x_max":0,"o":"m 153 913 b 210 858 196 913 210 906 b 153 799 210 807 196 799 b 94 858 108 799 94 807 b 153 913 94 906 108 913 m 415 913 b 472 858 458 913 472 906 b 415 799 472 807 458 799 b 357 858 371 799 357 807 b 415 913 357 906 371 913 "},"≠":{"ha":864,"x_min":0,"x_max":0,"o":"m 685 846 l 588 676 l 764 676 l 764 593 l 539 593 l 422 390 l 764 390 l 764 307 l 375 307 l 279 140 l 176 140 l 271 307 l 99 307 l 99 390 l 319 390 l 435 593 l 99 593 l 99 676 l 482 676 l 579 846 "},"Æ":{"ha":1336,"x_min":0,"x_max":0,"o":"m 1292 968 l 1292 885 l 729 885 l 729 560 l 1072 560 l 1072 478 l 729 478 l 729 83 l 1292 83 l 1292 0 l 629 0 l 629 299 l 153 299 b -46 0 85 200 18 101 l -164 0 b 528 968 56 324 283 644 m 582 890 b 213 382 454 718 331 550 l 629 382 l 629 890 "},"Ø":{"ha":1054,"x_min":0,"x_max":0,"o":"m 990 968 l 890 850 b 967 489 942 772 967 656 b 526 -19 967 89 829 -19 b 218 61 392 -19 290 1 l 167 0 l 64 0 l 165 119 b 88 489 113 199 88 317 b 526 992 88 883 226 992 b 836 910 661 992 764 969 l 885 968 m 526 907 b 196 486 281 907 196 842 b 236 203 196 358 208 267 l 776 840 b 526 907 724 893 643 907 m 526 68 b 861 486 775 68 861 149 b 822 771 861 615 850 707 l 282 136 b 526 68 335 85 414 68 "},"¥":{"ha":843,"x_min":0,"x_max":0,"o":"m 89 518 l 335 518 b -7 968 233 663 121 811 l 119 968 b 429 544 228 835 335 688 b 735 968 536 679 642 826 l 850 968 b 515 518 742 814 631 663 l 754 518 l 754 435 l 472 435 l 472 301 l 754 301 l 754 218 l 472 218 l 472 0 l 371 0 l 371 218 l 89 218 l 89 301 l 371 301 l 371 435 l 89 435 "},"∑":{"ha":846,"x_min":0,"x_max":0,"o":"m 488 478 b 183 82 388 340 286 206 l 786 82 l 786 0 l 11 0 b 374 476 135 157 256 315 b 33 968 258 636 144 803 l 794 968 l 794 885 l 201 885 b 488 478 293 750 389 613 "},"æ":{"ha":1221,"x_min":0,"x_max":0,"o":"m 865 721 b 1151 342 1064 721 1151 640 l 650 342 b 886 65 651 114 724 65 b 1088 103 936 65 1028 81 l 1108 19 b 878 -19 1036 -3 936 -19 b 646 46 771 -19 697 0 b 364 -19 596 0 451 -19 b 79 217 163 -19 79 35 b 357 449 79 417 201 449 b 557 426 431 449 485 442 b 350 635 557 599 519 635 b 149 601 283 635 204 625 l 122 686 b 356 721 176 701 261 721 b 613 599 501 721 579 693 b 865 721 653 689 731 721 m 594 110 b 556 350 557 196 556 265 b 368 368 504 363 438 368 b 181 224 228 368 181 354 b 368 63 181 97 206 63 b 594 110 436 63 538 78 m 865 636 b 651 424 725 636 663 599 l 1049 424 b 865 636 1040 599 994 636 "},"ø":{"ha":813,"x_min":0,"x_max":0,"o":"m 751 701 l 674 608 b 725 354 708 551 725 469 b 406 -19 725 67 625 -19 b 192 33 314 -19 243 -4 l 164 0 l 61 0 l 139 93 b 88 354 104 151 88 236 b 406 721 88 640 189 721 b 618 669 496 721 567 707 l 646 701 m 406 635 b 188 351 242 635 188 590 b 207 175 188 275 193 218 l 560 599 b 406 635 525 626 475 635 m 406 67 b 625 351 571 67 625 124 b 606 528 625 429 619 486 l 253 106 b 406 67 286 76 336 67 "},"¬":{"ha":688,"x_min":0,"x_max":0,"o":"m 531 0 l 531 478 l 46 478 l 46 560 l 632 560 l 632 0 "},"…":{"ha":1682,"x_min":0,"x_max":0,"o":"m 351 143 b 425 75 408 143 425 135 b 351 0 425 11 408 0 b 281 75 299 0 281 11 b 351 143 281 135 299 143 m 840 143 b 914 75 896 143 914 135 b 840 0 914 11 896 0 b 768 75 788 0 768 11 b 840 143 768 135 788 143 m 1328 143 b 1401 75 1385 143 1401 135 b 1328 0 1401 11 1385 0 b 1257 75 1276 0 1257 11 b 1328 143 1257 135 1276 143 "},"Õ":{"ha":1054,"x_min":0,"x_max":0,"o":"m 526 -19 b 967 489 829 -19 967 89 b 526 992 967 883 828 992 b 88 489 226 992 88 883 b 526 -19 88 89 225 -19 m 526 907 b 861 486 775 907 861 842 b 526 68 861 149 775 68 b 196 486 281 68 196 149 b 526 907 196 842 281 907 m 763 1160 b 610 1033 735 1081 681 1033 b 410 1126 539 1033 474 1126 b 329 1044 381 1126 353 1104 l 281 1092 b 419 1201 321 1164 358 1201 b 621 1113 497 1201 556 1113 b 707 1204 656 1113 683 1135 "},"Œ":{"ha":1542,"x_min":0,"x_max":0,"o":"m 1497 968 l 1497 885 l 865 885 b 965 560 925 818 957 711 l 1278 560 l 1278 478 l 967 478 b 858 83 965 283 931 158 l 1497 83 l 1497 0 l 708 0 b 526 -19 657 -14 596 -19 b 88 489 225 -19 88 89 b 526 992 88 883 226 992 b 724 968 603 992 668 985 m 526 907 b 196 486 281 907 196 842 b 526 68 196 149 281 68 b 861 486 775 68 861 149 b 526 907 861 842 775 907 "},"œ":{"ha":1293,"x_min":0,"x_max":0,"o":"m 938 721 b 1224 342 1136 721 1224 640 l 722 342 b 958 65 724 114 796 65 b 1160 103 1008 65 1100 81 l 1181 19 b 950 -19 1108 -3 1008 -19 b 674 110 811 -19 722 13 b 406 -19 629 14 543 -19 b 88 354 188 -19 88 67 b 406 721 88 640 189 721 b 672 597 540 721 626 689 b 938 721 719 681 803 721 m 406 638 b 188 351 242 638 188 590 b 406 64 188 124 242 64 b 625 351 571 64 625 124 b 406 638 625 590 571 638 m 938 636 b 724 424 800 636 735 599 l 1121 424 b 938 636 1113 599 1067 636 "},"–":{"ha":756,"x_min":0,"x_max":0,"o":"m 74 424 l 682 424 l 682 340 l 74 340 "},"—":{"ha":1163,"x_min":0,"x_max":0,"o":"m 74 424 l 1089 424 l 1089 340 l 74 340 "},"ÿ":{"ha":707,"x_min":0,"x_max":0,"o":"m 293 -33 b 179 -267 258 -110 215 -200 l 285 -267 b 411 0 324 -194 375 -87 b 672 701 510 233 601 467 l 574 701 b 353 81 518 500 438 285 b 136 701 293 289 211 532 l 35 701 b 293 -33 128 510 222 217 m 224 913 b 281 858 267 913 281 906 b 224 799 281 807 267 799 b 165 858 179 799 165 807 b 224 913 165 906 179 913 m 486 913 b 543 858 529 913 543 906 b 486 799 543 807 529 799 b 428 858 442 799 428 807 b 486 913 428 906 442 913 "},"Ÿ":{"ha":843,"x_min":0,"x_max":0,"o":"m 472 0 l 371 0 l 371 465 b -7 968 261 626 136 793 l 119 968 b 429 544 228 835 335 688 b 735 968 536 679 642 826 l 850 968 b 472 465 729 796 604 626 m 299 1176 b 356 1122 342 1176 356 1169 b 299 1063 356 1071 342 1063 b 240 1122 254 1063 240 1071 b 299 1176 240 1169 254 1176 m 561 1176 b 618 1122 604 1176 618 1169 b 561 1063 618 1071 604 1063 b 503 1122 517 1063 503 1071 b 561 1176 503 1169 517 1176 "},"⁄":{"ha":733,"x_min":0,"x_max":0,"o":"m 689 968 l 142 0 l 43 0 l 590 968 "},"ﬁ":{"ha":769,"x_min":0,"x_max":0,"o":"m 665 0 l 575 0 l 575 618 l 232 618 l 232 0 l 142 0 l 142 618 l 18 618 l 18 701 l 142 701 l 142 756 b 424 999 142 961 278 999 b 661 951 507 999 588 983 l 633 874 b 424 915 568 900 500 915 b 232 756 311 915 232 894 l 232 701 l 665 701 "},"·":{"ha":367,"x_min":0,"x_max":0,"o":"m 182 492 b 261 418 243 492 261 482 b 182 338 261 350 243 338 b 106 418 125 338 106 350 b 182 492 106 482 125 492 "},"Ê":{"ha":847,"x_min":0,"x_max":0,"o":"m 140 968 l 140 0 l 803 0 l 803 83 l 240 83 l 240 476 l 639 476 l 639 560 l 240 560 l 240 885 l 803 885 l 803 968 m 481 1163 l 368 1038 l 263 1038 l 432 1217 l 532 1217 l 707 1038 l 597 1038 l 481 1163 "},"Ë":{"ha":847,"x_min":0,"x_max":0,"o":"m 140 968 l 140 0 l 803 0 l 803 83 l 240 83 l 240 476 l 639 476 l 639 560 l 240 560 l 240 885 l 803 885 l 803 968 m 356 1176 b 413 1122 399 1176 413 1169 b 356 1063 413 1071 399 1063 b 297 1122 311 1063 297 1071 b 356 1176 297 1169 311 1176 m 618 1176 b 675 1122 661 1176 675 1169 b 618 1063 675 1071 661 1063 b 560 1122 574 1063 560 1071 b 618 1176 560 1169 574 1176 "},"È":{"ha":847,"x_min":0,"x_max":0,"o":"m 140 968 l 140 0 l 803 0 l 803 83 l 240 83 l 240 476 l 639 476 l 639 560 l 240 560 l 240 885 l 803 885 l 803 968 m 632 1038 l 522 1038 l 300 1217 l 429 1217 l 632 1038 "},"Í":{"ha":379,"x_min":0,"x_max":0,"o":"m 140 968 l 140 0 l 240 0 l 240 968 m 286 1217 l 414 1217 l 193 1038 l 100 1038 "},"Î":{"ha":379,"x_min":0,"x_max":0,"o":"m 140 968 l 140 0 l 240 0 l 240 968 m 188 1163 l 75 1038 l -31 1038 l 139 1217 l 239 1217 l 414 1038 l 304 1038 l 188 1163 "},"Ï":{"ha":379,"x_min":0,"x_max":0,"o":"m 140 968 l 140 0 l 240 0 l 240 968 m 63 1176 b 119 1122 106 1176 119 1169 b 63 1063 119 1071 106 1063 b 4 1122 18 1063 4 1071 b 63 1176 4 1169 18 1176 m 325 1176 b 382 1122 368 1176 382 1169 b 325 1063 382 1071 368 1063 b 267 1122 281 1063 267 1071 b 325 1176 267 1169 281 1176 "},"Ì":{"ha":379,"x_min":0,"x_max":0,"o":"m 140 968 l 140 0 l 240 0 l 240 968 m 285 1038 l 175 1038 l -47 1217 l 82 1217 l 285 1038 "},"Ó":{"ha":1054,"x_min":0,"x_max":0,"o":"m 526 -19 b 967 489 829 -19 967 89 b 526 992 967 883 828 992 b 88 489 226 992 88 883 b 526 -19 88 89 225 -19 m 526 907 b 861 486 775 907 861 842 b 526 68 861 149 775 68 b 196 486 281 68 196 149 b 526 907 196 842 281 907 m 553 1217 l 681 1217 l 460 1038 l 367 1038 "},"Ô":{"ha":1054,"x_min":0,"x_max":0,"o":"m 526 -19 b 967 489 829 -19 967 89 b 526 992 967 883 828 992 b 88 489 226 992 88 883 b 526 -19 88 89 225 -19 m 526 907 b 861 486 775 907 861 842 b 526 68 861 149 775 68 b 196 486 281 68 196 149 b 526 907 196 842 281 907 m 521 1163 l 408 1038 l 303 1038 l 472 1217 l 572 1217 l 747 1038 l 638 1038 l 521 1163 "},"Ò":{"ha":1054,"x_min":0,"x_max":0,"o":"m 526 -19 b 967 489 829 -19 967 89 b 526 992 967 883 828 992 b 88 489 226 992 88 883 b 526 -19 88 89 225 -19 m 526 907 b 861 486 775 907 861 842 b 526 68 861 149 775 68 b 196 486 281 68 196 149 b 526 907 196 842 281 907 m 644 1038 l 535 1038 l 313 1217 l 442 1217 l 644 1038 "},"Ú":{"ha":1025,"x_min":0,"x_max":0,"o":"m 903 968 l 803 968 l 803 335 b 514 68 803 114 706 68 b 224 335 324 68 224 108 l 224 968 l 122 968 l 122 336 b 513 -19 122 42 263 -19 b 903 336 765 -19 903 42 m 576 1217 l 704 1217 l 483 1038 l 390 1038 "},"Û":{"ha":1025,"x_min":0,"x_max":0,"o":"m 903 968 l 803 968 l 803 335 b 514 68 803 114 706 68 b 224 335 324 68 224 108 l 224 968 l 122 968 l 122 336 b 513 -19 122 42 263 -19 b 903 336 765 -19 903 42 m 508 1163 l 396 1038 l 290 1038 l 460 1217 l 560 1217 l 735 1038 l 625 1038 l 508 1163 "},"Ù":{"ha":1025,"x_min":0,"x_max":0,"o":"m 903 968 l 803 968 l 803 335 b 514 68 803 114 706 68 b 224 335 324 68 224 108 l 224 968 l 122 968 l 122 336 b 513 -19 122 42 263 -19 b 903 336 765 -19 903 42 m 660 1038 l 550 1038 l 328 1217 l 457 1217 l 660 1038 "},"ı":{"ha":301,"x_min":0,"x_max":0,"o":"m 196 0 l 106 0 l 106 701 l 196 701 "},"ˆ":{"ha":944,"x_min":0,"x_max":0,"o":"m 481 908 l 371 789 l 263 789 l 432 968 l 532 968 l 707 789 l 593 789 "},"˜":{"ha":1011,"x_min":0,"x_max":0,"o":"m 671 911 b 525 785 642 829 599 785 b 333 876 451 785 400 876 b 250 792 303 876 275 854 l 200 840 b 343 954 242 915 281 954 b 529 863 424 954 463 863 b 614 957 565 863 589 886 "},"¯":{"ha":740,"x_min":0,"x_max":0,"o":"m 189 894 l 538 894 l 538 814 l 189 814 "},"˘":{"ha":746,"x_min":0,"x_max":0,"o":"m 213 968 b 322 872 213 890 249 872 b 433 968 394 872 433 890 l 506 968 b 321 793 506 847 444 793 b 138 968 200 793 138 847 "},"˙":{"ha":567,"x_min":0,"x_max":0,"o":"m 153 913 b 210 858 196 913 210 906 b 153 799 210 807 196 799 b 94 858 108 799 94 807 b 153 913 94 906 108 913 "},"˚":{"ha":1010,"x_min":0,"x_max":0,"o":"m 500 1025 b 653 894 599 1025 653 982 b 500 764 653 807 599 764 b 349 894 403 764 349 807 b 500 1025 349 982 389 1025 m 500 963 b 421 892 439 963 421 938 b 500 819 421 849 439 819 b 582 892 564 819 582 849 b 500 963 582 938 564 963 "},"˝":{"ha":876,"x_min":0,"x_max":0,"o":"m 467 968 l 318 789 l 244 789 l 363 968 m 660 968 l 513 789 l 438 789 l 554 968 "},"˛":{"ha":908,"x_min":0,"x_max":0,"o":"m 656 17 b 524 -144 546 -49 524 -86 b 618 -207 524 -187 542 -207 b 746 -165 667 -207 717 -189 l 786 -233 b 611 -282 743 -267 669 -282 b 435 -158 475 -282 435 -240 b 608 17 435 -85 490 -17 "},"ˇ":{"ha":926,"x_min":0,"x_max":0,"o":"m 489 849 l 599 968 l 707 968 l 538 789 l 438 789 l 263 968 l 376 968 "},"Ā":{"ha":928,"x_min":0,"x_max":0,"o":"m 806 0 l 918 0 b 554 968 801 268 664 642 l 383 968 b 18 0 249 644 129 324 l 117 0 b 217 299 149 101 182 200 l 689 299 b 806 0 728 193 768 93 m 485 890 b 658 382 539 721 599 546 l 247 382 b 444 890 308 550 375 718 m 288 1156 l 636 1156 l 636 1069 l 288 1069 "},"Ą":{"ha":928,"x_min":0,"x_max":0,"o":"m 806 0 b 689 299 768 93 728 193 l 217 299 b 117 0 182 200 149 101 l 18 0 b 383 968 129 324 249 644 l 554 968 b 918 0 664 642 801 268 l 806 0 m 444 890 b 247 382 375 718 308 550 l 658 382 b 485 890 599 546 539 721 m 910 17 b 778 -144 800 -49 778 -86 b 872 -207 778 -187 796 -207 b 1000 -165 921 -207 971 -189 l 1040 -233 b 865 -282 997 -267 924 -282 b 689 -158 729 -282 689 -240 b 863 17 689 -85 744 -17 "},"Ć":{"ha":836,"x_min":0,"x_max":0,"o":"m 88 493 b 531 992 88 889 231 992 b 801 954 617 992 726 976 l 769 864 b 532 901 711 888 607 901 b 196 493 288 901 196 849 b 532 72 196 139 288 72 b 769 108 607 72 711 86 l 801 19 b 531 -19 726 -4 617 -19 b 88 493 231 -19 88 99 m 547 1217 l 675 1217 l 454 1038 l 361 1038 "},"Č":{"ha":836,"x_min":0,"x_max":0,"o":"m 88 493 b 531 992 88 889 231 992 b 801 954 617 992 726 976 l 769 864 b 532 901 711 888 607 901 b 196 493 288 901 196 849 b 532 72 196 139 288 72 b 769 108 607 72 711 86 l 801 19 b 531 -19 726 -4 617 -19 b 88 493 231 -19 88 99 m 504 1092 l 617 1217 l 722 1217 l 553 1038 l 453 1038 l 278 1217 l 388 1217 l 504 1092 "},"Ĉ":{"ha":836,"x_min":0,"x_max":0,"o":"m 88 493 b 531 992 88 889 231 992 b 801 954 617 992 726 976 l 769 864 b 532 901 711 888 607 901 b 196 493 288 901 196 849 b 532 72 196 139 288 72 b 769 108 607 72 711 86 l 801 19 b 531 -19 726 -4 617 -19 b 88 493 231 -19 88 99 m 518 1163 l 406 1038 l 300 1038 l 469 1217 l 569 1217 l 744 1038 l 635 1038 l 518 1163 "},"Ċ":{"ha":836,"x_min":0,"x_max":0,"o":"m 88 493 b 531 992 88 889 231 992 b 801 954 617 992 726 976 l 769 864 b 532 901 711 888 607 901 b 196 493 288 901 196 849 b 532 72 196 139 288 72 b 769 108 607 72 711 86 l 801 19 b 531 -19 726 -4 617 -19 b 88 493 231 -19 88 99 m 508 1176 b 565 1122 551 1176 565 1169 b 508 1063 565 1071 551 1063 b 450 1122 464 1063 450 1071 b 508 1176 450 1169 464 1176 "},"Ď":{"ha":976,"x_min":0,"x_max":0,"o":"m 439 968 b 889 486 740 968 889 861 b 439 0 889 113 742 0 l 140 0 l 140 968 m 782 486 b 439 885 782 824 688 885 l 240 885 l 240 83 l 439 83 b 782 486 688 83 782 168 m 453 1092 l 565 1217 l 671 1217 l 501 1038 l 401 1038 l 226 1217 l 336 1217 l 453 1092 "},"Ĕ":{"ha":847,"x_min":0,"x_max":0,"o":"m 140 968 l 140 0 l 803 0 l 803 83 l 240 83 l 240 476 l 639 476 l 639 560 l 240 560 l 240 885 l 803 885 l 803 968 m 365 1210 b 475 1114 365 1132 401 1114 b 586 1210 547 1114 586 1132 l 658 1210 b 474 1035 658 1089 597 1035 b 290 1210 353 1035 290 1089 "},"Ě":{"ha":847,"x_min":0,"x_max":0,"o":"m 140 968 l 140 0 l 803 0 l 803 83 l 240 83 l 240 476 l 639 476 l 639 560 l 240 560 l 240 885 l 803 885 l 803 968 m 489 1092 l 601 1217 l 707 1217 l 538 1038 l 438 1038 l 263 1217 l 372 1217 l 489 1092 "},"Ė":{"ha":847,"x_min":0,"x_max":0,"o":"m 140 968 l 140 0 l 803 0 l 803 83 l 240 83 l 240 476 l 639 476 l 639 560 l 240 560 l 240 885 l 803 885 l 803 968 m 504 1176 b 561 1122 547 1176 561 1169 b 504 1063 561 1071 547 1063 b 446 1122 460 1063 446 1071 b 504 1176 446 1169 460 1176 "},"Ē":{"ha":847,"x_min":0,"x_max":0,"o":"m 140 968 l 140 0 l 803 0 l 803 83 l 240 83 l 240 476 l 639 476 l 639 560 l 240 560 l 240 885 l 803 885 l 803 968 m 299 1156 l 647 1156 l 647 1069 l 299 1069 "},"Ę":{"ha":847,"x_min":0,"x_max":0,"o":"m 803 968 l 803 885 l 240 885 l 240 560 l 639 560 l 639 476 l 240 476 l 240 83 l 803 83 l 803 0 l 140 0 l 140 968 m 789 17 b 657 -144 679 -49 657 -86 b 751 -207 657 -187 675 -207 b 879 -165 800 -207 850 -189 l 919 -233 b 744 -282 876 -267 803 -282 b 568 -158 608 -282 568 -240 b 742 17 568 -85 624 -17 "},"Ğ":{"ha":940,"x_min":0,"x_max":0,"o":"m 726 439 l 474 439 l 474 519 l 826 519 l 826 13 b 531 -19 751 -11 617 -19 b 88 493 231 -19 88 99 b 531 992 88 889 231 992 b 801 954 617 992 726 976 l 769 867 b 532 903 711 889 607 903 b 196 493 288 903 196 849 b 532 69 196 139 288 69 b 726 93 607 69 685 82 m 407 1210 b 517 1114 407 1132 443 1114 b 628 1210 589 1114 628 1132 l 700 1210 b 515 1035 700 1089 639 1035 b 332 1210 394 1035 332 1089 "},"Ĝ":{"ha":940,"x_min":0,"x_max":0,"o":"m 726 439 l 474 439 l 474 519 l 826 519 l 826 13 b 531 -19 751 -11 617 -19 b 88 493 231 -19 88 99 b 531 992 88 889 231 992 b 801 954 617 992 726 976 l 769 867 b 532 903 711 889 607 903 b 196 493 288 903 196 849 b 532 69 196 139 288 69 b 726 93 607 69 685 82 m 511 1163 l 399 1038 l 293 1038 l 463 1217 l 563 1217 l 738 1038 l 628 1038 l 511 1163 "},"Ģ":{"ha":940,"x_min":0,"x_max":0,"o":"m 726 439 l 474 439 l 474 519 l 826 519 l 826 13 b 531 -19 751 -11 617 -19 b 88 493 231 -19 88 99 b 531 992 88 889 231 992 b 801 954 617 992 726 976 l 769 867 b 532 903 711 889 607 903 b 196 493 288 903 196 849 b 532 69 196 139 288 69 b 726 93 607 69 685 82 m 474 -303 l 400 -303 l 497 -71 l 614 -71 "},"Ġ":{"ha":940,"x_min":0,"x_max":0,"o":"m 726 439 l 474 439 l 474 519 l 826 519 l 826 13 b 531 -19 751 -11 617 -19 b 88 493 231 -19 88 99 b 531 992 88 889 231 992 b 801 954 617 992 726 976 l 769 867 b 532 903 711 889 607 903 b 196 493 288 903 196 849 b 532 69 196 139 288 69 b 726 93 607 69 685 82 m 518 1176 b 575 1122 561 1176 575 1169 b 518 1063 575 1071 561 1063 b 460 1122 474 1063 460 1071 b 518 1176 460 1169 474 1176 "},"Ħ":{"ha":992,"x_min":0,"x_max":0,"o":"m 46 829 l 140 829 l 140 968 l 240 968 l 240 829 l 754 829 l 754 968 l 853 968 l 853 829 l 949 829 l 949 749 l 853 749 l 853 0 l 754 0 l 754 474 l 240 474 l 240 0 l 140 0 l 140 749 l 46 749 m 754 564 l 754 749 l 240 749 l 240 564 "},"Ĥ":{"ha":992,"x_min":0,"x_max":0,"o":"m 240 0 l 140 0 l 140 968 l 240 968 l 240 564 l 754 564 l 754 968 l 853 968 l 853 0 l 754 0 l 754 474 l 240 474 m 486 1163 l 374 1038 l 268 1038 l 438 1217 l 538 1217 l 713 1038 l 603 1038 l 486 1163 "},"Ĳ":{"ha":989,"x_min":0,"x_max":0,"o":"m 240 968 l 240 0 l 140 0 l 140 968 m 849 267 b 585 -19 849 28 719 -19 b 396 22 524 -19 447 0 l 429 115 b 585 79 469 94 539 79 b 746 267 660 79 746 106 l 746 968 l 849 968 "},"Ī":{"ha":379,"x_min":0,"x_max":0,"o":"m 140 968 l 140 0 l 240 0 l 240 968 m 18 1156 l 367 1156 l 367 1069 l 18 1069 "},"Į":{"ha":379,"x_min":0,"x_max":0,"o":"m 240 968 l 240 0 l 140 0 l 140 968 m 231 17 b 99 -144 121 -49 99 -86 b 193 -207 99 -187 117 -207 b 321 -165 242 -207 292 -189 l 361 -233 b 186 -282 318 -267 244 -282 b 10 -158 50 -282 10 -240 b 183 17 10 -85 65 -17 "},"Ĩ":{"ha":379,"x_min":0,"x_max":0,"o":"m 140 968 l 140 0 l 240 0 l 240 968 m 432 1160 b 279 1033 404 1081 350 1033 b 79 1126 208 1033 143 1126 b -1 1044 50 1126 22 1104 l -50 1092 b 89 1201 -10 1164 28 1201 b 290 1113 167 1201 225 1113 b 376 1204 325 1113 353 1135 "},"Ĵ":{"ha":611,"x_min":0,"x_max":0,"o":"m 471 267 b 207 -19 471 28 342 -19 b 18 22 146 -19 69 0 l 51 115 b 207 79 92 94 161 79 b 368 267 282 79 368 106 l 368 968 l 471 968 m 413 1163 l 300 1038 l 194 1038 l 364 1217 l 464 1217 l 639 1038 l 529 1038 l 413 1163 "},"Ķ":{"ha":857,"x_min":0,"x_max":0,"o":"m 240 0 l 140 0 l 140 968 l 240 968 m 732 0 b 242 511 499 321 310 489 b 699 968 315 554 496 718 l 831 968 b 389 524 617 718 449 564 b 867 0 446 492 635 321 m 383 -303 l 310 -303 l 407 -71 l 524 -71 "},"Ĺ":{"ha":758,"x_min":0,"x_max":0,"o":"m 240 968 l 240 88 l 740 88 l 740 0 l 140 0 l 140 968 m 317 1217 l 444 1217 l 224 1038 l 131 1038 "},"Ľ":{"ha":758,"x_min":0,"x_max":0,"o":"m 240 968 l 240 88 l 740 88 l 740 0 l 140 0 l 140 968 m 485 1003 l 407 736 l 353 736 l 383 1003 "},"Ļ":{"ha":758,"x_min":0,"x_max":0,"o":"m 240 968 l 240 88 l 740 88 l 740 0 l 140 0 l 140 968 m 372 -303 l 299 -303 l 396 -71 l 513 -71 "},"Ń":{"ha":1014,"x_min":0,"x_max":0,"o":"m 240 0 l 140 0 l 140 968 l 276 968 b 772 149 449 713 619 425 l 772 968 l 874 968 l 874 0 l 754 0 b 240 867 601 283 426 579 m 608 1217 l 736 1217 l 515 1038 l 422 1038 "},"Ň":{"ha":1014,"x_min":0,"x_max":0,"o":"m 240 0 l 140 0 l 140 968 l 276 968 b 772 149 449 713 619 425 l 772 968 l 874 968 l 874 0 l 754 0 b 240 867 601 283 426 579 m 519 1092 l 632 1217 l 738 1217 l 568 1038 l 468 1038 l 293 1217 l 403 1217 l 519 1092 "},"Ņ":{"ha":1014,"x_min":0,"x_max":0,"o":"m 240 0 l 140 0 l 140 968 l 276 968 b 772 149 449 713 619 425 l 772 968 l 874 968 l 874 0 l 754 0 b 240 867 601 283 426 579 m 438 -303 l 364 -303 l 461 -71 l 578 -71 "},"Ŏ":{"ha":1054,"x_min":0,"x_max":0,"o":"m 526 -19 b 967 489 829 -19 967 89 b 526 992 967 883 828 992 b 88 489 226 992 88 883 b 526 -19 88 89 225 -19 m 526 907 b 861 486 775 907 861 842 b 526 68 861 149 775 68 b 196 486 281 68 196 149 b 526 907 196 842 281 907 m 417 1210 b 526 1114 417 1132 453 1114 b 638 1210 599 1114 638 1132 l 710 1210 b 525 1035 710 1089 649 1035 b 342 1210 404 1035 342 1089 "},"Ő":{"ha":1054,"x_min":0,"x_max":0,"o":"m 526 -19 b 967 489 829 -19 967 89 b 526 992 967 883 828 992 b 88 489 226 992 88 883 b 526 -19 88 89 225 -19 m 526 907 b 861 486 775 907 861 842 b 526 68 861 149 775 68 b 196 486 281 68 196 149 b 526 907 196 842 281 907 m 571 1217 l 422 1038 l 349 1038 l 467 1217 m 764 1217 l 617 1038 l 542 1038 l 658 1217 "},"Ō":{"ha":1054,"x_min":0,"x_max":0,"o":"m 526 -19 b 967 489 829 -19 967 89 b 526 992 967 883 828 992 b 88 489 226 992 88 883 b 526 -19 88 89 225 -19 m 526 907 b 861 486 775 907 861 842 b 526 68 861 149 775 68 b 196 486 281 68 196 149 b 526 907 196 842 281 907 m 353 1156 l 701 1156 l 701 1069 l 353 1069 "},"Ŕ":{"ha":938,"x_min":0,"x_max":0,"o":"m 572 968 b 847 688 788 968 847 836 b 568 432 847 551 781 432 b 907 0 638 408 760 244 l 782 0 b 428 419 628 271 500 419 l 240 419 l 240 0 l 140 0 l 140 968 m 240 885 l 240 507 l 565 507 b 736 689 679 507 736 578 b 572 885 736 815 678 885 m 522 1217 l 650 1217 l 429 1038 l 336 1038 "},"Ř":{"ha":938,"x_min":0,"x_max":0,"o":"m 572 968 b 847 688 788 968 847 836 b 568 432 847 551 781 432 b 907 0 638 408 760 244 l 782 0 b 428 419 628 271 500 419 l 240 419 l 240 0 l 140 0 l 140 968 m 240 885 l 240 507 l 565 507 b 736 689 679 507 736 578 b 572 885 736 815 678 885 m 475 1092 l 588 1217 l 693 1217 l 524 1038 l 424 1038 l 249 1217 l 358 1217 l 475 1092 "},"Ŗ":{"ha":938,"x_min":0,"x_max":0,"o":"m 572 968 b 847 688 788 968 847 836 b 568 432 847 551 781 432 b 907 0 638 408 760 244 l 782 0 b 428 419 628 271 500 419 l 240 419 l 240 0 l 140 0 l 140 968 m 240 885 l 240 507 l 565 507 b 736 689 679 507 736 578 b 572 885 736 815 678 885 m 410 -303 l 336 -303 l 433 -71 l 550 -71 "},"Ś":{"ha":867,"x_min":0,"x_max":0,"o":"m 715 864 b 478 901 671 886 557 901 b 196 711 306 901 196 861 b 442 544 196 614 250 558 b 776 264 674 526 776 443 b 383 -19 776 58 619 -19 b 108 19 297 -19 183 -4 l 136 108 b 382 72 196 86 306 72 b 671 263 553 72 671 113 b 426 450 671 358 618 436 b 89 708 194 467 89 531 b 476 992 89 915 240 992 b 743 954 561 992 668 976 l 715 864 m 507 1217 l 635 1217 l 414 1038 l 321 1038 "},"Ş":{"ha":867,"x_min":0,"x_max":0,"o":"m 715 864 b 478 901 671 886 557 901 b 196 711 306 901 196 861 b 442 544 196 614 250 558 b 776 264 674 526 776 443 b 383 -19 776 58 619 -19 b 108 19 297 -19 183 -4 l 136 108 b 382 72 196 86 306 72 b 671 263 553 72 671 113 b 426 450 671 358 618 436 b 89 708 194 467 89 531 b 476 992 89 915 240 992 b 743 954 561 992 668 976 l 715 864 m 447 0 l 447 -65 b 613 -169 575 -65 613 -86 b 439 -282 613 -256 564 -282 b 292 -253 369 -282 328 -274 l 317 -194 b 439 -218 347 -210 390 -218 b 518 -171 497 -218 518 -211 b 350 -128 518 -129 482 -121 l 400 0 "},"Ŝ":{"ha":867,"x_min":0,"x_max":0,"o":"m 715 864 b 478 901 671 886 557 901 b 196 711 306 901 196 861 b 442 544 196 614 250 558 b 776 264 674 526 776 443 b 383 -19 776 58 619 -19 b 108 19 297 -19 183 -4 l 136 108 b 382 72 196 86 306 72 b 671 263 553 72 671 113 b 426 450 671 358 618 436 b 89 708 194 467 89 531 b 476 992 89 915 240 992 b 743 954 561 992 668 976 l 715 864 m 454 1163 l 342 1038 l 236 1038 l 406 1217 l 506 1217 l 681 1038 l 571 1038 l 454 1163 "},"Ș":{"ha":867,"x_min":0,"x_max":0,"o":"m 715 864 b 478 901 671 886 557 901 b 196 711 306 901 196 861 b 442 544 196 614 250 558 b 776 264 674 526 776 443 b 383 -19 776 58 619 -19 b 108 19 297 -19 183 -4 l 136 108 b 382 72 196 86 306 72 b 671 263 553 72 671 113 b 426 450 671 358 618 436 b 89 708 194 467 89 531 b 476 992 89 915 240 992 b 743 954 561 992 668 976 l 715 864 m 375 -303 l 301 -303 l 399 -71 l 515 -71 "},"Ŧ":{"ha":789,"x_min":0,"x_max":0,"o":"m 214 435 l 344 435 l 344 879 l 8 879 l 8 968 l 781 968 l 781 879 l 446 879 l 446 435 l 563 435 l 563 349 l 446 349 l 446 0 l 344 0 l 344 349 l 214 349 "},"Ť":{"ha":789,"x_min":0,"x_max":0,"o":"m 446 0 l 344 0 l 344 885 l 8 885 l 8 968 l 781 968 l 781 885 l 446 885 m 401 1092 l 514 1217 l 619 1217 l 450 1038 l 350 1038 l 175 1217 l 285 1217 l 401 1092 "},"Ţ":{"ha":789,"x_min":0,"x_max":0,"o":"m 446 0 l 344 0 l 344 885 l 8 885 l 8 968 l 781 968 l 781 885 l 446 885 m 346 -303 l 272 -303 l 369 -71 l 486 -71 "},"Ŭ":{"ha":1025,"x_min":0,"x_max":0,"o":"m 903 968 l 803 968 l 803 335 b 514 68 803 114 706 68 b 224 335 324 68 224 108 l 224 968 l 122 968 l 122 336 b 513 -19 122 42 263 -19 b 903 336 765 -19 903 42 m 406 1210 b 515 1114 406 1132 442 1114 b 626 1210 588 1114 626 1132 l 699 1210 b 514 1035 699 1089 638 1035 b 331 1210 393 1035 331 1089 "},"Ű":{"ha":1025,"x_min":0,"x_max":0,"o":"m 903 968 l 803 968 l 803 335 b 514 68 803 114 706 68 b 224 335 324 68 224 108 l 224 968 l 122 968 l 122 336 b 513 -19 122 42 263 -19 b 903 336 765 -19 903 42 m 539 1217 l 390 1038 l 317 1038 l 435 1217 m 732 1217 l 585 1038 l 510 1038 l 626 1217 "},"Ū":{"ha":1025,"x_min":0,"x_max":0,"o":"m 903 968 l 803 968 l 803 335 b 514 68 803 114 706 68 b 224 335 324 68 224 108 l 224 968 l 122 968 l 122 336 b 513 -19 122 42 263 -19 b 903 336 765 -19 903 42 m 335 1156 l 683 1156 l 683 1069 l 335 1069 "},"Ų":{"ha":1025,"x_min":0,"x_max":0,"o":"m 903 336 b 513 -19 903 42 765 -19 b 122 336 263 -19 122 42 l 122 968 l 224 968 l 224 335 b 514 68 224 108 324 68 b 803 335 706 68 803 114 l 803 968 l 903 968 m 664 17 b 532 -144 554 -49 532 -86 b 626 -207 532 -187 550 -207 b 754 -165 675 -207 725 -189 l 794 -233 b 619 -282 751 -267 678 -282 b 443 -158 483 -282 443 -240 b 617 17 443 -85 499 -17 "},"Ů":{"ha":1025,"x_min":0,"x_max":0,"o":"m 903 336 b 513 -19 903 42 765 -19 b 122 336 263 -19 122 42 l 122 968 l 224 968 l 224 335 b 514 68 224 108 324 68 b 803 335 706 68 803 114 l 803 968 l 903 968 m 510 1213 b 663 1082 608 1213 663 1169 b 510 951 663 994 608 951 b 358 1082 413 951 358 994 b 510 1213 358 1169 399 1213 m 510 1150 b 431 1079 449 1150 431 1125 b 510 1007 431 1036 449 1007 b 592 1079 574 1007 592 1036 b 510 1150 592 1125 574 1150 "},"Ũ":{"ha":1025,"x_min":0,"x_max":0,"o":"m 903 968 l 803 968 l 803 335 b 514 68 803 114 706 68 b 224 335 324 68 224 108 l 224 968 l 122 968 l 122 336 b 513 -19 122 42 263 -19 b 903 336 765 -19 903 42 m 756 1160 b 603 1033 728 1081 674 1033 b 403 1126 532 1033 467 1126 b 322 1044 374 1126 346 1104 l 274 1092 b 413 1201 314 1164 351 1201 b 614 1113 490 1201 549 1113 b 700 1204 649 1113 676 1135 "},"Ŵ":{"ha":1257,"x_min":0,"x_max":0,"o":"m 900 103 b 1149 968 1007 429 1075 665 l 1247 968 b 961 0 1165 644 1072 324 l 832 0 b 642 825 778 289 703 589 b 422 0 599 594 511 292 l 296 0 b 8 968 210 325 106 700 l 121 968 b 365 103 207 708 286 432 b 590 968 440 354 542 721 l 693 968 b 900 103 757 721 854 363 m 636 1163 l 524 1038 l 418 1038 l 588 1217 l 688 1217 l 863 1038 l 753 1038 l 636 1163 "},"Ŷ":{"ha":843,"x_min":0,"x_max":0,"o":"m 472 0 l 371 0 l 371 465 b -7 968 261 626 136 793 l 119 968 b 429 544 228 835 335 688 b 735 968 536 679 642 826 l 850 968 b 472 465 729 796 604 626 m 421 1163 l 308 1038 l 203 1038 l 372 1217 l 472 1217 l 647 1038 l 538 1038 l 421 1163 "},"Ź":{"ha":846,"x_min":0,"x_max":0,"o":"m 29 40 b 667 885 244 308 474 610 l 67 885 l 67 968 l 811 968 l 811 932 b 175 83 611 636 386 338 l 786 83 l 786 0 l 29 0 m 503 1217 l 631 1217 l 410 1038 l 317 1038 "},"Ż":{"ha":846,"x_min":0,"x_max":0,"o":"m 29 40 b 667 885 244 308 474 610 l 67 885 l 67 968 l 811 968 l 811 932 b 175 83 611 636 386 338 l 786 83 l 786 0 l 29 0 m 429 1176 b 486 1122 472 1176 486 1169 b 429 1063 486 1071 472 1063 b 371 1122 385 1063 371 1071 b 429 1176 371 1169 385 1176 "},"ă":{"ha":753,"x_min":0,"x_max":0,"o":"m 647 449 b 356 721 647 661 560 721 b 122 686 261 721 176 701 l 149 601 b 350 635 204 625 283 635 b 557 426 513 635 557 599 b 357 449 485 442 431 449 b 79 217 200 449 79 417 b 364 -19 79 35 163 -19 b 647 36 453 -19 571 1 m 557 94 b 368 63 503 75 436 63 b 181 224 221 63 181 83 b 368 368 181 353 228 368 b 557 350 438 368 506 363 l 557 94 m 263 968 b 372 872 263 890 299 872 b 483 968 444 872 483 890 l 556 968 b 371 793 556 847 494 793 b 188 968 250 793 188 847 "},"":{"ha":483,"x_min":0,"x_max":0,"o":"m 317 1217 l 444 1217 l 224 1038 l 131 1038 "},"ā":{"ha":753,"x_min":0,"x_max":0,"o":"m 647 449 b 356 721 647 661 560 721 b 122 686 261 721 176 701 l 149 601 b 350 635 204 625 283 635 b 557 426 513 635 557 599 b 357 449 485 442 431 449 b 79 217 200 449 79 417 b 364 -19 79 35 163 -19 b 647 36 453 -19 571 1 m 557 94 b 368 63 503 75 436 63 b 181 224 221 63 181 83 b 368 368 181 353 228 368 b 557 350 438 368 506 363 l 557 94 m 199 894 l 547 894 l 547 814 l 199 814 "},"ą":{"ha":753,"x_min":0,"x_max":0,"o":"m 647 36 b 364 -19 571 1 453 -19 b 79 217 163 -19 79 35 b 357 449 79 417 200 449 b 557 426 431 449 485 442 b 350 635 557 599 513 635 b 149 601 283 635 204 625 l 122 686 b 356 721 176 701 261 721 b 647 449 560 721 647 661 m 557 350 b 368 368 506 363 438 368 b 181 224 228 368 181 353 b 368 63 181 83 221 63 b 557 94 436 63 503 75 m 597 17 b 465 -144 488 -49 465 -86 b 560 -207 465 -187 483 -207 b 688 -165 608 -207 658 -189 l 728 -233 b 553 -282 685 -267 611 -282 b 376 -158 417 -282 376 -240 b 550 17 376 -85 432 -17 "},"ć":{"ha":647,"x_min":0,"x_max":0,"o":"m 626 19 b 426 -19 574 -4 486 -19 b 88 354 208 -19 88 67 b 426 721 88 640 210 721 b 626 686 485 721 576 706 l 597 601 b 426 635 547 625 485 635 b 188 351 263 635 188 590 b 426 67 188 124 263 67 b 597 103 486 67 547 81 m 292 789 l 457 968 l 572 968 l 388 789 "},"":{"ha":926,"x_min":0,"x_max":0,"o":"m 489 1092 l 601 1217 l 707 1217 l 538 1038 l 438 1038 l 263 1217 l 372 1217 l 489 1092 "},"č":{"ha":647,"x_min":0,"x_max":0,"o":"m 626 19 b 426 -19 574 -4 486 -19 b 88 354 208 -19 88 67 b 426 721 88 640 210 721 b 626 686 485 721 576 706 l 597 601 b 426 635 547 625 485 635 b 188 351 263 635 188 590 b 426 67 188 124 263 67 b 597 103 486 67 547 81 m 413 849 l 522 968 l 631 968 l 461 789 l 361 789 l 186 968 l 300 968 "},"ĉ":{"ha":647,"x_min":0,"x_max":0,"o":"m 626 19 b 426 -19 574 -4 486 -19 b 88 354 208 -19 88 67 b 426 721 88 640 210 721 b 626 686 485 721 576 706 l 597 601 b 426 635 547 625 485 635 b 188 351 263 635 188 590 b 426 67 188 124 263 67 b 597 103 486 67 547 81 m 399 908 l 289 789 l 181 789 l 350 968 l 450 968 l 625 789 l 511 789 "},"ċ":{"ha":647,"x_min":0,"x_max":0,"o":"m 626 19 b 426 -19 574 -4 486 -19 b 88 354 208 -19 88 67 b 426 721 88 640 210 721 b 626 686 485 721 576 706 l 597 601 b 426 635 547 625 485 635 b 188 351 263 635 188 590 b 426 67 188 124 263 67 b 597 103 486 67 547 81 m 418 913 b 475 858 461 913 475 906 b 418 799 475 807 461 799 b 360 858 374 799 360 807 b 418 913 360 906 374 913 "},"¸":{"ha":908,"x_min":0,"x_max":0,"o":"m 503 0 l 503 -65 b 668 -169 631 -65 668 -86 b 494 -282 668 -256 619 -282 b 347 -253 425 -282 383 -274 l 372 -194 b 494 -218 403 -210 446 -218 b 574 -171 553 -218 574 -211 b 406 -128 574 -129 538 -121 l 456 0 "},"":{"ha":389,"x_min":0,"x_max":0,"o":"m 160 -303 l 86 -303 l 183 -71 l 300 -71 "},"ď":{"ha":794,"x_min":0,"x_max":0,"o":"m 406 721 b 599 664 506 721 564 692 l 599 1003 l 689 1003 l 689 36 b 406 -19 613 1 490 -19 b 88 349 189 -19 88 61 b 406 721 88 635 188 721 m 406 67 b 599 96 474 67 544 76 l 599 536 b 406 635 599 600 510 635 b 188 350 242 635 188 578 b 406 67 188 113 242 67 m 864 1003 l 786 736 l 732 736 l 763 1003 "},"":{"ha":467,"x_min":0,"x_max":0,"o":"m 206 1176 b 263 1122 249 1176 263 1169 b 206 1063 263 1071 249 1063 b 147 1122 161 1063 147 1071 b 206 1176 147 1169 161 1176 m 468 1176 b 525 1122 511 1176 525 1169 b 468 1063 525 1071 511 1063 b 410 1122 424 1063 410 1071 b 468 1176 410 1169 424 1176 "},"ĕ":{"ha":758,"x_min":0,"x_max":0,"o":"m 403 721 b 689 342 601 721 689 640 l 188 342 b 424 65 189 114 261 65 b 625 103 474 65 565 81 l 646 19 b 415 -19 574 -3 474 -19 b 88 354 203 -19 88 67 b 403 721 88 629 194 721 m 403 636 b 189 424 256 636 200 589 l 586 424 b 403 636 578 599 532 636 m 286 968 b 396 872 286 890 322 872 b 507 968 468 872 507 890 l 579 968 b 394 793 579 847 518 793 b 211 968 274 793 211 847 "},"ě":{"ha":758,"x_min":0,"x_max":0,"o":"m 403 721 b 689 342 601 721 689 640 l 188 342 b 424 65 189 114 261 65 b 625 103 474 65 565 81 l 646 19 b 415 -19 574 -3 474 -19 b 88 354 203 -19 88 67 b 403 721 88 629 194 721 m 403 636 b 189 424 256 636 200 589 l 586 424 b 403 636 578 599 532 636 m 401 849 l 511 968 l 619 968 l 450 789 l 350 789 l 175 968 l 289 968 "},"ė":{"ha":758,"x_min":0,"x_max":0,"o":"m 403 721 b 689 342 601 721 689 640 l 188 342 b 424 65 189 114 261 65 b 625 103 474 65 565 81 l 646 19 b 415 -19 574 -3 474 -19 b 88 354 203 -19 88 67 b 403 721 88 629 194 721 m 403 636 b 189 424 256 636 200 589 l 586 424 b 403 636 578 599 532 636 m 396 913 b 453 858 439 913 453 906 b 396 799 453 807 439 799 b 338 858 351 799 338 807 b 396 913 338 906 351 913 "},"ē":{"ha":758,"x_min":0,"x_max":0,"o":"m 403 721 b 689 342 601 721 689 640 l 188 342 b 424 65 189 114 261 65 b 625 103 474 65 565 81 l 646 19 b 415 -19 574 -3 474 -19 b 88 354 203 -19 88 67 b 403 721 88 629 194 721 m 403 636 b 189 424 256 636 200 589 l 586 424 b 403 636 578 599 532 636 m 226 894 l 575 894 l 575 814 l 226 814 "},"ę":{"ha":758,"x_min":0,"x_max":0,"o":"m 403 721 b 689 342 601 721 689 640 l 188 342 b 424 65 189 114 261 65 b 625 103 474 65 565 81 l 646 19 b 415 -19 574 -3 474 -19 b 88 354 203 -19 88 67 b 403 721 88 629 194 721 m 403 636 b 189 424 256 636 200 589 l 586 424 b 403 636 578 599 532 636 m 611 17 b 479 -144 501 -49 479 -86 b 574 -207 479 -187 497 -207 b 701 -165 622 -207 672 -189 l 742 -233 b 567 -282 699 -267 625 -282 b 390 -158 431 -282 390 -240 b 564 17 390 -85 446 -17 "},"₣":{"ha":776,"x_min":0,"x_max":0,"o":"m 72 299 l 140 299 l 140 968 l 793 968 l 793 885 l 240 885 l 240 513 l 583 513 l 583 431 l 240 431 l 240 299 l 375 299 l 375 222 l 240 222 l 240 0 l 140 0 l 140 222 l 72 222 "},"ğ":{"ha":794,"x_min":0,"x_max":0,"o":"m 689 51 b 342 -282 689 -208 560 -282 b 115 -242 282 -282 168 -264 l 142 -156 b 342 -196 190 -179 290 -196 b 599 39 506 -196 599 -149 b 406 -19 564 11 506 -19 b 88 354 188 -19 88 67 b 406 721 88 640 189 721 b 689 665 490 721 613 700 m 406 635 b 188 351 242 635 188 590 b 406 67 188 124 242 67 b 599 167 510 67 599 101 l 599 606 b 406 635 544 625 474 635 m 304 968 b 414 872 304 890 340 872 b 525 968 486 872 525 890 l 597 968 b 413 793 597 847 536 793 b 229 968 292 793 229 847 "},"ĝ":{"ha":794,"x_min":0,"x_max":0,"o":"m 689 51 b 342 -282 689 -208 560 -282 b 115 -242 282 -282 168 -264 l 142 -156 b 342 -196 190 -179 290 -196 b 599 39 506 -196 599 -149 b 406 -19 564 11 506 -19 b 88 354 188 -19 88 67 b 406 721 88 640 189 721 b 689 665 490 721 613 700 m 406 635 b 188 351 242 635 188 590 b 406 67 188 124 242 67 b 599 167 510 67 599 101 l 599 606 b 406 635 544 625 474 635 m 411 908 l 301 789 l 193 789 l 363 968 l 463 968 l 638 789 l 524 789 "},"ģ":{"ha":794,"x_min":0,"x_max":0,"o":"m 689 51 b 342 -282 689 -208 560 -282 b 115 -242 282 -282 168 -264 l 142 -156 b 342 -196 190 -179 290 -196 b 599 39 506 -196 599 -149 b 406 -19 564 11 506 -19 b 88 354 188 -19 88 67 b 406 721 88 640 189 721 b 689 665 490 721 613 700 m 406 635 b 188 351 242 635 188 590 b 406 67 188 124 242 67 b 599 167 510 67 599 101 l 599 606 b 406 635 544 625 474 635 m 400 801 l 326 801 l 424 1033 l 540 1033 "},"ġ":{"ha":794,"x_min":0,"x_max":0,"o":"m 689 51 b 342 -282 689 -208 560 -282 b 115 -242 282 -282 168 -264 l 142 -156 b 342 -196 190 -179 290 -196 b 599 39 506 -196 599 -149 b 406 -19 564 11 506 -19 b 88 354 188 -19 88 67 b 406 721 88 640 189 721 b 689 665 490 721 613 700 m 406 635 b 188 351 242 635 188 590 b 406 67 188 124 242 67 b 599 167 510 67 599 101 l 599 606 b 406 635 544 625 474 635 m 407 913 b 464 858 450 913 464 906 b 407 799 464 807 450 799 b 349 858 363 799 349 807 b 407 913 349 906 363 913 "},"":{"ha":483,"x_min":0,"x_max":0,"o":"m 568 1038 l 458 1038 l 236 1217 l 365 1217 l 568 1038 "},"ħ":{"ha":769,"x_min":0,"x_max":0,"o":"m 196 0 l 106 0 l 106 826 l 17 826 l 17 899 l 106 899 l 106 1003 l 196 1003 l 196 899 l 365 899 l 365 826 l 196 826 l 196 664 b 400 721 231 692 311 721 b 665 396 590 721 665 651 l 665 0 l 575 0 l 575 378 b 390 635 575 592 531 635 b 196 536 290 635 196 600 "},"ĥ":{"ha":769,"x_min":0,"x_max":0,"o":"m 400 721 b 665 396 590 721 665 651 l 665 0 l 575 0 l 575 378 b 390 635 575 592 531 635 b 196 536 290 635 196 600 l 196 0 l 106 0 l 106 1003 l 196 1003 l 196 664 b 400 721 231 692 311 721 m 235 1163 l 122 1038 l 17 1038 l 186 1217 l 286 1217 l 461 1038 l 351 1038 l 235 1163 "},"":{"ha":876,"x_min":0,"x_max":0,"o":"m 467 1217 l 318 1038 l 244 1038 l 363 1217 m 660 1217 l 513 1038 l 438 1038 l 554 1217 "},"ĳ":{"ha":600,"x_min":0,"x_max":0,"o":"m 196 701 l 106 701 l 106 0 l 196 0 m 153 968 b 210 914 196 968 210 961 b 153 854 210 863 196 854 b 94 914 108 854 94 863 b 153 968 94 961 108 968 m 449 968 b 506 914 492 968 506 961 b 449 854 506 863 492 854 b 390 914 404 854 390 863 b 449 968 390 961 404 968 m 263 -199 b 401 -39 354 -199 401 -178 l 401 701 l 492 701 l 492 -39 b 263 -282 492 -244 393 -282 "},"ī":{"ha":301,"x_min":0,"x_max":0,"o":"m 196 0 l 106 0 l 106 701 l 196 701 m -22 894 l 326 894 l 326 814 l -22 814 "},"į":{"ha":301,"x_min":0,"x_max":0,"o":"m 196 701 l 106 701 l 106 0 l 196 0 m 153 968 b 210 914 196 968 210 961 b 153 854 210 863 196 854 b 94 914 108 854 94 863 b 153 968 94 961 108 968 m 196 17 b 64 -144 86 -49 64 -86 b 158 -207 64 -187 82 -207 b 286 -165 207 -207 257 -189 l 326 -233 b 151 -282 283 -267 210 -282 b -25 -158 15 -282 -25 -240 b 149 17 -25 -85 31 -17 "},"ĩ":{"ha":301,"x_min":0,"x_max":0,"o":"m 196 0 l 106 0 l 106 701 l 196 701 m 386 911 b 240 785 357 829 314 785 b 49 876 167 785 115 876 b -35 792 18 876 -10 854 l -85 840 b 58 954 -43 915 -4 954 b 244 863 139 954 178 863 b 329 957 281 863 304 886 "},"ĵ":{"ha":301,"x_min":0,"x_max":0,"o":"m 154 908 l 44 789 l -64 789 l 106 968 l 206 968 l 381 789 l 267 789 m -33 -199 b 106 -39 58 -199 106 -178 l 106 701 l 196 701 l 196 -39 b -33 -282 196 -244 97 -282 "},"ķ":{"ha":664,"x_min":0,"x_max":0,"o":"m 196 0 l 106 0 l 106 1003 l 196 1003 m 667 0 b 321 383 481 233 364 361 b 642 701 365 413 478 519 l 525 701 b 196 371 361 519 243 403 b 550 0 244 354 365 226 m 294 -303 l 221 -303 l 318 -71 l 435 -71 "},"ĺ":{"ha":308,"x_min":0,"x_max":0,"o":"m 196 181 b 263 29 196 113 211 81 l 193 -29 b 106 175 135 26 106 72 l 106 1003 l 196 1003 m 265 1217 l 393 1217 l 172 1038 l 79 1038 "},"ľ":{"ha":308,"x_min":0,"x_max":0,"o":"m 196 181 b 263 29 196 113 211 81 l 193 -29 b 106 175 135 26 106 72 l 106 1003 l 196 1003 m 372 1003 l 294 736 l 240 736 l 271 1003 "},"ļ":{"ha":308,"x_min":0,"x_max":0,"o":"m 196 181 b 263 29 196 113 211 81 l 193 -29 b 106 175 135 26 106 72 l 106 1003 l 196 1003 m 129 -303 l 56 -303 l 153 -71 l 269 -71 "},"":{"ha":471,"x_min":0,"x_max":0,"o":"m 189 1156 l 538 1156 l 538 1069 l 189 1069 "},"ń":{"ha":769,"x_min":0,"x_max":0,"o":"m 196 0 l 106 0 l 106 665 b 389 721 182 700 304 721 b 665 396 592 721 665 651 l 665 0 l 575 0 l 575 378 b 372 635 575 592 531 635 b 196 611 304 635 250 628 m 243 789 l 408 968 l 524 968 l 339 789 "},"ň":{"ha":769,"x_min":0,"x_max":0,"o":"m 196 0 l 106 0 l 106 665 b 389 721 182 700 304 721 b 665 396 592 721 665 651 l 665 0 l 575 0 l 575 378 b 372 635 575 592 531 635 b 196 611 304 635 250 628 m 385 849 l 494 968 l 603 968 l 433 789 l 333 789 l 158 968 l 272 968 "},"ņ":{"ha":769,"x_min":0,"x_max":0,"o":"m 196 0 l 106 0 l 106 665 b 389 721 182 700 304 721 b 665 396 592 721 665 651 l 665 0 l 575 0 l 575 378 b 372 635 575 592 531 635 b 196 611 304 635 250 628 m 313 -303 l 239 -303 l 336 -71 l 453 -71 "},"ŏ":{"ha":813,"x_min":0,"x_max":0,"o":"m 406 -19 b 88 354 188 -19 88 67 b 406 721 88 640 189 721 b 725 354 624 721 725 640 b 406 -19 725 67 625 -19 m 406 638 b 188 351 242 638 188 590 b 406 64 188 124 242 64 b 625 351 571 64 625 124 b 406 638 625 590 571 638 m 296 968 b 406 872 296 890 332 872 b 517 968 478 872 517 890 l 589 968 b 404 793 589 847 528 793 b 221 968 283 793 221 847 "},"ő":{"ha":813,"x_min":0,"x_max":0,"o":"m 406 -19 b 88 354 188 -19 88 67 b 406 721 88 640 189 721 b 725 354 624 721 725 640 b 406 -19 725 67 625 -19 m 406 638 b 188 351 242 638 188 590 b 406 64 188 124 242 64 b 625 351 571 64 625 124 b 406 638 625 590 571 638 m 453 968 l 304 789 l 231 789 l 349 968 m 646 968 l 499 789 l 424 789 l 540 968 "},"ō":{"ha":813,"x_min":0,"x_max":0,"o":"m 406 -19 b 88 354 188 -19 88 67 b 406 721 88 640 189 721 b 725 354 624 721 725 640 b 406 -19 725 67 625 -19 m 406 638 b 188 351 242 638 188 590 b 406 64 188 124 242 64 b 625 351 571 64 625 124 b 406 638 625 590 571 638 m 229 894 l 578 894 l 578 814 l 229 814 "},"ŕ":{"ha":476,"x_min":0,"x_max":0,"o":"m 393 721 b 465 717 418 721 443 719 l 465 624 b 393 629 444 626 419 629 b 196 536 289 629 196 600 l 196 0 l 106 0 l 106 701 l 196 701 l 196 651 b 393 721 222 685 293 721 m 193 789 l 358 968 l 474 968 l 289 789 "},"ř":{"ha":476,"x_min":0,"x_max":0,"o":"m 393 721 b 465 717 418 721 443 719 l 465 624 b 393 629 444 626 419 629 b 196 536 289 629 196 600 l 196 0 l 106 0 l 106 701 l 196 701 l 196 651 b 393 721 222 685 293 721 m 296 849 l 406 968 l 514 968 l 344 789 l 244 789 l 69 968 l 183 968 "},"ŗ":{"ha":476,"x_min":0,"x_max":0,"o":"m 393 721 b 465 717 418 721 443 719 l 465 624 b 393 629 444 626 419 629 b 196 536 289 629 196 600 l 196 0 l 106 0 l 106 701 l 196 701 l 196 651 b 393 721 222 685 293 721 m 92 -303 l 18 -303 l 115 -71 l 232 -71 "},"ś":{"ha":700,"x_min":0,"x_max":0,"o":"m 561 599 b 361 638 504 621 429 638 b 182 511 242 638 182 621 b 357 403 182 442 231 411 b 617 201 539 390 617 332 b 346 -19 617 35 532 -19 b 93 18 276 -19 163 -6 l 121 103 b 346 63 169 81 274 63 b 518 193 460 63 518 82 b 346 315 518 268 481 304 b 83 503 176 328 83 371 b 361 721 83 668 179 721 b 592 685 429 721 513 707 l 561 599 m 236 789 l 401 968 l 517 968 l 332 789 "},"ş":{"ha":700,"x_min":0,"x_max":0,"o":"m 561 599 b 361 638 504 621 429 638 b 182 511 242 638 182 621 b 357 403 182 442 231 411 b 617 201 539 390 617 332 b 346 -19 617 35 532 -19 b 93 18 276 -19 163 -6 l 121 103 b 346 63 169 81 274 63 b 518 193 460 63 518 82 b 346 315 518 268 481 304 b 83 503 176 328 83 371 b 361 721 83 668 179 721 b 592 685 429 721 513 707 l 561 599 m 350 0 l 350 -65 b 515 -169 478 -65 515 -86 b 342 -282 515 -256 467 -282 b 194 -253 272 -282 231 -274 l 219 -194 b 342 -218 250 -210 293 -218 b 421 -171 400 -218 421 -211 b 253 -128 421 -129 385 -121 l 303 0 "},"ŝ":{"ha":700,"x_min":0,"x_max":0,"o":"m 561 599 b 361 638 504 621 429 638 b 182 511 242 638 182 621 b 357 403 182 442 231 411 b 617 201 539 390 617 332 b 346 -19 617 35 532 -19 b 93 18 276 -19 163 -6 l 121 103 b 346 63 169 81 274 63 b 518 193 460 63 518 82 b 346 315 518 268 481 304 b 83 503 176 328 83 371 b 361 721 83 668 179 721 b 592 685 429 721 513 707 l 561 599 m 354 908 l 244 789 l 136 789 l 306 968 l 406 968 l 581 789 l 467 789 "},"ș":{"ha":700,"x_min":0,"x_max":0,"o":"m 561 599 b 361 638 504 621 429 638 b 182 511 242 638 182 621 b 357 403 182 442 231 411 b 617 201 539 390 617 332 b 346 -19 617 35 532 -19 b 93 18 276 -19 163 -6 l 121 103 b 346 63 169 81 274 63 b 518 193 460 63 518 82 b 346 315 518 268 481 304 b 83 503 176 328 83 371 b 361 721 83 668 179 721 b 592 685 429 721 513 707 l 561 599 m 286 -303 l 213 -303 l 310 -71 l 426 -71 "},"ŧ":{"ha":546,"x_min":0,"x_max":0,"o":"m 49 403 l 142 403 l 142 619 l 18 619 l 18 701 l 142 701 l 142 849 l 232 886 l 232 701 l 492 701 l 492 619 l 232 619 l 232 403 l 397 403 l 397 317 l 232 317 l 232 236 b 363 67 232 117 264 67 b 496 88 413 67 458 74 l 517 7 b 363 -19 476 -7 413 -19 b 142 235 203 -19 142 28 l 142 317 l 49 317 "},"ť":{"ha":546,"x_min":0,"x_max":0,"o":"m 232 618 l 492 618 l 492 701 l 232 701 l 232 886 l 142 849 l 142 701 l 18 701 l 18 618 l 142 618 l 142 235 b 363 -19 142 28 203 -19 b 517 7 413 -19 476 -7 l 496 88 b 363 67 458 74 413 67 b 232 236 264 67 232 117 m 475 1065 l 397 799 l 343 799 l 374 1065 "},"ţ":{"ha":546,"x_min":0,"x_max":0,"o":"m 232 236 b 363 67 232 117 264 67 b 496 88 413 67 458 74 l 517 7 b 363 -19 476 -7 413 -19 b 142 235 203 -19 142 28 l 142 618 l 18 618 l 18 701 l 142 701 l 142 849 l 232 886 l 232 701 l 492 701 l 492 618 l 232 618 m 221 -303 l 147 -303 l 244 -71 l 361 -71 "},"ŭ":{"ha":769,"x_min":0,"x_max":0,"o":"m 575 92 b 397 67 521 74 465 67 b 196 324 240 67 196 110 l 196 701 l 106 701 l 106 306 b 382 -19 106 51 179 -19 b 665 36 465 -19 588 1 l 665 701 l 575 701 m 276 968 b 386 872 276 890 313 872 b 497 968 458 872 497 890 l 569 968 b 385 793 569 847 508 793 b 201 968 264 793 201 847 "},"ű":{"ha":769,"x_min":0,"x_max":0,"o":"m 575 92 b 397 67 521 74 465 67 b 196 324 240 67 196 110 l 196 701 l 106 701 l 106 306 b 382 -19 106 51 179 -19 b 665 36 465 -19 588 1 l 665 701 l 575 701 m 428 968 l 279 789 l 206 789 l 324 968 m 621 968 l 474 789 l 399 789 l 515 968 "},"ū":{"ha":769,"x_min":0,"x_max":0,"o":"m 575 92 b 397 67 521 74 465 67 b 196 324 240 67 196 110 l 196 701 l 106 701 l 106 306 b 382 -19 106 51 179 -19 b 665 36 465 -19 588 1 l 665 701 l 575 701 m 208 894 l 557 894 l 557 814 l 208 814 "},"ų":{"ha":769,"x_min":0,"x_max":0,"o":"m 575 701 l 665 701 l 665 36 b 382 -19 588 1 465 -19 b 106 306 179 -19 106 51 l 106 701 l 196 701 l 196 324 b 397 67 196 110 240 67 b 575 92 465 67 521 74 m 603 17 b 471 -144 493 -49 471 -86 b 565 -207 471 -187 489 -207 b 693 -165 614 -207 664 -189 l 733 -233 b 558 -282 690 -267 617 -282 b 382 -158 422 -282 382 -240 b 556 17 382 -85 438 -17 "},"ů":{"ha":769,"x_min":0,"x_max":0,"o":"m 575 701 l 665 701 l 665 36 b 382 -19 588 1 465 -19 b 106 306 179 -19 106 51 l 106 701 l 196 701 l 196 324 b 397 67 196 110 240 67 b 575 92 465 67 521 74 m 394 1025 b 547 894 493 1025 547 982 b 394 764 547 807 493 764 b 243 894 297 764 243 807 b 394 1025 243 982 283 1025 m 394 963 b 315 892 333 963 315 938 b 394 819 315 849 333 819 b 476 892 458 819 476 849 b 394 963 476 938 458 963 "},"ũ":{"ha":769,"x_min":0,"x_max":0,"o":"m 575 92 b 397 67 521 74 465 67 b 196 324 240 67 196 110 l 196 701 l 106 701 l 106 306 b 382 -19 106 51 179 -19 b 665 36 465 -19 588 1 l 665 701 l 575 701 m 624 911 b 478 785 594 829 551 785 b 286 876 404 785 353 876 b 203 792 256 876 228 854 l 153 840 b 296 954 194 915 233 954 b 482 863 376 954 415 863 b 567 957 518 863 542 886 "},"ŵ":{"ha":1129,"x_min":0,"x_max":0,"o":"m 1093 701 b 854 0 1031 467 949 224 l 726 0 b 571 597 686 193 615 467 b 390 0 524 406 453 174 l 263 0 b 35 701 199 236 117 497 l 142 701 b 331 86 207 532 279 294 b 513 701 392 256 483 564 l 628 701 b 794 86 685 538 753 271 b 992 701 872 290 943 497 l 1093 701 m 567 908 l 457 789 l 349 789 l 518 968 l 618 968 l 793 789 l 679 789 "},"ŷ":{"ha":707,"x_min":0,"x_max":0,"o":"m 293 -33 b 179 -267 258 -110 215 -200 l 285 -267 b 411 0 324 -194 375 -87 b 672 701 510 233 601 467 l 574 701 b 353 81 518 500 438 285 b 136 701 293 289 211 532 l 35 701 b 293 -33 128 510 222 217 m 351 908 l 242 789 l 133 789 l 303 968 l 403 968 l 578 789 l 464 789 "},"ź":{"ha":688,"x_min":0,"x_max":0,"o":"m 50 38 b 488 618 217 239 397 478 l 72 618 l 72 701 l 629 701 l 629 667 b 200 83 506 478 300 197 l 631 83 l 631 0 l 50 0 m 278 789 l 443 968 l 558 968 l 374 789 "},"ż":{"ha":688,"x_min":0,"x_max":0,"o":"m 50 38 b 488 618 217 239 397 478 l 72 618 l 72 701 l 629 701 l 629 667 b 200 83 506 478 300 197 l 631 83 l 631 0 l 50 0 m 353 913 b 410 858 396 913 410 906 b 353 799 410 807 396 799 b 294 858 308 799 294 807 b 353 913 294 906 308 913 "},"r":{"ha":476,"x_min":0,"x_max":0,"o":"m 393 721 b 465 717 418 721 443 719 l 465 624 b 393 629 444 626 419 629 b 196 536 289 629 196 600 l 196 0 l 106 0 l 106 701 l 196 701 l 196 651 b 393 721 222 685 293 721 "},"m":{"ha":1194,"x_min":0,"x_max":0,"o":"m 196 0 l 106 0 l 106 665 b 378 721 182 700 294 721 b 567 672 465 721 525 707 b 825 721 644 701 746 721 b 1090 396 1028 721 1090 651 l 1090 0 l 1000 0 l 1000 378 b 808 635 1000 592 956 635 b 614 604 761 635 682 628 b 643 396 632 554 643 486 l 643 0 l 553 0 l 553 378 b 363 635 553 592 510 635 b 196 611 308 635 243 626 "},"o":{"ha":813,"x_min":0,"x_max":0,"o":"m 406 -19 b 88 354 188 -19 88 67 b 406 721 88 640 189 721 b 725 354 624 721 725 640 b 406 -19 725 67 625 -19 m 406 638 b 188 351 242 638 188 590 b 406 64 188 124 242 64 b 625 351 571 64 625 124 b 406 638 625 590 571 638 "},"t":{"ha":546,"x_min":0,"x_max":0,"o":"m 232 236 b 363 67 232 117 264 67 b 496 88 413 67 458 74 l 517 7 b 363 -19 476 -7 413 -19 b 142 235 203 -19 142 28 l 142 618 l 18 618 l 18 701 l 142 701 l 142 849 l 232 886 l 232 701 l 492 701 l 492 618 l 232 618 "},"w":{"ha":1129,"x_min":0,"x_max":0,"o":"m 1093 701 b 854 0 1031 467 949 224 l 726 0 b 571 597 686 193 615 467 b 390 0 524 406 453 174 l 263 0 b 35 701 199 236 117 497 l 142 701 b 331 86 207 532 279 294 b 513 701 392 256 483 564 l 628 701 b 794 86 685 538 753 271 b 992 701 872 290 943 497 l 1093 701 "},"y":{"ha":707,"x_min":0,"x_max":0,"o":"m 293 -33 b 35 701 222 217 128 510 l 136 701 b 353 81 211 532 293 289 b 574 701 438 285 518 500 l 672 701 b 411 0 601 467 510 233 b 285 -267 375 -87 324 -194 l 179 -267 b 293 -33 215 -200 258 -110 "},"Ŀ":{"ha":758,"x_min":0,"x_max":0,"o":"m 240 968 l 240 88 l 740 88 l 740 0 l 140 0 l 140 968 m 436 585 b 493 531 479 585 493 578 b 436 471 493 479 479 471 b 378 531 392 471 378 479 b 436 585 378 578 392 585 "},"ŀ":{"ha":308,"x_min":0,"x_max":0,"o":"m 196 181 b 263 29 196 113 211 81 l 193 -29 b 106 175 135 26 106 72 l 106 1003 l 196 1003 m 308 603 b 365 549 351 603 365 596 b 308 489 365 497 351 489 b 250 549 264 489 250 497 b 308 603 250 596 264 603 "},"ĭ":{"ha":301,"x_min":0,"x_max":0,"o":"m 196 0 l 106 0 l 106 701 l 196 701 m 43 968 b 153 872 43 890 79 872 b 264 968 225 872 264 890 l 336 968 b 151 793 336 847 275 793 b -32 968 31 793 -32 847 "},"İ":{"ha":379,"x_min":0,"x_max":0,"o":"m 140 968 l 140 0 l 240 0 l 240 968 m 192 1176 b 249 1122 235 1176 249 1169 b 192 1063 249 1071 235 1063 b 133 1122 147 1063 133 1071 b 192 1176 133 1169 147 1176 "},"Ĭ":{"ha":379,"x_min":0,"x_max":0,"o":"m 140 968 l 140 0 l 240 0 l 240 968 m 85 1210 b 194 1114 85 1132 121 1114 b 306 1210 267 1114 306 1132 l 378 1210 b 193 1035 378 1089 317 1035 b 10 1210 72 1035 10 1089 "},"Ã":{"ha":928,"x_min":0,"x_max":0,"o":"m 806 0 l 918 0 b 554 968 801 268 664 642 l 383 968 b 18 0 249 644 129 324 l 117 0 b 217 299 149 101 182 200 l 689 299 b 806 0 728 193 768 93 m 485 890 b 658 382 539 721 599 546 l 247 382 b 444 890 308 550 375 718 m 707 1160 b 554 1033 679 1081 625 1033 b 354 1126 483 1033 418 1126 b 274 1044 325 1126 297 1104 l 225 1092 b 364 1201 265 1164 303 1201 b 565 1113 442 1201 500 1113 b 651 1204 600 1113 628 1135 "},"Å":{"ha":928,"x_min":0,"x_max":0,"o":"m 806 0 b 689 299 768 93 728 193 l 217 299 b 117 0 182 200 149 101 l 18 0 b 383 968 129 324 249 644 l 554 968 b 918 0 664 642 801 268 l 806 0 m 444 890 b 247 382 375 718 308 550 l 658 382 b 485 890 599 546 539 721 m 467 1213 b 619 1082 565 1213 619 1169 b 467 951 619 994 565 951 b 315 1082 369 951 315 994 b 467 1213 315 1169 356 1213 m 467 1150 b 388 1079 406 1150 388 1125 b 467 1007 388 1036 406 1007 b 549 1079 531 1007 549 1036 b 467 1150 549 1125 531 1150 "},"À":{"ha":928,"x_min":0,"x_max":0,"o":"m 806 0 l 918 0 b 554 968 801 268 664 642 l 383 968 b 18 0 249 644 129 324 l 117 0 b 217 299 149 101 182 200 l 689 299 b 806 0 728 193 768 93 m 485 890 b 658 382 539 721 599 546 l 247 382 b 444 890 308 550 375 718 m 568 1038 l 458 1038 l 236 1217 l 365 1217 l 568 1038 "},"Ä":{"ha":928,"x_min":0,"x_max":0,"o":"m 806 0 l 918 0 b 554 968 801 268 664 642 l 383 968 b 18 0 249 644 129 324 l 117 0 b 217 299 149 101 182 200 l 689 299 b 806 0 728 193 768 93 m 485 890 b 658 382 539 721 599 546 l 247 382 b 444 890 308 550 375 718 m 329 1176 b 386 1122 372 1176 386 1169 b 329 1063 386 1071 372 1063 b 271 1122 285 1063 271 1071 b 329 1176 271 1169 285 1176 m 592 1176 b 649 1122 635 1176 649 1169 b 592 1063 649 1071 635 1063 b 533 1122 547 1063 533 1071 b 592 1176 533 1169 547 1176 "},"Â":{"ha":928,"x_min":0,"x_max":0,"o":"m 806 0 l 918 0 b 554 968 801 268 664 642 l 383 968 b 18 0 249 644 129 324 l 117 0 b 217 299 149 101 182 200 l 689 299 b 806 0 728 193 768 93 m 485 890 b 658 382 539 721 599 546 l 247 382 b 444 890 308 550 375 718 m 461 1163 l 349 1038 l 243 1038 l 413 1217 l 513 1217 l 688 1038 l 578 1038 l 461 1163 "},"Ă":{"ha":928,"x_min":0,"x_max":0,"o":"m 806 0 l 918 0 b 554 968 801 268 664 642 l 383 968 b 18 0 249 644 129 324 l 117 0 b 217 299 149 101 182 200 l 689 299 b 806 0 728 193 768 93 m 485 890 b 658 382 539 721 599 546 l 247 382 b 444 890 308 550 375 718 m 353 1210 b 463 1114 353 1132 389 1114 b 574 1210 535 1114 574 1132 l 646 1210 b 461 1035 646 1089 585 1035 b 278 1210 340 1035 278 1089 "},"Á":{"ha":928,"x_min":0,"x_max":0,"o":"m 806 0 l 918 0 b 554 968 801 268 664 642 l 383 968 b 18 0 249 644 129 324 l 117 0 b 217 299 149 101 182 200 l 689 299 b 806 0 728 193 768 93 m 485 890 b 658 382 539 721 599 546 l 247 382 b 444 890 308 550 375 718 m 564 1217 l 692 1217 l 471 1038 l 378 1038 "},"ß":{"ha":856,"x_min":0,"x_max":0,"o":"m 331 68 b 393 64 346 67 378 64 b 665 269 610 64 665 122 b 417 478 665 422 604 478 l 386 478 l 386 560 l 417 560 b 643 743 586 560 643 614 b 426 907 643 860 582 907 b 197 746 279 907 197 851 l 197 0 l 106 0 l 106 746 b 426 992 106 911 246 992 b 746 756 628 992 746 911 b 547 521 746 640 719 536 b 772 267 731 513 772 399 b 393 -19 772 51 653 -19 b 322 -15 375 -19 340 -18 "},"ﬂ":{"ha":776,"x_min":0,"x_max":0,"o":"m 665 181 b 732 29 665 113 681 81 l 661 -29 b 575 175 604 26 575 72 l 575 894 b 424 915 528 908 478 915 b 232 756 311 915 232 894 l 232 701 l 482 701 l 482 618 l 232 618 l 232 0 l 142 0 l 142 618 l 18 618 l 18 701 l 142 701 l 142 756 b 424 999 142 961 278 999 b 665 951 507 999 588 983 "},"Đ":{"ha":976,"x_min":0,"x_max":0,"o":"m 65 540 l 140 540 l 140 968 l 439 968 b 889 486 740 968 889 861 b 439 0 889 113 742 0 l 140 0 l 140 464 l 65 464 m 782 486 b 439 882 782 824 688 882 l 240 882 l 240 540 l 465 540 l 465 464 l 240 464 l 240 83 l 439 83 b 782 486 688 83 782 168 "},"":{"ha":472,"x_min":0,"x_max":0,"o":"m 386 1003 l 308 736 l 254 736 l 285 1003 "},"đ":{"ha":794,"x_min":0,"x_max":0,"o":"m 449 893 l 599 893 l 599 1003 l 689 1003 l 689 893 l 751 893 l 751 817 l 689 817 l 689 36 b 406 -19 613 1 490 -19 b 88 349 189 -19 88 61 b 406 721 88 635 188 721 b 599 664 506 721 564 692 l 599 817 l 449 817 m 406 67 b 599 96 474 67 544 76 l 599 536 b 406 635 599 600 510 635 b 188 350 242 635 188 578 b 406 67 188 113 242 67 "},"¤":{"ha":900,"x_min":0,"x_max":0,"o":"m 458 117 b 263 158 376 117 313 128 l 135 0 l 69 65 l 197 222 b 140 490 158 281 140 367 b 194 750 140 610 158 693 l 72 913 l 150 968 l 264 817 b 458 857 314 846 378 857 b 647 821 536 857 599 847 l 751 968 l 828 914 l 718 757 b 778 490 758 700 778 614 b 718 219 778 364 758 278 l 835 65 l 761 0 l 646 153 b 458 117 597 128 535 117 m 458 771 b 240 488 294 771 240 726 b 458 203 240 260 294 203 b 678 488 624 203 678 260 b 458 771 678 726 624 771 "},"h":{"ha":769,"x_min":0,"x_max":0,"o":"m 400 721 b 665 396 590 721 665 651 l 665 0 l 575 0 l 575 378 b 390 635 575 592 531 635 b 196 536 290 635 196 600 l 196 0 l 106 0 l 106 1003 l 196 1003 l 196 664 b 400 721 231 692 311 721 "},"p":{"ha":794,"x_min":0,"x_max":0,"o":"m 389 -19 b 196 39 289 -19 231 11 l 196 -267 l 106 -267 l 106 665 b 389 721 182 700 304 721 b 707 354 606 721 707 640 b 389 -19 707 67 607 -19 m 389 635 b 196 606 321 635 250 625 l 196 167 b 389 67 196 101 285 67 b 607 351 553 67 607 124 b 389 635 607 590 553 635 "},"u":{"ha":769,"x_min":0,"x_max":0,"o":"m 575 701 l 665 701 l 665 36 b 382 -19 588 1 465 -19 b 106 306 179 -19 106 51 l 106 701 l 196 701 l 196 324 b 397 67 196 110 240 67 b 575 92 465 67 521 74 "},"q":{"ha":794,"x_min":0,"x_max":0,"o":"m 406 -19 b 88 354 188 -19 88 67 b 406 721 88 640 189 721 b 689 665 490 721 613 700 l 689 -267 l 599 -267 l 599 39 b 406 -19 564 11 506 -19 m 406 635 b 188 351 242 635 188 590 b 406 67 188 124 242 67 b 599 167 510 67 599 101 l 599 606 b 406 635 544 625 474 635 "},"b":{"ha":794,"x_min":0,"x_max":0,"o":"m 389 721 b 707 349 607 721 707 635 b 389 -19 707 61 606 -19 b 106 36 304 -19 182 1 l 106 1003 l 196 1003 l 196 664 b 389 721 231 692 289 721 m 389 67 b 607 350 553 67 607 113 b 389 635 607 578 553 635 b 196 536 285 635 196 600 l 196 96 b 389 67 250 76 321 67 "},"d":{"ha":794,"x_min":0,"x_max":0,"o":"m 406 721 b 599 664 506 721 564 692 l 599 1003 l 689 1003 l 689 36 b 406 -19 613 1 490 -19 b 88 349 189 -19 88 61 b 406 721 88 635 188 721 m 406 67 b 599 96 474 67 544 76 l 599 536 b 406 635 599 600 510 635 b 188 350 242 635 188 578 b 406 67 188 113 242 67 "},"n":{"ha":769,"x_min":0,"x_max":0,"o":"m 196 0 l 106 0 l 106 665 b 389 721 182 700 304 721 b 665 396 592 721 665 651 l 665 0 l 575 0 l 575 378 b 372 635 575 592 531 635 b 196 611 304 635 250 628 "},"g":{"ha":794,"x_min":0,"x_max":0,"o":"m 689 51 b 342 -282 689 -208 560 -282 b 115 -242 282 -282 168 -264 l 142 -156 b 342 -196 190 -179 290 -196 b 599 39 506 -196 599 -149 b 406 -19 564 11 506 -19 b 88 354 188 -19 88 67 b 406 721 88 640 189 721 b 689 665 490 721 613 700 m 406 635 b 188 351 242 635 188 590 b 406 67 188 124 242 67 b 599 167 510 67 599 101 l 599 606 b 406 635 544 625 474 635 "},"c":{"ha":647,"x_min":0,"x_max":0,"o":"m 626 19 b 426 -19 574 -4 486 -19 b 88 354 208 -19 88 67 b 426 721 88 640 210 721 b 626 686 485 721 576 706 l 597 601 b 426 635 547 625 485 635 b 188 351 263 635 188 590 b 426 67 188 124 263 67 b 597 103 486 67 547 81 "},"e":{"ha":758,"x_min":0,"x_max":0,"o":"m 403 721 b 689 342 601 721 689 640 l 188 342 b 424 65 189 114 261 65 b 625 103 474 65 565 81 l 646 19 b 415 -19 574 -3 474 -19 b 88 354 203 -19 88 67 b 403 721 88 629 194 721 m 403 636 b 189 424 256 636 200 589 l 586 424 b 403 636 578 599 532 636 "},"C":{"ha":836,"x_min":0,"x_max":0,"o":"m 88 493 b 531 992 88 889 231 992 b 801 954 617 992 726 976 l 769 864 b 532 901 711 888 607 901 b 196 493 288 901 196 849 b 532 72 196 139 288 72 b 769 108 607 72 711 86 l 801 19 b 531 -19 726 -4 617 -19 b 88 493 231 -19 88 99 "},"ł":{"ha":308,"x_min":0,"x_max":0,"o":"m 196 640 l 304 761 l 304 656 l 196 536 l 196 181 b 263 29 196 113 211 81 l 193 -29 b 106 175 135 26 106 72 l 106 436 l 4 324 l 4 426 l 106 539 l 106 1003 l 196 1003 "},"Ł":{"ha":758,"x_min":0,"x_max":0,"o":"m 471 624 l 240 410 l 240 88 l 740 88 l 740 0 l 140 0 l 140 317 l 38 222 l 38 325 l 140 421 l 140 968 l 240 968 l 240 514 l 471 729 "},"$":{"ha":867,"x_min":0,"x_max":0,"o":"m 476 1146 l 476 950 b 729 921 554 950 661 940 l 700 831 b 476 864 658 853 551 864 l 476 529 b 760 271 674 506 760 426 b 476 11 760 106 651 29 l 476 -190 l 393 -190 l 393 7 b 131 36 313 7 201 15 l 161 126 b 393 93 215 106 324 93 l 393 449 b 113 686 197 467 113 531 b 393 944 113 850 218 928 l 393 1146 m 658 269 b 476 439 658 365 618 418 l 476 99 b 658 269 588 113 658 157 m 214 688 b 393 538 214 592 256 553 l 393 860 b 214 688 282 846 214 799 "},"€":{"ha":836,"x_min":0,"x_max":0,"o":"m 88 493 b 531 992 88 889 231 992 b 801 954 617 992 726 976 l 769 864 b 532 901 711 888 607 901 b 207 667 335 901 236 867 l 613 667 l 613 583 l 197 583 b 196 493 196 554 196 525 b 197 404 196 460 196 431 l 613 404 l 613 322 l 207 322 b 532 72 236 115 332 72 b 769 108 607 72 711 86 l 801 19 b 531 -19 726 -4 617 -19 b 88 493 231 -19 88 99 "},"?":{"ha":647,"x_min":0,"x_max":0,"o":"m 297 143 b 371 75 354 143 371 135 b 297 0 371 11 354 0 b 226 75 244 0 226 11 b 297 143 226 135 244 143 m 244 275 b 485 728 410 432 485 568 b 282 901 485 836 446 901 b 92 868 224 901 140 890 l 64 957 b 282 992 115 976 224 992 b 590 736 499 992 590 900 b 357 275 590 572 529 442 "},"Ý":{"ha":843,"x_min":0,"x_max":0,"o":"m 472 0 l 371 0 l 371 465 b -7 968 261 626 136 793 l 119 968 b 429 544 228 835 335 688 b 735 968 536 679 642 826 l 850 968 b 472 465 729 796 604 626 m 521 1217 l 649 1217 l 428 1038 l 335 1038 "},"•":{"ha":813,"x_min":0,"x_max":0,"o":"m 406 78 b 88 451 188 78 88 164 b 406 818 88 738 189 818 b 725 451 624 818 725 738 b 406 78 725 164 625 78 "},"ﬀ":{"ha":926,"x_min":0,"x_max":0,"o":"m 665 701 l 915 701 l 915 618 l 665 618 l 665 0 l 575 0 l 575 618 l 232 618 l 232 0 l 142 0 l 142 618 l 18 618 l 18 701 l 142 701 l 142 756 b 424 999 142 961 278 999 b 644 958 500 999 575 985 b 803 999 686 992 744 999 b 961 976 856 999 915 990 l 938 897 b 803 915 903 908 843 915 b 665 767 738 915 665 904 m 232 701 l 575 701 l 575 767 b 594 888 575 817 582 857 b 424 915 540 906 485 915 b 232 756 311 915 232 894 "},"ﬃ":{"ha":1203,"x_min":0,"x_max":0,"o":"m 1099 0 l 1008 0 l 1008 618 l 665 618 l 665 0 l 575 0 l 575 618 l 232 618 l 232 0 l 142 0 l 142 618 l 18 618 l 18 701 l 142 701 l 142 756 b 424 999 142 961 278 999 b 660 953 499 999 590 983 b 857 999 713 989 783 999 b 1094 951 940 999 1021 983 l 1067 874 b 857 915 1001 900 933 915 b 665 756 744 915 665 894 l 665 701 l 1099 701 m 232 701 l 575 701 l 575 756 b 600 883 575 808 585 850 b 424 915 544 906 481 915 b 232 756 311 915 232 894 "},"'":{"ha":232,"x_min":0,"x_max":0,"o":"m 169 968 l 143 649 l 78 649 l 63 968 "},")":{"ha":354,"x_min":0,"x_max":0,"o":"m 260 346 b -18 -358 260 -94 132 -282 l -62 -285 b 161 346 50 -244 161 -67 b -62 976 161 757 50 936 l -18 1050 b 260 346 132 974 260 786 "},"]":{"ha":369,"x_min":0,"x_max":0,"o":"m 250 1049 l 250 -361 l -28 -361 l -28 -282 l 154 -282 l 154 968 l -28 968 l -28 1049 "},"\\":{"ha":593,"x_min":0,"x_max":0,"o":"m 39 968 l 532 0 l 429 0 l -67 968 "},"}":{"ha":360,"x_min":0,"x_max":0,"o":"m 339 310 b 189 31 257 310 189 253 b -18 -358 189 -206 97 -319 l -62 -285 b 94 31 31 -260 94 -192 b 217 346 94 264 171 332 b 94 661 171 360 94 428 b -62 976 94 883 31 951 l -18 1050 b 189 661 97 1011 189 897 b 339 382 189 439 257 382 l 339 308 "},"∂":{"ha":864,"x_min":0,"x_max":0,"o":"m 436 576 b 624 563 485 576 557 571 b 263 968 550 713 411 844 l 401 968 b 782 314 579 813 782 604 b 429 -24 782 42 693 -24 b 82 297 188 -24 82 67 b 436 576 82 508 174 576 m 679 331 b 658 472 679 381 672 428 b 436 490 593 485 511 490 b 189 286 238 490 189 451 b 429 60 189 139 231 60 b 679 331 604 60 679 82 "},"†":{"ha":583,"x_min":0,"x_max":0,"o":"m 42 794 l 250 794 l 250 1007 l 333 1007 l 333 794 l 542 794 l 542 719 l 333 719 l 333 368 l 250 368 l 250 719 l 42 719 "},"‡":{"ha":583,"x_min":0,"x_max":0,"o":"m 42 794 l 250 794 l 250 1007 l 333 1007 l 333 794 l 542 794 l 542 719 l 333 719 l 333 539 l 542 539 l 542 464 l 333 464 l 333 251 l 250 251 l 250 464 l 42 464 l 42 539 l 250 539 l 250 719 l 42 719 "},"‚":{"ha":299,"x_min":0,"x_max":0,"o":"m 115 -221 l 32 -221 l 140 136 l 267 136 "},"„":{"ha":524,"x_min":0,"x_max":0,"o":"m 115 -221 l 32 -221 l 140 136 l 267 136 m 340 -221 l 257 -221 l 365 136 l 492 136 "},"”":{"ha":524,"x_min":0,"x_max":0,"o":"m 115 701 l 32 701 l 140 1058 l 267 1058 m 340 701 l 257 701 l 365 1058 l 492 1058 "},"“":{"ha":524,"x_min":0,"x_max":0,"o":"m 410 1058 l 493 1058 l 385 701 l 258 701 m 185 1058 l 268 1058 l 160 701 l 33 701 "},"‘":{"ha":300,"x_min":0,"x_max":0,"o":"m 185 1058 l 268 1058 l 160 701 l 33 701 "},"’":{"ha":299,"x_min":0,"x_max":0,"o":"m 115 701 l 32 701 l 140 1058 l 267 1058 "},"‹":{"ha":519,"x_min":0,"x_max":0,"o":"m 172 419 l 474 103 l 422 42 l 47 415 l 419 788 l 474 728 "},">":{"ha":864,"x_min":0,"x_max":0,"o":"m 600 494 l 156 864 l 207 925 l 718 519 l 718 472 l 210 68 l 156 128 "},"−":{"ha":864,"x_min":0,"x_max":0,"o":"m 99 539 l 764 539 l 764 456 l 99 456 "},"+":{"ha":864,"x_min":0,"x_max":0,"o":"m 99 539 l 388 539 l 388 831 l 474 831 l 474 539 l 764 539 l 764 456 l 474 456 l 474 165 l 388 165 l 388 456 l 99 456 "},"›":{"ha":519,"x_min":0,"x_max":0,"o":"m 350 411 l 49 728 l 100 789 l 475 415 l 103 43 l 49 103 "},"«":{"ha":826,"x_min":0,"x_max":0,"o":"m 172 419 l 474 103 l 422 42 l 47 415 l 419 788 l 474 728 m 478 419 l 779 103 l 728 42 l 353 415 l 725 788 l 779 728 "},"»":{"ha":826,"x_min":0,"x_max":0,"o":"m 656 411 l 354 728 l 406 789 l 781 415 l 408 43 l 354 103 m 350 411 l 49 728 l 100 789 l 475 415 l 103 43 l 49 103 "},"¦":{"ha":432,"x_min":0,"x_max":0,"o":"m 265 1049 l 265 539 l 167 539 l 167 1049 m 265 154 l 265 -356 l 167 -356 l 167 154 "},"×":{"ha":864,"x_min":0,"x_max":0,"o":"m 225 763 l 429 558 l 635 765 l 696 704 l 490 497 l 696 293 l 636 233 l 431 439 l 226 233 l 165 294 l 369 500 l 165 704 "},"Ð":{"ha":976,"x_min":0,"x_max":0,"o":"m 65 540 l 140 540 l 140 968 l 439 968 b 889 486 740 968 889 861 b 439 0 889 113 742 0 l 140 0 l 140 464 l 65 464 m 782 486 b 439 882 782 824 688 882 l 240 882 l 240 540 l 465 540 l 465 464 l 240 464 l 240 83 l 439 83 b 782 486 688 83 782 168 "},"±":{"ha":864,"x_min":0,"x_max":0,"o":"m 99 636 l 388 636 l 388 928 l 474 928 l 474 636 l 764 636 l 764 553 l 474 553 l 474 263 l 388 263 l 388 553 l 99 553 m 99 139 l 764 139 l 764 56 l 99 56 "},"≤":{"ha":864,"x_min":0,"x_max":0,"o":"m 99 139 l 764 139 l 764 56 l 99 56 m 272 571 l 696 254 l 651 189 l 154 549 l 154 590 l 649 949 l 696 885 "},"≥":{"ha":864,"x_min":0,"x_max":0,"o":"m 765 56 l 100 56 l 100 139 l 765 139 m 168 885 l 215 949 l 710 590 l 710 549 l 213 189 l 168 254 l 592 571 "},"÷":{"ha":864,"x_min":0,"x_max":0,"o":"m 99 539 l 764 539 l 764 456 l 99 456 m 435 288 b 508 219 492 288 508 279 b 435 144 508 156 492 144 b 364 219 382 144 364 156 b 435 288 364 279 382 288 m 435 846 b 508 778 492 846 508 838 b 435 703 508 713 492 703 b 364 778 382 703 364 713 b 435 846 364 838 382 846 "},"µ":{"ha":769,"x_min":0,"x_max":0,"o":"m 106 -267 l 106 701 l 196 701 l 196 324 b 397 67 196 110 240 67 b 574 92 465 67 519 74 l 574 701 l 665 701 l 665 36 b 382 -19 588 1 465 -19 b 199 21 301 -19 242 -8 l 199 -267 "},"←":{"ha":1003,"x_min":0,"x_max":0,"o":"m 211 564 l 975 564 l 975 482 l 211 482 l 567 185 l 510 115 l 28 525 l 508 931 l 567 864 "},"↑":{"ha":1003,"x_min":0,"x_max":0,"o":"m 542 813 l 542 49 l 460 49 l 460 813 l 163 457 l 93 514 l 503 996 l 908 515 l 842 457 "},"→":{"ha":1003,"x_min":0,"x_max":0,"o":"m 436 864 l 494 931 l 975 525 l 493 115 l 436 185 l 792 482 l 28 482 l 28 564 l 792 564 "},"↓":{"ha":1003,"x_min":0,"x_max":0,"o":"m 460 232 l 460 996 l 542 996 l 542 232 l 839 588 l 908 531 l 499 49 l 93 529 l 160 588 "},"ð":{"ha":864,"x_min":0,"x_max":0,"o":"m 328 749 l 431 817 b 263 968 378 869 321 919 l 401 968 b 508 868 436 938 472 904 l 613 938 l 657 869 l 565 808 b 782 314 685 676 782 515 b 429 -24 782 42 693 -24 b 82 297 188 -24 82 67 b 436 576 82 508 174 576 b 624 563 485 576 557 571 b 488 757 590 631 543 694 l 374 681 m 679 331 b 658 472 679 381 672 428 b 436 490 593 485 511 490 b 189 286 238 490 189 451 b 429 60 189 139 231 60 b 679 331 604 60 679 82 "},"`":{"ha":686,"x_min":0,"x_max":0,"o":"m 326 789 l 142 968 l 257 968 l 422 789 "},"¼":{"ha":1082,"x_min":0,"x_max":0,"o":"m 810 968 l 263 0 l 164 0 l 711 968 m 217 408 l 217 893 l 88 831 l 67 908 l 306 1011 l 306 408 m 839 515 b 639 232 760 418 693 325 l 839 232 m 925 232 l 1008 232 l 1008 156 l 925 156 l 925 0 l 839 0 l 839 156 l 524 156 l 524 182 b 801 581 608 324 708 463 l 925 581 "},"¹":{"ha":467,"x_min":0,"x_max":0,"o":"m 217 408 l 217 893 l 88 831 l 67 908 l 306 1011 l 306 408 "},"¾":{"ha":1082,"x_min":0,"x_max":0,"o":"m 890 968 l 343 0 l 244 0 l 792 968 m 839 515 b 639 232 760 418 693 325 l 839 232 m 925 232 l 1008 232 l 1008 156 l 925 156 l 925 0 l 839 0 l 839 156 l 524 156 l 524 182 b 801 581 608 324 708 463 l 925 581 m 328 707 b 465 557 438 701 465 643 b 235 386 465 428 390 386 b 57 413 175 386 107 397 l 71 483 b 236 458 118 468 172 458 b 374 567 338 458 374 479 b 217 665 374 649 338 665 l 178 665 l 178 740 l 217 740 b 360 835 326 740 360 760 b 233 919 360 904 329 919 b 78 896 151 919 119 910 l 63 967 b 235 992 110 981 168 992 b 449 850 392 992 449 944 b 328 707 449 771 431 717 "},"³":{"ha":521,"x_min":0,"x_max":0,"o":"m 324 707 b 461 557 433 701 461 643 b 231 386 461 428 386 386 b 53 413 171 386 103 397 l 67 483 b 232 458 114 468 168 458 b 369 567 333 458 369 479 b 213 665 369 649 333 665 l 174 665 l 174 740 l 213 740 b 356 835 322 740 356 760 b 229 919 356 904 325 919 b 74 896 147 919 115 910 l 58 967 b 231 992 106 981 164 992 b 444 850 388 992 444 944 b 324 707 444 771 426 717 "},"²":{"ha":528,"x_min":0,"x_max":0,"o":"m 472 474 l 472 397 l 49 397 b 272 694 68 596 143 650 b 379 825 360 724 379 769 b 233 910 379 888 336 910 b 89 888 186 910 115 901 l 74 969 b 235 992 124 982 182 992 b 471 825 406 992 471 943 b 314 626 471 733 428 669 b 150 474 219 590 161 563 "},"∞":{"ha":1072,"x_min":0,"x_max":0,"o":"m 496 486 b 303 675 496 621 439 675 b 131 486 181 675 131 629 b 303 297 131 343 181 297 b 496 486 439 297 496 353 m 576 488 b 769 299 576 353 633 299 b 942 488 892 299 942 344 b 769 676 942 631 892 676 b 576 488 633 676 576 621 m 536 382 b 290 207 521 229 411 207 b 42 486 126 207 42 286 b 290 767 42 686 126 767 b 536 592 411 767 521 743 b 782 767 551 744 661 767 b 1031 488 946 767 1031 688 b 782 207 1031 288 946 207 b 536 382 661 207 551 231 "},"∏":{"ha":992,"x_min":0,"x_max":0,"o":"m 240 0 l 140 0 l 140 968 l 853 968 l 853 0 l 754 0 l 754 885 l 240 885 "},"π":{"ha":831,"x_min":0,"x_max":0,"o":"m 42 701 l 789 701 l 789 618 l 671 618 l 671 0 l 581 0 l 581 618 l 247 618 l 247 206 b 118 -24 247 61 192 0 l 79 56 b 157 206 122 71 157 111 l 157 618 l 42 618 "},"∫":{"ha":493,"x_min":0,"x_max":0,"o":"m 469 897 b 335 915 435 908 375 915 b 196 767 269 915 196 904 l 196 -39 b -33 -282 196 -244 82 -282 b -196 -251 -86 -282 -150 -271 l -168 -167 b -33 -199 -133 -185 -74 -199 b 106 -39 32 -199 106 -178 l 106 767 b 335 999 106 971 219 999 b 493 976 388 999 447 990 l 469 897 "},"ª":{"ha":565,"x_min":0,"x_max":0,"o":"m 482 513 b 283 474 428 489 346 474 b 83 639 142 474 83 508 b 278 801 83 779 169 801 b 418 786 331 801 368 797 b 274 932 418 907 382 932 b 132 908 226 932 171 925 l 114 968 b 278 992 151 978 211 992 b 482 801 421 992 482 954 m 418 732 b 286 744 382 742 335 744 b 156 644 207 744 156 735 b 286 531 156 563 185 531 b 418 553 333 531 381 540 "},"º":{"ha":613,"x_min":0,"x_max":0,"o":"m 306 474 b 83 735 153 474 83 533 b 306 992 83 936 154 992 b 529 735 458 992 529 936 b 306 474 529 533 460 474 m 306 918 b 167 733 196 918 167 890 b 306 547 167 586 196 547 b 446 733 415 547 446 586 b 306 918 446 890 415 918 "},"Ω":{"ha":1078,"x_min":0,"x_max":0,"o":"m 1036 0 l 642 0 l 642 83 b 849 542 804 136 849 322 b 539 907 849 826 760 907 b 231 542 321 907 231 826 b 436 83 231 322 275 136 l 436 0 l 42 0 l 42 83 l 297 83 b 128 544 176 163 128 321 b 539 992 128 889 267 992 b 951 544 813 992 951 889 b 781 83 951 321 903 164 l 1036 83 "},"¿":{"ha":647,"x_min":0,"x_max":0,"o":"m 358 578 b 285 646 301 578 285 586 b 358 721 285 710 301 721 b 429 646 411 721 429 710 b 358 578 429 586 411 578 m 411 446 b 171 -7 246 289 171 153 b 374 -181 171 -115 210 -181 b 564 -147 432 -181 515 -169 l 592 -236 b 374 -271 540 -256 432 -271 b 65 -15 157 -271 65 -179 b 299 446 65 149 126 279 "},"¡":{"ha":460,"x_min":0,"x_max":0,"o":"m 167 -247 l 197 446 l 267 446 l 297 -247 m 232 578 b 158 646 176 578 158 586 b 232 721 158 710 176 721 b 304 646 285 721 304 710 b 232 578 304 586 285 578 "},"√":{"ha":753,"x_min":0,"x_max":0,"o":"m 0 701 l 178 701 b 393 86 253 526 333 294 b 700 968 478 290 643 764 l 799 968 b 453 0 728 733 551 235 l 325 0 b 114 618 265 204 192 433 l 0 618 "},"ƒ":{"ha":493,"x_min":0,"x_max":0,"o":"m 304 701 l 554 701 l 536 619 l 286 619 l 147 -39 b -132 -282 103 -244 -17 -282 b -289 -251 -185 -282 -247 -271 l -243 -167 b -115 -199 -212 -185 -156 -199 b 57 -39 -50 -199 26 -178 l 196 619 l 72 619 l 90 701 l 214 701 l 228 767 b 504 999 271 971 389 999 b 658 976 557 999 615 990 l 618 897 b 488 915 586 908 528 915 b 318 767 422 915 347 904 "},"≈":{"ha":864,"x_min":0,"x_max":0,"o":"m 769 649 b 589 508 736 560 672 508 b 249 632 503 508 326 632 b 154 542 215 632 182 608 l 96 593 b 261 715 143 674 188 715 b 600 596 353 715 525 596 b 704 697 642 596 676 621 m 769 390 b 589 250 736 301 672 250 b 249 374 503 250 326 374 b 154 283 215 374 182 350 l 96 335 b 261 457 143 415 188 457 b 600 338 353 457 525 338 b 704 439 642 338 676 363 "},"~":{"ha":864,"x_min":0,"x_max":0,"o":"m 769 542 b 589 401 736 453 672 401 b 249 525 503 401 326 525 b 154 435 215 525 182 501 l 96 486 b 261 608 143 567 188 608 b 600 489 353 608 525 489 b 704 590 642 489 676 514 "},"Δ":{"ha":888,"x_min":0,"x_max":0,"o":"m 10 0 b 375 968 117 324 235 644 l 507 968 b 871 0 610 643 749 268 m 436 892 b 136 83 318 617 224 356 l 722 83 b 436 892 624 326 519 615 "},"◊":{"ha":700,"x_min":0,"x_max":0,"o":"m 658 388 b 444 -200 575 174 517 18 l 274 -200 b 42 388 181 24 122 165 b 274 975 122 610 181 751 l 444 975 b 658 388 517 757 575 601 m 549 389 b 375 897 489 553 429 728 l 335 897 b 138 389 265 725 199 557 b 335 -122 199 221 265 50 l 375 -122 b 549 389 429 47 489 225 "},"ﬄ":{"ha":1211,"x_min":0,"x_max":0,"o":"m 1099 181 b 1165 29 1099 113 1114 81 l 1094 -29 b 1008 175 1038 26 1008 72 l 1008 894 b 857 915 961 908 911 915 b 665 756 744 915 665 894 l 665 701 l 915 701 l 915 618 l 665 618 l 665 0 l 575 0 l 575 618 l 232 618 l 232 0 l 142 0 l 142 618 l 18 618 l 18 701 l 142 701 l 142 756 b 424 999 142 961 278 999 b 658 953 506 999 586 983 b 857 999 711 989 783 999 b 1099 951 940 999 1021 983 m 575 756 b 601 885 575 810 585 851 b 424 915 546 904 488 915 b 232 756 311 915 232 894 l 232 701 l 575 701 l 575 756 "},"Š":{"ha":867,"x_min":0,"x_max":0,"o":"m 715 864 b 478 901 671 886 557 901 b 196 711 306 901 196 861 b 442 544 196 614 250 558 b 776 264 674 526 776 443 b 383 -19 776 58 619 -19 b 108 19 297 -19 183 -4 l 136 108 b 382 72 196 86 306 72 b 671 263 553 72 671 113 b 426 450 671 358 618 436 b 89 708 194 467 89 531 b 476 992 89 915 240 992 b 743 954 561 992 668 976 l 715 864 m 451 1092 l 564 1217 l 669 1217 l 500 1038 l 400 1038 l 225 1217 l 335 1217 l 451 1092 "},"š":{"ha":700,"x_min":0,"x_max":0,"o":"m 561 599 b 361 638 504 621 429 638 b 182 511 242 638 182 621 b 357 403 182 442 231 411 b 617 201 539 390 617 332 b 346 -19 617 35 532 -19 b 93 18 276 -19 163 -6 l 121 103 b 346 63 169 81 274 63 b 518 193 460 63 518 82 b 346 315 518 268 481 304 b 83 503 176 328 83 371 b 361 721 83 668 179 721 b 592 685 429 721 513 707 l 561 599 m 356 849 l 465 968 l 574 968 l 404 789 l 304 789 l 129 968 l 243 968 "}," ":{"ha":397,"x_min":0,"x_max":0,"o":""},"℮":{"ha":958,"x_min":0,"x_max":0,"o":"m 196 469 b 532 72 199 146 290 72 b 769 108 607 72 711 86 l 801 19 b 531 -19 726 -4 617 -19 b 88 489 229 -19 88 101 b 499 992 88 883 240 992 b 897 469 758 992 897 876 m 499 907 b 197 553 310 907 208 850 l 790 553 b 499 907 785 843 689 907 "},"‰":{"ha":1679,"x_min":0,"x_max":0,"o":"m 919 968 l 372 0 l 274 0 l 821 968 m 283 385 b 69 693 144 385 69 454 b 283 992 69 931 144 992 b 497 693 424 992 497 931 b 283 385 497 454 424 385 m 283 918 b 154 690 193 918 154 879 b 283 457 154 513 193 457 b 413 690 378 457 413 513 b 283 918 413 879 378 918 m 914 -19 b 700 289 775 -19 700 50 b 914 588 700 526 775 588 b 1128 289 1054 588 1128 526 b 914 -19 1128 50 1054 -19 m 914 514 b 785 286 824 514 785 475 b 914 53 785 108 824 53 b 1043 286 1008 53 1043 108 b 914 514 1043 475 1008 514 m 1396 -19 b 1182 289 1257 -19 1182 50 b 1396 588 1182 526 1257 588 b 1610 289 1536 588 1610 526 b 1396 -19 1610 50 1536 -19 m 1396 514 b 1267 286 1306 514 1267 475 b 1396 53 1267 108 1306 53 b 1525 286 1490 53 1525 108 b 1396 514 1525 475 1490 514 "},"@":{"ha":1294,"x_min":0,"x_max":0,"o":"m 619 600 b 829 583 690 600 782 593 b 585 789 826 747 758 789 b 190 365 289 789 190 722 b 646 -53 190 28 299 -53 b 1108 403 993 -53 1108 44 b 1075 701 1108 563 1096 643 l 1176 701 b 1207 400 1197 638 1207 557 b 646 -140 1207 -19 1031 -140 b 88 368 263 -140 88 -32 b 571 874 88 765 250 874 b 921 501 807 874 921 829 b 638 133 921 189 840 133 b 351 369 436 133 351 182 b 619 600 351 574 442 600 m 647 519 b 453 374 497 519 453 503 b 640 215 453 247 497 215 b 829 433 785 215 829 258 l 829 507 b 647 519 781 515 700 519 "},"°":{"ha":567,"x_min":0,"x_max":0,"o":"m 283 385 b 69 693 144 385 69 454 b 283 992 69 931 144 992 b 497 693 424 992 497 931 b 283 385 497 454 424 385 m 283 918 b 154 690 193 918 154 879 b 283 457 154 513 193 457 b 413 690 378 457 413 513 b 283 918 413 879 378 918 "},"/":{"ha":593,"x_min":0,"x_max":0,"o":"m 657 968 l 161 0 l 58 0 l 551 968 "},"&":{"ha":1053,"x_min":0,"x_max":0,"o":"m 996 557 b 874 218 996 439 950 318 b 1013 0 918 156 961 83 l 900 0 b 811 144 872 51 840 100 b 432 -19 692 29 615 -19 b 88 257 207 -19 88 42 b 338 515 88 389 153 507 b 156 749 164 531 156 633 b 460 992 156 904 246 992 b 765 756 674 992 765 911 b 560 518 765 640 733 533 b 821 290 629 510 697 465 b 903 557 872 368 903 460 l 996 557 m 432 65 b 763 217 594 65 658 103 b 446 478 651 381 560 478 b 194 269 276 478 194 422 b 432 65 194 122 249 65 m 449 560 b 664 742 588 560 664 613 b 460 907 664 858 608 907 b 258 743 311 907 258 860 b 449 560 258 614 311 560 "},"А":{"ha":928,"x_min":0,"x_max":0,"o":"m 806 0 b 689 299 768 93 728 193 l 217 299 b 117 0 182 200 149 101 l 18 0 b 383 968 129 324 249 644 l 554 968 b 918 0 664 642 801 268 l 806 0 m 444 890 b 247 382 375 718 308 550 l 658 382 b 485 890 599 546 539 721 "},"В":{"ha":957,"x_min":0,"x_max":0,"o":"m 619 83 b 756 275 722 83 756 163 b 614 478 756 392 714 478 l 240 478 l 240 83 l 619 83 m 606 560 b 733 726 706 560 733 640 b 606 885 733 824 707 885 l 240 885 l 240 560 l 606 560 m 644 521 b 863 274 828 513 863 406 b 621 0 863 93 776 0 l 140 0 l 140 968 l 606 968 b 836 739 799 968 836 860 b 644 521 836 624 817 536 "},"Е":{"ha":847,"x_min":0,"x_max":0,"o":"m 803 968 l 803 885 l 240 885 l 240 560 l 639 560 l 639 476 l 240 476 l 240 83 l 803 83 l 803 0 l 140 0 l 140 968 "},"К":{"ha":857,"x_min":0,"x_max":0,"o":"m 729 0 b 240 476 556 399 451 463 l 240 0 l 140 0 l 140 968 l 240 968 l 240 497 b 699 968 331 564 518 744 l 831 968 b 401 532 617 718 461 572 b 849 0 539 496 638 454 "},"М":{"ha":1207,"x_min":0,"x_max":0,"o":"m 607 242 b 928 968 700 485 810 728 l 1068 968 l 1068 0 l 968 0 l 968 857 b 638 106 850 601 740 350 l 564 106 b 238 857 460 356 351 607 l 238 0 l 140 0 l 140 968 l 290 968 b 607 242 406 726 513 483 "},"Н":{"ha":992,"x_min":0,"x_max":0,"o":"m 240 0 l 140 0 l 140 968 l 240 968 l 240 564 l 754 564 l 754 968 l 853 968 l 853 0 l 754 0 l 754 474 l 240 474 "},"О":{"ha":1054,"x_min":0,"x_max":0,"o":"m 526 -19 b 88 489 225 -19 88 89 b 526 992 88 883 226 992 b 967 489 828 992 967 883 b 526 -19 967 89 829 -19 m 526 907 b 196 486 281 907 196 842 b 526 68 196 149 281 68 b 861 486 775 68 861 149 b 526 907 861 842 775 907 "},"Р":{"ha":903,"x_min":0,"x_max":0,"o":"m 571 444 b 736 656 685 444 736 532 b 578 885 736 799 682 885 l 240 885 l 240 444 m 140 0 l 140 968 l 572 968 b 847 654 788 968 847 821 b 579 356 847 503 779 356 l 240 356 l 240 0 "},"С":{"ha":836,"x_min":0,"x_max":0,"o":"m 88 493 b 531 992 88 889 231 992 b 801 954 617 992 726 976 l 769 864 b 532 901 711 888 607 901 b 196 493 288 901 196 849 b 532 72 196 139 288 72 b 769 108 607 72 711 86 l 801 19 b 531 -19 726 -4 617 -19 b 88 493 231 -19 88 99 "},"Т":{"ha":789,"x_min":0,"x_max":0,"o":"m 446 0 l 344 0 l 344 885 l 8 885 l 8 968 l 781 968 l 781 885 l 446 885 "},"Х":{"ha":900,"x_min":0,"x_max":0,"o":"m 868 968 b 518 496 754 810 638 653 b 882 0 640 332 765 164 l 761 0 b 457 415 661 139 560 276 b 135 0 349 274 240 135 l 18 0 b 399 490 147 163 275 328 b 29 968 278 649 154 808 l 150 968 b 458 572 247 846 351 713 b 751 968 558 704 656 836 "},"Я":{"ha":938,"x_min":0,"x_max":0,"o":"m 797 968 l 797 0 l 697 0 l 697 419 l 514 419 b 165 0 388 419 290 369 l 47 0 b 369 438 190 353 253 414 b 90 688 157 438 90 551 b 365 968 90 836 150 968 m 365 885 b 201 689 260 885 201 815 b 372 507 201 578 258 507 l 697 507 l 697 885 "},"И":{"ha":1014,"x_min":0,"x_max":0,"o":"m 240 106 b 754 968 426 393 601 685 l 874 968 l 874 0 l 775 0 l 775 824 b 276 0 622 547 449 256 l 140 0 l 140 968 l 240 968 "},"о":{"ha":813,"x_min":0,"x_max":0,"o":"m 406 -19 b 88 354 188 -19 88 67 b 406 721 88 640 189 721 b 725 354 624 721 725 640 b 406 -19 725 67 625 -19 m 406 635 b 188 351 242 635 188 590 b 406 67 188 124 242 67 b 625 351 571 67 625 124 b 406 635 625 590 571 635 "},"р":{"ha":794,"x_min":0,"x_max":0,"o":"m 389 -19 b 196 39 289 -19 231 11 l 196 -267 l 106 -267 l 106 665 b 389 721 182 700 304 721 b 707 354 606 721 707 640 b 389 -19 707 67 607 -19 m 389 635 b 196 606 321 635 250 625 l 196 167 b 389 67 196 101 285 67 b 607 351 553 67 607 124 b 389 635 607 590 553 635 "},"с":{"ha":647,"x_min":0,"x_max":0,"o":"m 626 19 b 426 -19 574 -4 486 -19 b 88 354 208 -19 88 67 b 426 721 88 640 210 721 b 626 686 485 721 576 706 l 597 601 b 426 635 547 625 485 635 b 188 351 263 635 188 590 b 426 67 188 124 263 67 b 597 103 486 67 547 81 "},"у":{"ha":707,"x_min":0,"x_max":0,"o":"m 293 -33 b 35 701 222 217 128 510 l 136 701 b 353 81 211 532 293 289 b 574 701 438 285 518 500 l 672 701 b 411 0 601 467 510 233 b 285 -267 375 -87 324 -194 l 179 -267 b 293 -33 215 -200 258 -110 "},"х":{"ha":725,"x_min":0,"x_max":0,"o":"m 567 0 b 376 282 511 89 446 186 b 154 0 304 186 229 93 l 43 0 b 325 351 142 114 238 235 b 43 701 235 474 136 594 l 168 701 b 379 426 235 618 308 525 b 568 701 451 524 514 618 l 678 701 b 432 356 600 586 518 471 b 679 0 517 242 600 119 "},"Ѕ":{"ha":867,"x_min":0,"x_max":0,"o":"m 715 864 b 478 901 671 886 557 901 b 196 711 306 901 196 861 b 442 544 196 614 250 558 b 776 264 674 526 776 443 b 383 -19 776 58 619 -19 b 108 19 297 -19 183 -4 l 136 108 b 382 72 196 86 306 72 b 671 263 553 72 671 113 b 426 450 671 358 618 436 b 89 708 194 467 89 531 b 476 992 89 915 240 992 b 743 954 561 992 668 976 l 715 864 "},"Б":{"ha":957,"x_min":0,"x_max":0,"o":"m 619 83 b 756 275 722 83 756 163 b 614 478 756 392 714 478 l 240 478 l 240 83 l 619 83 m 758 885 l 240 885 l 240 560 l 606 560 b 863 274 811 560 863 442 b 621 0 863 93 776 0 l 140 0 l 140 968 l 758 968 "},"Г":{"ha":740,"x_min":0,"x_max":0,"o":"m 140 0 l 140 968 l 740 968 l 740 885 l 240 885 l 240 0 "},"Ж":{"ha":1182,"x_min":0,"x_max":0,"o":"m 8 0 b 403 532 194 454 282 496 b 24 968 350 572 213 718 l 143 968 b 540 507 297 751 457 578 l 540 968 l 640 968 l 640 507 b 1039 968 722 576 883 751 l 1158 968 b 779 532 969 718 832 572 b 1174 0 900 496 988 454 l 1065 0 b 640 479 915 394 824 465 l 640 0 l 540 0 l 540 479 b 117 0 357 464 265 393 "},"З":{"ha":883,"x_min":0,"x_max":0,"o":"m 564 521 b 789 267 747 513 789 399 b 396 -19 789 51 656 -19 b 86 21 297 -19 169 0 l 110 101 b 396 65 188 78 303 65 b 682 269 613 65 682 122 b 426 478 682 422 614 478 l 288 478 l 288 560 l 426 560 b 660 743 607 560 660 614 b 396 907 660 860 613 907 b 121 871 304 907 189 893 l 96 954 b 396 992 174 971 285 992 b 763 756 667 992 763 911 b 564 521 763 640 736 536 "},"П":{"ha":992,"x_min":0,"x_max":0,"o":"m 240 0 l 140 0 l 140 968 l 853 968 l 853 0 l 754 0 l 754 885 l 240 885 "},"Л":{"ha":992,"x_min":0,"x_max":0,"o":"m 346 885 b 165 0 331 615 258 267 l 58 0 b 254 968 153 288 239 615 l 853 968 l 853 0 l 754 0 l 754 885 "},"Д":{"ha":1060,"x_min":0,"x_max":0,"o":"m 783 885 l 400 885 b 260 83 385 615 346 326 l 783 83 m 1060 83 l 1032 -214 l 947 -214 l 947 0 l 114 0 l 114 -214 l 28 -214 l 0 83 l 143 83 b 308 968 244 322 293 615 l 882 968 l 882 83 "},"І":{"ha":379,"x_min":0,"x_max":0,"o":"m 240 968 l 240 0 l 140 0 l 140 968 "},"ј":{"ha":301,"x_min":0,"x_max":0,"o":"m 153 968 b 210 914 196 968 210 961 b 153 854 210 863 196 854 b 94 914 108 854 94 863 b 153 968 94 961 108 968 m -33 -199 b 106 -39 58 -199 106 -178 l 106 701 l 196 701 l 196 -39 b -33 -282 196 -244 97 -282 "},"Й":{"ha":1014,"x_min":0,"x_max":0,"o":"m 240 968 l 140 968 l 140 0 l 276 0 b 775 824 449 256 622 547 l 775 0 l 874 0 l 874 968 l 754 968 b 240 106 601 685 426 393 m 404 1210 b 514 1114 404 1132 440 1114 b 625 1210 586 1114 625 1132 l 697 1210 b 513 1035 697 1089 636 1035 b 329 1210 392 1035 329 1089 "},"У":{"ha":774,"x_min":0,"x_max":0,"o":"m 297 0 l 178 0 b 333 236 228 67 289 157 b -7 968 276 417 110 776 l 107 968 b 396 342 201 799 322 550 b 676 968 500 549 615 789 l 781 968 b 297 0 654 646 458 253 "},"Ф":{"ha":1029,"x_min":0,"x_max":0,"o":"m 550 968 l 550 828 b 953 486 868 818 953 707 b 550 143 953 265 868 153 l 550 0 l 450 0 l 450 143 b 56 486 139 154 56 268 b 450 828 56 706 139 817 l 450 968 m 856 485 b 550 743 856 661 814 736 l 550 228 b 856 485 814 236 856 314 m 153 485 b 450 228 153 315 193 238 l 450 743 b 153 485 193 733 153 658 "},"Ц":{"ha":1031,"x_min":0,"x_max":0,"o":"m 240 83 l 754 83 l 754 968 l 853 968 l 853 83 l 1031 83 l 1003 -214 l 918 -214 l 918 0 l 140 0 l 140 968 l 240 968 "},"Щ":{"ha":1294,"x_min":0,"x_max":0,"o":"m 679 968 l 679 83 l 1018 83 l 1018 968 l 1117 968 l 1117 83 l 1294 83 l 1267 -214 l 1182 -214 l 1182 0 l 140 0 l 140 968 l 240 968 l 240 83 l 579 83 l 579 968 "},"Ш":{"ha":1257,"x_min":0,"x_max":0,"o":"m 679 968 l 679 83 l 1018 83 l 1018 968 l 1117 968 l 1117 0 l 140 0 l 140 968 l 240 968 l 240 83 l 579 83 l 579 968 "},"Ь":{"ha":918,"x_min":0,"x_max":0,"o":"m 619 83 b 756 275 722 83 756 163 b 614 478 756 392 714 478 l 240 478 l 240 83 m 240 968 l 240 560 l 606 560 b 863 274 811 560 863 442 b 621 0 863 93 776 0 l 140 0 l 140 968 "},"Ы":{"ha":1206,"x_min":0,"x_max":0,"o":"m 619 83 b 756 275 722 83 756 163 b 614 478 756 392 714 478 l 240 478 l 240 83 m 240 968 l 240 560 l 606 560 b 863 274 811 560 863 442 b 621 0 863 93 776 0 l 140 0 l 140 968 m 1065 968 l 1065 0 l 965 0 l 965 968 "},"Ъ":{"ha":943,"x_min":0,"x_max":0,"o":"m 265 968 l 265 560 l 631 560 b 888 274 836 560 888 442 b 646 0 888 93 801 0 l 165 0 l 165 885 l 21 885 l 21 968 m 644 83 b 781 275 747 83 781 163 b 639 478 781 392 739 478 l 265 478 l 265 83 "},"Ю":{"ha":1281,"x_min":0,"x_max":0,"o":"m 240 0 l 140 0 l 140 968 l 240 968 l 240 564 l 508 564 b 850 992 521 900 633 992 b 1193 497 1082 992 1193 889 b 850 -19 1193 101 1083 -19 b 507 474 624 -19 511 96 l 240 474 m 849 911 b 608 497 676 911 608 853 b 849 67 608 160 676 67 b 1092 497 1025 67 1092 160 b 849 911 1092 853 1025 911 "},"Э":{"ha":846,"x_min":0,"x_max":0,"o":"m 169 478 l 169 560 l 649 560 b 314 901 636 856 542 901 b 76 864 239 901 135 888 l 44 954 b 315 992 119 976 229 992 b 758 493 615 992 758 889 b 315 -19 758 99 615 -19 b 44 19 229 -19 119 -4 l 76 108 b 314 72 135 86 239 72 b 650 478 554 72 647 138 "},"Ч":{"ha":835,"x_min":0,"x_max":0,"o":"m 356 282 b 0 607 132 282 0 331 l 0 968 l 100 968 l 100 625 b 358 375 100 411 181 375 b 594 474 481 375 594 410 l 594 968 l 694 968 l 694 0 l 594 0 l 594 339 b 356 282 560 311 461 282 "},"і":{"ha":301,"x_min":0,"x_max":0,"o":"m 196 701 l 106 701 l 106 0 l 196 0 m 153 968 b 210 914 196 968 210 961 b 153 854 210 863 196 854 b 94 914 108 854 94 863 b 153 968 94 961 108 968 "},"Є":{"ha":846,"x_min":0,"x_max":0,"o":"m 196 478 b 532 72 199 138 292 72 b 769 108 607 72 711 86 l 801 19 b 531 -19 726 -4 617 -19 b 88 493 231 -19 88 99 b 531 992 88 889 231 992 b 801 954 617 992 726 976 l 769 864 b 532 901 711 888 607 901 b 197 560 304 901 210 856 l 676 560 l 676 478 "},"Ѓ":{"ha":758,"x_min":0,"x_max":0,"o":"m 240 0 l 240 885 l 740 885 l 740 968 l 140 968 l 140 0 m 518 1217 l 646 1217 l 425 1038 l 332 1038 "},"Ђ":{"ha":1010,"x_min":0,"x_max":0,"o":"m 624 -164 b 825 315 715 -126 825 -65 b 640 635 825 592 781 635 b 446 540 543 635 450 601 l 446 0 l 344 0 l 344 885 l 8 885 l 8 968 l 781 968 l 781 885 l 446 885 l 446 664 b 650 721 481 692 561 721 b 922 315 840 721 922 651 b 669 -236 922 -75 774 -190 "},"ђ":{"ha":760,"x_min":0,"x_max":0,"o":"m 196 664 b 400 721 231 692 311 721 b 672 315 590 721 672 651 b 419 -236 672 -75 524 -190 l 374 -164 b 575 315 465 -126 575 -65 b 390 635 575 592 531 635 b 196 540 293 635 200 601 l 196 0 l 106 0 l 106 826 l 17 826 l 17 899 l 106 899 l 106 1003 l 196 1003 l 196 899 l 365 899 l 365 826 l 196 826 "},"Ј":{"ha":611,"x_min":0,"x_max":0,"o":"m 471 267 b 207 -19 471 28 342 -19 b 18 22 146 -19 69 0 l 51 115 b 207 79 92 94 161 79 b 368 267 282 79 368 106 l 368 968 l 471 968 "},"є":{"ha":672,"x_min":0,"x_max":0,"o":"m 626 19 b 426 -19 574 -4 486 -19 b 88 354 208 -19 88 67 b 426 721 88 640 210 721 b 626 686 485 721 576 706 l 597 601 b 426 635 547 625 485 635 b 190 424 281 635 204 599 l 513 424 l 513 340 l 188 340 b 426 67 190 121 265 67 b 597 103 486 67 547 81 "},"Ї":{"ha":379,"x_min":0,"x_max":0,"o":"m 140 968 l 140 0 l 240 0 l 240 968 m 58 1176 b 115 1122 101 1176 115 1169 b 58 1063 115 1071 101 1063 b 0 1122 14 1063 0 1071 b 58 1176 0 1169 14 1176 m 321 1176 b 378 1122 364 1176 378 1169 b 321 1063 378 1071 364 1063 b 263 1122 276 1063 263 1071 b 321 1176 263 1169 276 1176 "},"ї":{"ha":301,"x_min":0,"x_max":0,"o":"m 196 0 l 106 0 l 106 701 l 196 701 m 19 913 b 76 858 63 913 76 906 b 19 799 76 807 63 799 b -39 858 -25 799 -39 807 b 19 913 -39 906 -25 913 m 282 913 b 339 858 325 913 339 906 b 282 799 339 807 325 799 b 224 858 238 799 224 807 b 282 913 224 906 238 913 "},"Љ":{"ha":1419,"x_min":0,"x_max":0,"o":"m 797 968 l 797 560 l 1107 560 b 1364 274 1313 560 1364 442 b 1122 0 1364 93 1278 0 l 697 0 l 697 885 l 346 885 b 165 0 331 615 258 267 l 58 0 b 254 968 153 288 239 615 m 1121 83 b 1257 275 1224 83 1257 163 b 1115 478 1257 392 1215 478 l 797 478 l 797 83 "},"Њ":{"ha":1419,"x_min":0,"x_max":0,"o":"m 797 968 l 797 560 l 1107 560 b 1364 274 1313 560 1364 442 b 1122 0 1364 93 1278 0 l 699 0 l 699 478 l 240 478 l 240 0 l 140 0 l 140 968 l 240 968 l 240 560 l 699 560 l 699 968 m 1121 83 b 1257 275 1224 83 1257 163 b 1115 478 1257 392 1215 478 l 797 478 l 797 83 "},"ё":{"ha":758,"x_min":0,"x_max":0,"o":"m 403 721 b 689 342 601 721 689 640 l 188 342 b 424 65 189 114 261 65 b 625 103 474 65 565 81 l 646 19 b 415 -19 574 -3 474 -19 b 88 354 203 -19 88 67 b 403 721 88 629 194 721 m 403 636 b 189 424 256 636 200 589 l 586 424 b 403 636 578 599 532 636 m 271 913 b 328 858 314 913 328 906 b 271 799 328 807 314 799 b 213 858 226 799 213 807 b 271 913 213 906 226 913 m 533 913 b 590 858 576 913 590 906 b 533 799 590 807 576 799 b 475 858 489 799 475 807 b 533 913 475 906 489 913 "},"Ё":{"ha":847,"x_min":0,"x_max":0,"o":"m 140 968 l 140 0 l 803 0 l 803 83 l 240 83 l 240 476 l 639 476 l 639 560 l 240 560 l 240 885 l 803 885 l 803 968 m 333 1176 b 390 1122 376 1176 390 1169 b 333 1063 390 1071 376 1063 b 275 1122 289 1063 275 1071 b 333 1176 275 1169 289 1176 m 596 1176 b 653 1122 639 1176 653 1169 b 596 1063 653 1071 639 1063 b 538 1122 551 1063 538 1071 b 596 1176 538 1169 551 1176 "},"к":{"ha":664,"x_min":0,"x_max":0,"o":"m 553 0 b 196 343 397 276 290 328 l 196 0 l 106 0 l 106 701 l 196 701 l 196 364 b 525 701 257 415 382 543 l 642 701 b 329 382 478 519 374 411 b 664 0 406 353 475 322 "},"б":{"ha":783,"x_min":0,"x_max":0,"o":"m 653 910 b 406 854 588 878 503 864 b 182 594 228 838 204 767 b 403 693 221 653 286 693 b 696 333 596 693 696 607 b 378 -19 696 61 594 -19 b 88 389 185 -19 88 83 b 406 940 88 840 183 919 b 653 997 492 949 576 961 m 185 336 b 378 67 185 147 251 67 b 596 336 542 67 596 111 b 400 607 596 550 542 607 b 185 336 226 607 185 543 "},"в":{"ha":765,"x_min":0,"x_max":0,"o":"m 474 83 b 582 201 556 83 582 121 b 469 338 582 286 549 338 l 196 338 l 196 83 l 474 83 m 463 417 b 565 522 543 417 565 461 b 463 618 565 593 543 618 l 196 618 l 196 417 l 463 417 m 522 379 b 682 199 647 375 682 293 b 489 0 682 67 613 0 l 106 0 l 106 701 l 476 701 b 661 535 631 701 661 622 b 522 379 661 451 643 389 "},"ж":{"ha":940,"x_min":0,"x_max":0,"o":"m 0 0 b 308 379 171 322 239 350 b 21 701 268 408 169 519 l 131 701 b 425 367 257 546 368 421 l 425 701 l 515 701 l 515 367 b 810 701 571 421 683 546 l 919 701 b 632 379 771 519 672 408 b 940 0 701 350 769 322 l 835 0 b 515 342 696 272 600 326 l 515 0 l 425 0 l 425 342 b 106 0 339 326 244 272 "},"з":{"ha":694,"x_min":0,"x_max":0,"o":"m 415 376 b 607 190 565 369 607 286 b 285 -19 607 32 496 -19 b 56 10 204 -19 115 -10 l 82 92 b 285 64 140 71 208 64 b 511 206 461 64 511 100 b 297 342 511 304 450 342 l 193 342 l 193 421 l 297 421 b 493 531 436 421 493 444 b 285 638 493 607 444 638 b 89 610 210 638 142 629 l 64 693 b 285 721 121 710 217 721 b 586 549 499 721 586 663 b 415 376 586 464 556 388 "},"ф":{"ha":1176,"x_min":0,"x_max":0,"o":"m 543 39 b 378 -19 508 11 450 -19 b 88 354 188 -19 88 67 b 378 721 88 640 189 721 b 543 696 433 721 478 711 l 543 968 l 633 968 l 633 696 b 799 721 697 711 742 721 b 1089 354 988 721 1089 640 b 799 -19 1089 67 989 -19 b 633 39 726 -19 668 11 l 633 -267 l 543 -267 m 799 635 b 633 606 731 635 688 625 l 633 161 b 799 67 638 99 711 67 b 989 351 935 67 989 124 b 799 635 989 590 935 635 m 378 635 b 188 351 242 635 188 590 b 378 67 188 124 242 67 b 543 167 468 67 543 101 l 543 606 b 378 635 489 625 446 635 "},"ь":{"ha":758,"x_min":0,"x_max":0,"o":"m 467 83 b 582 217 549 83 582 117 b 467 342 582 311 546 342 l 196 342 l 196 83 l 467 83 m 467 421 b 682 218 619 421 682 356 b 467 0 682 67 619 0 l 106 0 l 106 701 l 196 701 l 196 421 "},"э":{"ha":672,"x_min":0,"x_max":0,"o":"m 75 103 b 246 67 125 81 186 67 b 485 340 407 67 482 121 l 160 340 l 160 424 l 482 424 b 246 635 468 599 392 635 b 75 601 188 635 125 625 l 46 686 b 246 721 96 706 188 721 b 585 354 463 721 585 640 b 246 -19 585 67 464 -19 b 46 19 186 -19 99 -4 "},"г":{"ha":556,"x_min":0,"x_max":0,"o":"m 551 701 l 551 618 l 196 618 l 196 0 l 106 0 l 106 701 "},"ѓ":{"ha":556,"x_min":0,"x_max":0,"o":"m 551 701 l 551 619 l 196 619 l 196 0 l 106 0 l 106 701 m 250 789 l 415 968 l 531 968 l 346 789 "},"Ў":{"ha":694,"x_min":0,"x_max":0,"o":"m 332 233 b 176 -3 288 157 226 64 l 297 0 b 781 968 458 253 654 646 l 676 968 b 396 342 615 789 500 549 b 107 968 322 550 201 799 l -7 968 b 332 236 110 776 275 417 m 301 1210 b 411 1114 301 1132 338 1114 b 522 1210 483 1114 522 1132 l 594 1210 b 410 1035 594 1089 533 1035 b 226 1210 289 1035 226 1089 "},"ў":{"ha":707,"x_min":0,"x_max":0,"o":"m 293 -33 b 179 -267 258 -110 215 -200 l 285 -267 b 411 0 324 -194 375 -87 b 672 701 510 233 601 467 l 574 701 b 353 81 518 500 438 285 b 136 701 293 289 211 532 l 35 701 b 293 -33 128 510 222 217 m 249 975 b 358 879 249 897 285 879 b 469 975 431 879 469 897 l 542 975 b 357 800 542 854 481 800 b 174 975 236 800 174 854 "},"Ќ":{"ha":857,"x_min":0,"x_max":0,"o":"m 849 0 b 401 532 638 454 539 496 b 831 968 461 572 617 718 l 699 968 b 240 497 518 744 331 564 l 240 968 l 140 968 l 140 0 l 240 0 l 240 476 b 729 0 451 463 556 399 m 561 1217 l 689 1217 l 468 1038 l 375 1038 "},"ќ":{"ha":664,"x_min":0,"x_max":0,"o":"m 553 0 b 196 343 397 276 290 328 l 196 0 l 106 0 l 106 701 l 196 701 l 196 364 b 525 701 257 415 382 543 l 642 701 b 329 382 478 519 374 411 b 664 0 406 353 475 322 m 283 789 l 449 968 l 564 968 l 379 789 "},"ћ":{"ha":769,"x_min":0,"x_max":0,"o":"m 196 0 l 106 0 l 106 826 l 17 826 l 17 899 l 106 899 l 106 1003 l 196 1003 l 196 899 l 365 899 l 365 826 l 196 826 l 196 664 b 400 721 231 692 311 721 b 665 396 590 721 665 651 l 665 0 l 575 0 l 575 378 b 390 635 575 592 531 635 b 196 536 290 635 196 600 "},"т":{"ha":668,"x_min":0,"x_max":0,"o":"m 379 0 l 289 0 l 289 618 l 14 618 l 14 701 l 654 701 l 654 618 l 379 618 "},"ы":{"ha":974,"x_min":0,"x_max":0,"o":"m 467 83 b 582 217 549 83 582 117 b 467 342 582 311 546 342 l 196 342 l 196 83 l 467 83 m 467 421 b 682 218 619 421 682 356 b 467 0 682 67 619 0 l 106 0 l 106 701 l 196 701 l 196 421 m 868 0 l 778 0 l 778 701 l 868 701 "},"ъ":{"ha":825,"x_min":0,"x_max":0,"o":"m 263 701 l 263 421 l 533 421 b 749 218 686 421 749 356 b 533 0 749 67 686 0 l 172 0 l 172 618 l 0 618 l 0 701 m 533 83 b 649 217 615 83 649 117 b 533 342 649 311 613 342 l 263 342 l 263 83 l 533 83 "},"н":{"ha":771,"x_min":0,"x_max":0,"o":"m 196 342 l 196 0 l 106 0 l 106 701 l 196 701 l 196 421 l 575 421 l 575 701 l 665 701 l 665 0 l 575 0 l 575 342 "},"п":{"ha":771,"x_min":0,"x_max":0,"o":"m 196 618 l 196 0 l 106 0 l 106 701 l 665 701 l 665 0 l 575 0 l 575 618 "},"и":{"ha":771,"x_min":0,"x_max":0,"o":"m 575 551 b 196 0 467 363 326 168 l 106 0 l 106 701 l 196 701 l 196 131 b 575 701 328 303 454 499 l 665 701 l 665 0 l 575 0 "},"й":{"ha":771,"x_min":0,"x_max":0,"o":"m 575 551 b 196 0 467 363 326 168 l 106 0 l 106 701 l 196 701 l 196 131 b 575 701 328 303 454 499 l 665 701 l 665 0 l 575 0 m 281 968 b 390 872 281 890 317 872 b 501 968 463 872 501 890 l 574 968 b 389 793 574 847 513 793 b 206 968 268 793 206 847 "},"л":{"ha":729,"x_min":0,"x_max":0,"o":"m 283 618 b 154 0 265 422 213 182 l 56 0 b 197 701 125 196 185 431 l 624 701 l 624 0 l 533 0 l 533 618 "},"д":{"ha":807,"x_min":0,"x_max":0,"o":"m 126 83 b 239 701 182 260 228 469 l 665 701 l 665 83 l 793 83 l 769 -178 l 701 -178 l 701 0 l 103 0 l 103 -178 l 35 -178 l 11 83 m 325 618 b 221 83 310 451 268 251 l 575 83 l 575 618 "},"ц":{"ha":807,"x_min":0,"x_max":0,"o":"m 665 83 l 793 83 l 769 -178 l 701 -178 l 701 0 l 106 0 l 106 701 l 196 701 l 196 83 l 575 83 l 575 701 l 665 701 "},"м":{"ha":951,"x_min":0,"x_max":0,"o":"m 481 181 b 700 701 547 360 619 528 l 846 701 l 846 0 l 756 0 l 756 621 b 517 50 669 436 582 228 l 432 50 b 196 621 361 232 278 440 l 196 0 l 106 0 l 106 701 l 257 701 b 481 181 336 526 411 356 "},"Ћ":{"ha":1019,"x_min":0,"x_max":0,"o":"m 650 721 b 915 396 840 721 915 651 l 915 0 l 825 0 l 825 378 b 640 635 825 592 781 635 b 446 540 543 635 450 601 l 446 0 l 344 0 l 344 885 l 8 885 l 8 968 l 781 968 l 781 885 l 446 885 l 446 664 b 650 721 481 692 561 721 "},"Џ":{"ha":992,"x_min":0,"x_max":0,"o":"m 243 83 l 757 83 l 757 968 l 856 968 l 856 0 l 568 0 l 539 -256 l 465 -256 l 436 0 l 143 0 l 143 968 l 243 968 "},"џ":{"ha":771,"x_min":0,"x_max":0,"o":"m 457 0 l 428 -228 l 354 -228 l 325 0 l 106 0 l 106 701 l 196 701 l 196 83 l 575 83 l 575 701 l 665 701 l 665 0 "},"№":{"ha":1524,"x_min":0,"x_max":0,"o":"m 240 0 l 140 0 l 140 968 l 276 968 b 772 149 449 713 619 425 l 772 968 l 874 968 l 874 0 l 754 0 b 240 867 601 283 426 579 m 1215 474 b 993 735 1063 474 993 533 b 1215 992 993 936 1064 992 b 1439 735 1368 992 1439 936 b 1215 474 1439 533 1369 474 m 1215 918 b 1076 733 1106 918 1076 890 b 1215 547 1076 586 1106 547 b 1356 733 1325 547 1356 586 b 1215 918 1356 890 1325 918 m 1031 342 l 1407 342 l 1407 258 l 1031 258 "},"љ":{"ha":1186,"x_min":0,"x_max":0,"o":"m 283 618 b 154 0 265 422 213 182 l 56 0 b 197 701 125 196 185 431 l 624 701 l 624 421 l 894 421 b 1110 218 1047 421 1110 356 b 894 0 1110 67 1047 0 l 533 0 l 533 618 m 894 83 b 1010 217 976 83 1010 117 b 894 342 1010 311 974 342 l 624 342 l 624 83 l 894 83 "},"њ":{"ha":1228,"x_min":0,"x_max":0,"o":"m 936 421 b 1151 218 1089 421 1151 356 b 936 0 1151 67 1089 0 l 575 0 l 575 342 l 196 342 l 196 0 l 106 0 l 106 701 l 196 701 l 196 421 l 575 421 l 575 701 l 665 701 l 665 421 m 936 83 b 1051 217 1018 83 1051 117 b 936 342 1051 311 1015 342 l 665 342 l 665 83 l 936 83 "},"ю":{"ha":1122,"x_min":0,"x_max":0,"o":"m 729 -19 b 425 342 528 -19 428 64 l 196 342 l 196 0 l 106 0 l 106 701 l 196 701 l 196 421 l 426 421 b 729 721 442 653 543 721 b 1035 354 933 721 1035 640 b 729 -19 1035 67 935 -19 m 729 638 b 522 351 579 638 522 590 b 729 64 522 124 579 64 b 938 351 881 64 938 124 b 729 638 938 590 881 638 "},"я":{"ha":764,"x_min":0,"x_max":0,"o":"m 658 701 l 658 0 l 568 0 l 568 296 l 438 296 b 153 0 328 296 267 257 l 50 0 b 297 317 175 263 228 306 b 93 497 146 317 93 399 b 313 701 93 606 142 701 m 568 374 l 568 618 l 313 618 b 190 499 229 618 190 590 b 318 374 190 415 228 374 "},"ч":{"ha":731,"x_min":0,"x_max":0,"o":"m 331 231 b 65 556 140 231 65 300 l 65 701 l 156 701 l 156 574 b 340 317 156 360 200 317 b 535 415 440 317 535 351 l 535 701 l 625 701 l 625 0 l 535 0 l 535 288 b 331 231 500 260 419 231 "},"щ":{"ha":1129,"x_min":0,"x_max":0,"o":"m 1024 0 l 106 0 l 106 701 l 196 701 l 196 83 l 501 83 l 501 701 l 592 701 l 592 83 l 897 83 l 897 701 l 988 701 l 988 83 l 1115 83 l 1092 -178 l 1024 -178 "},"ш":{"ha":1093,"x_min":0,"x_max":0,"o":"m 897 701 l 988 701 l 988 0 l 106 0 l 106 701 l 196 701 l 196 83 l 501 83 l 501 701 l 592 701 l 592 83 l 897 83 "},"а":{"ha":753,"x_min":0,"x_max":0,"o":"m 647 36 b 364 -19 571 1 453 -19 b 79 217 163 -19 79 35 b 357 449 79 417 200 449 b 557 426 431 449 485 442 b 350 635 557 599 513 635 b 149 601 283 635 204 625 l 122 686 b 356 721 176 701 261 721 b 647 449 560 721 647 661 m 557 350 b 368 368 506 363 438 368 b 181 224 228 368 181 353 b 368 63 181 83 221 63 b 557 94 436 63 503 75 "},"е":{"ha":758,"x_min":0,"x_max":0,"o":"m 403 721 b 689 342 601 721 689 640 l 188 342 b 424 65 189 114 261 65 b 625 103 474 65 565 81 l 646 19 b 415 -19 574 -3 474 -19 b 88 354 203 -19 88 67 b 403 721 88 629 194 721 m 403 636 b 189 424 256 636 200 589 l 586 424 b 403 636 578 599 532 636 "},"Ґ":{"ha":740,"x_min":0,"x_max":0,"o":"m 635 968 l 667 1196 l 740 1196 l 740 885 l 240 885 l 240 0 l 140 0 l 140 968 "},"ґ":{"ha":556,"x_min":0,"x_max":0,"o":"m 196 618 l 196 0 l 106 0 l 106 701 l 453 701 l 478 901 l 551 901 l 551 618 "},"":{"ha":742,"x_min":0,"x_max":0,"o":"m 606 0 b 522 211 578 64 550 135 l 199 211 b 133 0 175 140 153 69 l 35 0 b 296 701 106 235 197 467 l 458 701 b 707 0 528 465 614 194 l 606 0 m 356 618 b 225 283 310 507 265 394 l 497 283 b 390 618 458 393 421 510 "},"":{"ha":1056,"x_min":0,"x_max":0,"o":"m 908 338 l 569 338 l 569 83 l 992 83 l 992 0 l 479 0 l 479 211 l 149 211 b 8 0 100 140 51 69 l -103 0 b 407 701 50 235 224 467 l 992 701 l 992 618 l 569 618 l 569 417 l 908 417 m 450 618 b 200 283 365 507 281 394 l 479 283 l 479 618 l 450 618 "},"":{"ha":742,"x_min":0,"x_max":0,"o":"m 606 0 b 522 211 578 64 550 135 l 199 211 b 133 0 175 140 153 69 l 35 0 b 296 701 106 235 197 467 l 458 701 b 707 0 528 465 614 194 l 606 0 m 356 618 b 225 283 310 507 265 394 l 497 283 b 390 618 458 393 421 510 m 286 789 l 451 968 l 567 968 l 382 789 "},"":{"ha":742,"x_min":0,"x_max":0,"o":"m 606 0 b 522 211 578 64 550 135 l 199 211 b 133 0 175 140 153 69 l 35 0 b 296 701 106 235 197 467 l 458 701 b 707 0 528 465 614 194 l 606 0 m 356 618 b 225 283 310 507 265 394 l 497 283 b 390 618 458 393 421 510 m 390 789 l 206 968 l 321 968 l 486 789 "},"":{"ha":742,"x_min":0,"x_max":0,"o":"m 606 0 b 522 211 578 64 550 135 l 199 211 b 133 0 175 140 153 69 l 35 0 b 296 701 106 235 197 467 l 458 701 b 707 0 528 465 614 194 l 606 0 m 356 618 b 225 283 310 507 265 394 l 497 283 b 390 618 458 393 421 510 m 374 908 l 264 789 l 156 789 l 325 968 l 425 968 l 600 789 l 486 789 "},"":{"ha":742,"x_min":0,"x_max":0,"o":"m 606 0 b 522 211 578 64 550 135 l 199 211 b 133 0 175 140 153 69 l 35 0 b 296 701 106 235 197 467 l 458 701 b 707 0 528 465 614 194 l 606 0 m 356 618 b 225 283 310 507 265 394 l 497 283 b 390 618 458 393 421 510 m 242 913 b 299 858 285 913 299 906 b 242 799 299 807 285 799 b 183 858 197 799 183 807 b 242 913 183 906 197 913 m 504 913 b 561 858 547 913 561 906 b 504 799 561 807 547 799 b 446 858 460 799 446 807 b 504 913 446 906 460 913 "},"":{"ha":742,"x_min":0,"x_max":0,"o":"m 606 0 b 522 211 578 64 550 135 l 199 211 b 133 0 175 140 153 69 l 35 0 b 296 701 106 235 197 467 l 458 701 b 707 0 528 465 614 194 l 606 0 m 356 618 b 225 283 310 507 265 394 l 497 283 b 390 618 458 393 421 510 m 608 911 b 463 785 579 829 536 785 b 271 876 389 785 338 876 b 188 792 240 876 213 854 l 138 840 b 281 954 179 915 218 954 b 467 863 361 954 400 863 b 551 957 503 863 526 886 "},"":{"ha":742,"x_min":0,"x_max":0,"o":"m 606 0 b 522 211 578 64 550 135 l 199 211 b 133 0 175 140 153 69 l 35 0 b 296 701 106 235 197 467 l 458 701 b 707 0 528 465 614 194 l 606 0 m 356 618 b 225 283 310 507 265 394 l 497 283 b 390 618 458 393 421 510 m 371 1025 b 524 894 469 1025 524 982 b 371 764 524 807 469 764 b 219 894 274 764 219 807 b 371 1025 219 982 260 1025 m 371 963 b 292 892 310 963 292 938 b 371 819 292 849 310 819 b 453 892 435 819 453 849 b 371 963 453 938 435 963 "},"":{"ha":682,"x_min":0,"x_max":0,"o":"m 535 338 l 196 338 l 196 83 l 618 83 l 618 0 l 106 0 l 106 701 l 618 701 l 618 618 l 196 618 l 196 417 l 535 417 m 407 789 l 222 968 l 338 968 l 503 789 "},"":{"ha":682,"x_min":0,"x_max":0,"o":"m 535 338 l 196 338 l 196 83 l 618 83 l 618 0 l 106 0 l 106 701 l 618 701 l 618 618 l 196 618 l 196 417 l 535 417 m 274 789 l 439 968 l 554 968 l 369 789 "},"":{"ha":682,"x_min":0,"x_max":0,"o":"m 535 338 l 196 338 l 196 83 l 618 83 l 618 0 l 106 0 l 106 701 l 618 701 l 618 618 l 196 618 l 196 417 l 535 417 m 378 908 l 268 789 l 160 789 l 329 968 l 429 968 l 604 789 l 490 789 "},"":{"ha":682,"x_min":0,"x_max":0,"o":"m 535 338 l 196 338 l 196 83 l 618 83 l 618 0 l 106 0 l 106 701 l 618 701 l 618 618 l 196 618 l 196 417 l 535 417 m 253 913 b 310 858 296 913 310 906 b 253 799 310 807 296 799 b 194 858 208 799 194 807 b 253 913 194 906 208 913 m 515 913 b 572 858 558 913 572 906 b 515 799 572 807 558 799 b 457 858 471 799 457 807 b 515 913 457 906 471 913 "},"":{"ha":460,"x_min":0,"x_max":0,"o":"m 290 701 l 264 239 l 194 239 l 167 701 m 229 143 b 303 75 285 143 303 135 b 229 0 303 11 285 0 b 157 75 176 0 157 11 b 229 143 157 135 176 143 "},"":{"ha":632,"x_min":0,"x_max":0,"o":"m 106 701 l 618 701 l 618 618 l 196 618 l 196 383 l 535 383 l 535 304 l 196 304 l 196 0 l 106 0 "},"":{"ha":767,"x_min":0,"x_max":0,"o":"m 581 308 l 383 308 l 383 385 l 672 385 l 672 29 b 440 -19 619 6 514 -19 b 88 354 218 -19 88 67 b 440 721 88 640 224 721 b 654 686 499 721 596 706 l 625 601 b 440 635 568 625 499 635 b 188 351 276 635 188 590 b 440 67 188 124 272 67 b 581 86 488 67 542 74 "},"":{"ha":556,"x_min":0,"x_max":0,"o":"m 106 0 l 106 208 l 38 146 l 38 242 l 106 304 l 106 701 l 196 701 l 196 388 l 339 521 l 339 422 l 196 290 l 196 83 l 551 83 l 551 0 "},"":{"ha":771,"x_min":0,"x_max":0,"o":"m 575 150 b 196 701 467 339 326 533 l 106 701 l 106 0 l 196 0 l 196 571 b 575 0 328 399 454 203 l 665 0 l 665 701 l 575 701 m 629 911 b 483 785 600 829 557 785 b 292 876 410 785 358 876 b 208 792 261 876 233 854 l 158 840 b 301 954 200 915 239 954 b 488 863 382 954 421 863 b 572 957 524 863 547 886 "},"":{"ha":1178,"x_min":0,"x_max":0,"o":"m 551 0 b 406 -19 511 -12 463 -19 b 88 354 188 -19 88 67 b 406 721 88 640 189 721 b 554 701 463 721 513 715 l 1114 701 l 1114 618 l 668 618 b 724 417 699 571 718 506 l 1031 417 l 1031 338 l 725 338 b 665 83 724 221 704 139 l 1114 83 l 1114 0 m 406 638 b 188 351 242 638 188 590 b 406 64 188 124 242 64 b 625 351 571 64 625 124 b 406 638 625 590 571 638 "},"":{"ha":647,"x_min":0,"x_max":0,"o":"m 297 143 b 371 75 354 143 371 135 b 297 0 371 11 354 0 b 226 75 244 0 226 11 b 297 143 226 135 244 143 m 226 239 b 431 531 364 336 431 432 b 274 639 431 599 406 639 b 115 618 225 639 156 632 l 92 699 b 274 721 135 711 225 721 b 533 542 456 721 533 663 b 338 239 533 440 482 343 "},"":{"ha":764,"x_min":0,"x_max":0,"o":"m 658 253 b 382 -19 658 46 585 -19 b 106 253 179 -19 106 46 l 106 701 l 196 701 l 196 243 b 382 67 196 117 232 67 b 568 243 532 67 568 117 l 568 701 l 658 701 m 372 908 l 263 789 l 154 789 l 324 968 l 424 968 l 599 789 l 485 789 "},"":{"ha":764,"x_min":0,"x_max":0,"o":"m 658 253 b 382 -19 658 46 585 -19 b 106 253 179 -19 106 46 l 106 701 l 196 701 l 196 243 b 382 67 196 117 232 67 b 568 243 532 67 568 117 l 568 701 l 658 701 m 264 789 l 429 968 l 544 968 l 360 789 "},"":{"ha":764,"x_min":0,"x_max":0,"o":"m 658 253 b 382 -19 658 46 585 -19 b 106 253 179 -19 106 46 l 106 701 l 196 701 l 196 243 b 382 67 196 117 232 67 b 568 243 532 67 568 117 l 568 701 l 658 701 m 254 913 b 311 858 297 913 311 906 b 254 799 311 807 297 799 b 196 858 210 799 196 807 b 254 913 196 906 210 913 m 517 913 b 574 858 560 913 574 906 b 517 799 574 807 560 799 b 458 858 472 799 458 807 b 517 913 458 906 472 913 "},"":{"ha":764,"x_min":0,"x_max":0,"o":"m 658 253 b 382 -19 658 46 585 -19 b 106 253 179 -19 106 46 l 106 701 l 196 701 l 196 243 b 382 67 196 117 232 67 b 568 243 532 67 568 117 l 568 701 l 658 701 m 424 789 l 239 968 l 354 968 l 519 789 "},"":{"ha":657,"x_min":0,"x_max":0,"o":"m 374 0 l 283 0 l 283 326 b -10 701 200 443 100 575 l 106 701 b 332 403 186 606 260 506 b 556 701 406 488 488 600 l 667 701 b 374 326 578 578 472 443 "},"":{"ha":657,"x_min":0,"x_max":0,"o":"m 374 0 l 283 0 l 283 326 b -10 701 200 443 100 575 l 106 701 b 332 403 186 606 260 506 b 556 701 406 488 488 600 l 667 701 b 374 326 578 578 472 443 m 249 789 l 414 968 l 529 968 l 344 789 "},"":{"ha":657,"x_min":0,"x_max":0,"o":"m 374 0 l 283 0 l 283 326 b -10 701 200 443 100 575 l 106 701 b 332 403 186 606 260 506 b 556 701 406 488 488 600 l 667 701 b 374 326 578 578 472 443 m 201 913 b 258 858 244 913 258 906 b 201 799 258 807 244 799 b 143 858 157 799 143 807 b 201 913 143 906 157 913 m 464 913 b 521 858 507 913 521 906 b 464 799 521 807 507 799 b 406 858 419 799 406 807 b 464 913 406 906 419 913 "},"":{"ha":758,"x_min":0,"x_max":0,"o":"m 196 0 l 106 0 l 106 701 l 196 701 l 196 568 l 467 568 b 682 350 619 568 682 501 b 467 147 682 213 619 147 l 196 147 m 196 485 l 196 226 l 467 226 b 582 351 546 226 582 257 b 467 485 582 451 549 485 "},"":{"ha":765,"x_min":0,"x_max":0,"o":"m 474 83 b 582 201 556 83 582 121 b 469 338 582 286 549 338 l 196 338 l 196 83 l 474 83 m 463 417 b 565 522 543 417 565 461 b 463 618 565 593 543 618 l 196 618 l 196 417 l 463 417 m 522 379 b 682 199 647 375 682 293 b 489 0 682 67 613 0 l 106 0 l 106 701 l 476 701 b 661 535 631 701 661 622 b 522 379 661 451 643 389 "},"":{"ha":647,"x_min":0,"x_max":0,"o":"m 626 19 b 426 -19 574 -4 486 -19 b 88 354 208 -19 88 67 b 426 721 88 640 210 721 b 626 686 485 721 576 706 l 597 601 b 426 635 547 625 485 635 b 188 351 263 635 188 590 b 426 67 188 124 263 67 b 597 103 486 67 547 81 "},"":{"ha":301,"x_min":0,"x_max":0,"o":"m 196 0 l 106 0 l 106 701 l 196 701 "},"":{"ha":813,"x_min":0,"x_max":0,"o":"m 406 -19 b 88 354 188 -19 88 67 b 406 721 88 640 189 721 b 725 354 624 721 725 640 b 406 -19 725 67 625 -19 m 406 635 b 188 351 242 635 188 590 b 406 67 188 124 242 67 b 625 351 571 67 625 124 b 406 635 625 590 571 635 "},"":{"ha":771,"x_min":0,"x_max":0,"o":"m 196 342 l 196 0 l 106 0 l 106 701 l 196 701 l 196 421 l 575 421 l 575 701 l 665 701 l 665 0 l 575 0 l 575 342 "},"":{"ha":668,"x_min":0,"x_max":0,"o":"m 379 0 l 289 0 l 289 618 l 14 618 l 14 701 l 654 701 l 654 618 l 379 618 "},"ѕ":{"ha":700,"x_min":0,"x_max":0,"o":"m 561 599 b 361 638 504 621 429 638 b 182 511 242 638 182 621 b 357 403 182 442 231 411 b 617 201 539 390 617 332 b 346 -19 617 35 532 -19 b 93 18 276 -19 163 -6 l 121 103 b 346 63 169 81 274 63 b 518 193 460 63 518 82 b 346 315 518 268 481 304 b 83 503 176 328 83 371 b 361 721 83 668 179 721 b 592 685 429 721 513 707 l 561 599 "},"":{"ha":700,"x_min":0,"x_max":0,"o":"m 561 599 b 361 638 504 621 429 638 b 182 511 242 638 182 621 b 357 403 182 442 231 411 b 617 201 539 390 617 332 b 346 -19 617 35 532 -19 b 93 18 276 -19 163 -6 l 121 103 b 346 63 169 81 274 63 b 518 193 460 63 518 82 b 346 315 518 268 481 304 b 83 503 176 328 83 371 b 361 721 83 668 179 721 b 592 685 429 721 513 707 l 561 599 "},"":{"ha":664,"x_min":0,"x_max":0,"o":"m 196 0 l 106 0 l 106 701 l 196 701 m 667 0 b 321 383 481 233 364 361 b 642 701 365 413 478 519 l 525 701 b 196 371 361 519 243 403 b 550 0 244 354 365 226 "},"":{"ha":747,"x_min":0,"x_max":0,"o":"m 451 701 b 671 497 622 701 671 606 b 467 317 671 399 618 317 b 735 0 531 303 575 263 l 624 0 b 326 296 482 257 417 296 l 196 296 l 196 0 l 106 0 l 106 701 l 451 701 m 446 374 b 574 499 536 374 574 415 b 451 618 574 590 535 618 l 196 618 l 196 374 "},"":{"ha":771,"x_min":0,"x_max":0,"o":"m 575 701 l 665 701 l 665 0 l 575 0 b 196 571 454 203 328 399 l 196 0 l 106 0 l 106 701 l 196 701 b 575 150 326 533 467 339 "},"":{"ha":725,"x_min":0,"x_max":0,"o":"m 567 0 b 376 282 511 89 446 186 b 154 0 304 186 229 93 l 43 0 b 325 351 142 114 238 235 b 43 701 235 474 136 594 l 168 701 b 379 426 235 618 308 525 b 568 701 451 524 514 618 l 678 701 b 432 356 600 586 518 471 b 679 0 517 242 600 119 "},"":{"ha":707,"x_min":0,"x_max":0,"o":"m 351 86 b 574 701 436 290 517 497 l 672 701 b 411 0 601 467 510 235 l 283 0 b 35 701 214 236 128 507 l 136 701 b 351 86 211 526 292 294 "},"":{"ha":1129,"x_min":0,"x_max":0,"o":"m 1093 701 b 854 0 1031 467 949 224 l 726 0 b 571 597 686 193 615 467 b 390 0 524 406 453 174 l 263 0 b 35 701 199 236 117 497 l 142 701 b 331 86 207 532 279 294 b 513 701 392 256 483 564 l 628 701 b 794 86 685 538 753 271 b 992 701 872 290 943 497 l 1093 701 "},"":{"ha":497,"x_min":0,"x_max":0,"o":"m 392 224 b 163 -19 392 18 278 -19 b 0 11 110 -19 46 -8 l 28 96 b 163 64 63 78 122 64 b 301 224 228 64 301 85 l 301 701 l 392 701 "},"":{"ha":556,"x_min":0,"x_max":0,"o":"m 106 0 l 106 701 l 196 701 l 196 83 l 551 83 l 551 0 "},"":{"ha":758,"x_min":0,"x_max":0,"o":"m 196 618 l 196 360 l 467 360 b 582 485 546 360 582 390 b 467 618 582 585 549 618 m 196 281 l 196 0 l 106 0 l 106 701 l 467 701 b 682 483 619 701 682 635 b 467 281 682 346 619 281 "},"":{"ha":951,"x_min":0,"x_max":0,"o":"m 481 181 b 700 701 547 360 619 528 l 846 701 l 846 0 l 756 0 l 756 621 b 517 50 669 436 582 228 l 432 50 b 196 621 361 232 278 440 l 196 0 l 106 0 l 106 701 l 257 701 b 481 181 336 526 411 356 "},"":{"ha":764,"x_min":0,"x_max":0,"o":"m 658 253 b 382 -19 658 46 585 -19 b 106 253 179 -19 106 46 l 106 701 l 196 701 l 196 243 b 382 67 196 117 232 67 b 568 243 532 67 568 117 l 568 701 l 658 701 "},"":{"ha":682,"x_min":0,"x_max":0,"o":"m 535 338 l 196 338 l 196 83 l 618 83 l 618 0 l 106 0 l 106 701 l 618 701 l 618 618 l 196 618 l 196 417 l 535 417 "},"":{"ha":772,"x_min":0,"x_max":0,"o":"m 106 701 l 346 701 b 685 354 563 701 685 626 b 346 0 685 81 564 0 l 106 0 m 196 618 l 196 83 l 354 83 b 585 351 518 83 585 135 b 354 618 585 576 518 618 "},"":{"ha":688,"x_min":0,"x_max":0,"o":"m 50 38 b 488 618 217 239 397 478 l 72 618 l 72 701 l 629 701 l 629 667 b 200 83 506 478 300 197 l 631 83 l 631 0 l 50 0 "},"":{"ha":813,"x_min":0,"x_max":0,"o":"m 406 -19 b 88 354 188 -19 88 67 b 406 721 88 640 189 721 b 725 354 624 721 725 640 b 532 0 725 122 672 31 b 810 -253 594 -10 692 -101 l 690 -253 b 406 -19 581 -99 471 -19 m 406 638 b 188 351 242 638 188 590 b 406 64 188 124 242 64 b 625 351 571 64 625 124 b 406 638 625 590 571 638 "},"":{"ha":813,"x_min":0,"x_max":0,"o":"m 751 701 l 674 608 b 725 354 708 551 725 469 b 406 -19 725 67 625 -19 b 192 33 314 -19 243 -4 l 164 0 l 61 0 l 139 93 b 88 354 104 151 88 236 b 406 721 88 640 189 721 b 618 669 496 721 567 707 l 646 701 m 406 635 b 188 351 242 635 188 590 b 207 175 188 275 193 218 l 560 599 b 406 635 525 626 475 635 m 406 67 b 625 351 571 67 625 124 b 606 528 625 429 619 486 l 253 106 b 406 67 286 76 336 67 "},"":{"ha":688,"x_min":0,"x_max":0,"o":"m 50 38 b 488 618 217 239 397 478 l 72 618 l 72 701 l 629 701 l 629 667 b 200 83 506 478 300 197 l 631 83 l 631 0 l 50 0 m 353 849 l 463 968 l 571 968 l 401 789 l 301 789 l 126 968 l 240 968 "},"":{"ha":700,"x_min":0,"x_max":0,"o":"m 561 599 b 361 638 504 621 429 638 b 182 511 242 638 182 621 b 357 403 182 442 231 411 b 617 201 539 390 617 332 b 346 -19 617 35 532 -19 b 93 18 276 -19 163 -6 l 121 103 b 346 63 169 81 274 63 b 518 193 460 63 518 82 b 346 315 518 268 481 304 b 83 503 176 328 83 371 b 361 721 83 668 179 721 b 592 685 429 721 513 707 l 561 599 m 356 849 l 465 968 l 574 968 l 404 789 l 304 789 l 129 968 l 243 968 "},"":{"ha":647,"x_min":0,"x_max":0,"o":"m 626 19 b 426 -19 574 -4 486 -19 b 88 354 208 -19 88 67 b 426 721 88 640 210 721 b 626 686 485 721 576 706 l 597 601 b 426 635 547 625 485 635 b 188 351 263 635 188 590 b 426 67 188 124 263 67 b 597 103 486 67 547 81 m 417 0 l 417 -65 b 582 -169 544 -65 582 -86 b 408 -282 582 -256 533 -282 b 261 -253 339 -282 297 -274 l 286 -194 b 408 -218 317 -210 360 -218 b 488 -171 467 -218 488 -211 b 319 -128 488 -129 451 -121 l 369 0 "},"":{"ha":301,"x_min":0,"x_max":0,"o":"m 196 0 l 106 0 l 106 701 l 196 701 m 128 789 l -57 968 l 58 968 l 224 789 "},"":{"ha":301,"x_min":0,"x_max":0,"o":"m 196 0 l 106 0 l 106 701 l 196 701 m 71 789 l 236 968 l 351 968 l 167 789 "},"":{"ha":301,"x_min":0,"x_max":0,"o":"m 196 0 l 106 0 l 106 701 l 196 701 m 147 908 l 38 789 l -71 789 l 99 968 l 199 968 l 374 789 l 260 789 "},"":{"ha":301,"x_min":0,"x_max":0,"o":"m 196 0 l 106 0 l 106 701 l 196 701 m 18 913 b 75 858 61 913 75 906 b 18 799 75 807 61 799 b -40 858 -26 799 -40 807 b 18 913 -40 906 -26 913 m 281 913 b 338 858 324 913 338 906 b 281 799 338 807 324 799 b 222 858 236 799 222 807 b 281 913 222 906 236 913 "},"":{"ha":772,"x_min":0,"x_max":0,"o":"m 25 415 l 106 415 l 106 701 l 346 701 b 685 354 563 701 685 626 b 346 0 685 81 564 0 l 106 0 l 106 333 l 25 333 m 196 618 l 196 415 l 374 415 l 374 333 l 196 333 l 196 83 l 354 83 b 585 351 518 83 585 135 b 354 618 585 576 518 618 "},"":{"ha":813,"x_min":0,"x_max":0,"o":"m 406 -19 b 88 354 188 -19 88 67 b 406 721 88 640 189 721 b 725 354 624 721 725 640 b 406 -19 725 67 625 -19 m 406 638 b 188 351 242 638 188 590 b 406 64 188 124 242 64 b 625 351 571 64 625 124 b 406 638 625 590 571 638 m 439 789 l 254 968 l 369 968 l 535 789 "},"":{"ha":813,"x_min":0,"x_max":0,"o":"m 406 -19 b 88 354 188 -19 88 67 b 406 721 88 640 189 721 b 725 354 624 721 725 640 b 406 -19 725 67 625 -19 m 406 638 b 188 351 242 638 188 590 b 406 64 188 124 242 64 b 625 351 571 64 625 124 b 406 638 625 590 571 638 m 303 789 l 468 968 l 583 968 l 399 789 "},"":{"ha":813,"x_min":0,"x_max":0,"o":"m 406 -19 b 88 354 188 -19 88 67 b 406 721 88 640 189 721 b 725 354 624 721 725 640 b 406 -19 725 67 625 -19 m 406 638 b 188 351 242 638 188 590 b 406 64 188 124 242 64 b 625 351 571 64 625 124 b 406 638 625 590 571 638 m 400 908 l 290 789 l 182 789 l 351 968 l 451 968 l 626 789 l 513 789 "},"":{"ha":813,"x_min":0,"x_max":0,"o":"m 406 -19 b 88 354 188 -19 88 67 b 406 721 88 640 189 721 b 725 354 624 721 725 640 b 406 -19 725 67 625 -19 m 406 638 b 188 351 242 638 188 590 b 406 64 188 124 242 64 b 625 351 571 64 625 124 b 406 638 625 590 571 638 m 639 911 b 493 785 610 829 567 785 b 301 876 419 785 368 876 b 218 792 271 876 243 854 l 168 840 b 311 954 210 915 249 954 b 497 863 392 954 431 863 b 582 957 533 863 557 886 "},"":{"ha":813,"x_min":0,"x_max":0,"o":"m 406 -19 b 88 354 188 -19 88 67 b 406 721 88 640 189 721 b 725 354 624 721 725 640 b 406 -19 725 67 625 -19 m 406 638 b 188 351 242 638 188 590 b 406 64 188 124 242 64 b 625 351 571 64 625 124 b 406 638 625 590 571 638 m 274 913 b 331 858 317 913 331 906 b 274 799 331 807 317 799 b 215 858 229 799 215 807 b 274 913 215 906 229 913 m 536 913 b 593 858 579 913 593 906 b 536 799 593 807 579 799 b 478 858 492 799 478 807 b 536 913 478 906 492 913 "},"":{"ha":647,"x_min":0,"x_max":0,"o":"m 328 578 b 254 646 271 578 254 586 b 328 721 254 710 271 721 b 399 646 381 721 399 710 b 328 578 399 586 381 578 m 399 482 b 194 190 261 385 194 289 b 351 82 194 122 219 82 b 510 103 400 82 469 89 l 533 22 b 351 0 490 10 400 0 b 92 179 169 0 92 58 b 288 482 92 281 143 378 "},"":{"ha":460,"x_min":0,"x_max":0,"o":"m 168 0 l 194 463 l 264 463 l 292 0 m 229 558 b 156 626 174 558 156 567 b 229 701 156 690 174 701 b 301 626 282 701 301 690 b 229 558 301 567 282 558 "},"":{"ha":864,"x_min":0,"x_max":0,"o":"m 535 254 b 760 4 718 246 760 136 b 381 -282 760 -211 640 -282 b 85 -242 282 -282 168 -262 l 108 -164 b 381 -197 186 -187 288 -197 b 653 7 597 -197 653 -140 b 397 211 653 160 585 211 l 286 211 l 286 293 l 397 293 b 638 472 567 293 638 343 b 388 636 638 589 585 636 b 121 600 296 636 189 622 l 96 683 b 388 721 174 700 276 721 b 740 485 650 721 740 640 b 535 254 740 369 707 269 "},"":{"ha":864,"x_min":0,"x_max":0,"o":"m 547 639 b 192 82 417 478 258 203 l 547 82 m 646 82 l 783 82 l 783 0 l 646 0 l 646 -267 l 547 -267 l 547 0 l 57 0 l 57 21 b 486 701 150 193 331 501 l 646 701 "},"":{"ha":864,"x_min":0,"x_max":0,"o":"m 250 310 b 407 318 297 315 350 318 b 760 21 669 318 760 231 b 383 -282 760 -210 644 -282 b 107 -242 286 -282 192 -262 l 132 -164 b 383 -197 208 -187 290 -197 b 653 8 600 -197 653 -139 b 407 233 653 175 604 233 b 153 207 315 233 221 224 l 153 701 l 700 701 l 700 618 l 250 618 "},"":{"ha":864,"x_min":0,"x_max":0,"o":"m 739 863 b 522 901 681 886 597 901 b 196 557 308 901 207 854 b 447 581 272 572 381 581 b 801 283 710 581 801 493 b 454 -19 801 53 696 -19 b 92 490 190 -19 92 94 b 521 992 92 886 239 992 b 771 951 603 992 696 975 m 454 65 b 694 271 651 65 694 124 b 447 496 694 438 644 496 b 196 471 358 496 264 486 b 454 65 199 135 283 65 "},"":{"ha":864,"x_min":0,"x_max":0,"o":"m 797 665 b 364 -267 643 417 463 14 l 250 -267 b 664 618 364 46 533 411 l 113 618 l 113 701 l 797 701 "},"":{"ha":864,"x_min":0,"x_max":0,"o":"m 432 65 b 671 269 614 65 671 122 b 432 478 671 422 601 478 b 194 269 263 478 194 422 b 432 65 194 122 249 65 m 432 560 b 647 743 585 560 647 614 b 432 907 647 860 594 907 b 217 743 269 907 217 860 b 432 560 217 614 281 560 m 432 -19 b 88 267 207 -19 88 51 b 314 521 88 399 129 513 b 114 756 140 536 114 640 b 432 992 114 911 204 992 b 751 756 660 992 751 911 b 551 521 751 640 725 536 b 776 267 735 513 776 399 b 432 -19 776 51 658 -19 "},"":{"ha":864,"x_min":0,"x_max":0,"o":"m 436 121 b 82 400 174 121 82 189 b 429 721 82 631 188 721 b 782 383 693 721 782 656 b 404 -267 782 93 582 -111 l 265 -267 b 624 135 414 -143 550 -15 b 436 121 557 126 485 121 m 679 367 b 429 638 679 615 604 638 b 189 411 231 638 189 558 b 436 207 189 246 238 207 b 658 225 511 207 593 213 b 679 367 672 269 679 317 "},"":{"ha":864,"x_min":0,"x_max":0,"o":"m 439 -19 b 121 354 235 -19 121 67 b 439 721 121 640 236 721 b 744 354 643 721 744 640 b 439 -19 744 67 644 -19 m 439 638 b 221 351 275 638 221 590 b 439 64 221 124 275 64 b 644 351 604 64 644 124 b 439 638 644 590 604 638 "},"":{"ha":864,"x_min":0,"x_max":0,"o":"m 479 0 l 479 590 l 263 476 l 229 551 l 569 721 l 569 0 "},"":{"ha":864,"x_min":0,"x_max":0,"o":"m 729 83 l 729 0 l 140 0 l 140 76 b 618 494 539 296 618 376 b 400 631 618 589 574 631 b 182 600 339 631 217 617 l 160 693 b 401 721 224 708 333 721 b 724 497 647 721 724 649 b 282 83 724 361 610 231 "},"":{"ha":901,"x_min":0,"x_max":0,"o":"m 788 0 b 704 128 758 49 731 90 b 339 -19 607 42 482 -19 b 49 190 160 -19 49 32 b 250 381 49 286 100 374 b 97 549 110 392 97 464 b 392 721 97 663 178 721 b 682 549 606 721 682 663 b 504 376 682 464 644 388 b 717 244 567 368 636 333 b 813 415 763 300 794 361 l 907 415 b 765 188 878 340 829 260 b 890 0 804 138 846 76 m 340 64 b 661 186 475 64 582 117 b 381 342 569 297 486 342 b 144 206 228 342 144 304 b 340 64 144 100 194 64 m 381 421 b 589 531 519 421 589 444 b 392 638 589 607 551 638 b 190 531 232 638 190 607 b 381 421 190 444 242 421 "}}}
